<svg id="Capa_1" data-name="Capa 1" xmlns="http://www.w3.org/2000/svg" viewBox="0 0 200 187.22"><defs><style>.cls-1,.cls-3{fill:#fff;}.cls-10,.cls-11,.cls-12,.cls-13,.cls-2,.cls-3,.cls-4,.cls-5,.cls-6,.cls-7,.cls-8,.cls-9{fill-rule:evenodd;}.cls-4{fill:#ffd274;}.cls-5{fill:#3766b7;}.cls-6{fill:#3768be;}.cls-7{fill:#6a86d9;}.cls-8,.cls-9{fill:#a9bfea;}.cls-9{fill-opacity:0.81;}.cls-10{fill:#88c9d4;}.cls-11{fill:#fe965c;}.cls-12{fill:#fcd8c8;}.cls-13{fill:#fe4a3d;}</style></defs><polygon class="cls-1" points="61.08 17.85 53.43 20.27 54.89 5.93 63.37 6.46 61.08 17.85"/><path class="cls-1" d="M170,25.05,162,35.81c-2.51-1.62-4.87-4.14-7.38-5.74-1.45-.94-3-1-4.49-1.91.1-.36.68-.9.85-1.58,1-3.85.23-5.08,1.11-8.34,0-.23-.87-.43.66-1.1,1.21-.54,3.11-.25,3.07-.61-.44-4.38.56-4.34.19-5.65a89.41,89.41,0,0,0,6.44,7.18C164.89,20.52,167.52,22.59,170,25.05Z"/><g id="CHARACTER-2"><path class="cls-2" d="M78,81s1.74,7.53-10.65,10.64L58.17,72.08s7.9-2.33,8.49-4.81l5.27,8.11.69-.86Z"/><path class="cls-2" d="M59.25,32.82s2.64.13,3.56-3.6c0,0,3.22,3.2,5.54,2.86a14.89,14.89,0,0,1,.12-1.63,3.12,3.12,0,0,0-2.9-3.31h0L62,26.93a4.37,4.37,0,0,0-3.23,1.15L50,36l6.9,1.58.87-2S55.88,33.06,58,32C58,32.06,58.87,31.63,59.25,32.82Z"/><path class="cls-2" d="M65.14,39.44a1.94,1.94,0,0,0,1.58-.81l-.45,4.86-2.2-1Z"/><path class="cls-2" d="M25.69,97.26h0a17,17,0,0,1-8.92,2.52A16.62,16.62,0,0,1,0,83.38,16.29,16.29,0,0,1,8,69.45a11,11,0,0,1-2-6.29C6,56.22,12.75,50.6,21.05,50.6a17,17,0,0,1,9.38,2.73l6.58-5,1.58.4-7.08,5.43.67.58,6.44-5.46a3.44,3.44,0,0,1,.46-.55v.21l.21-.17-.43,1.14C38.18,53,36.78,61.18,40,63.53a13.75,13.75,0,0,0-3.84-.23h0a18,18,0,0,0-3.85.79,12.17,12.17,0,0,0-7.41,8.36A38.13,38.13,0,0,0,24,84.91c.07.79.16,1.59.28,2.44l1.63,9.77Z"/><path class="cls-3" d="M7.52,68.66c.22-.14.47-.33.74-.47a4,4,0,0,1,1.93-.66c2.25,0,3,1.43,2.87,2.28a2,2,0,0,1-.8,1.55,2.5,2.5,0,0,1-1.73.36,4.35,4.35,0,0,1-3.2-1.81,5.41,5.41,0,0,1,.72-.45v-.09a3.5,3.5,0,0,0,2.63,1.53,1.73,1.73,0,0,0,1.18-.22,1.34,1.34,0,0,0,.48-1c0-.55-.54-1.38-2-1.31a4,4,0,0,0-1.94.79l-.31.21A3.85,3.85,0,0,1,7.52,68.66Z"/><path class="cls-4" d="M35.91,32.82,31.4,46.94l7.51,1.63s-2.63,11.1.7,14.75l19.3,8.57a10.1,10.1,0,0,0,7.82-4.44L72,75.35l9.29-11.52s-7-15.45-15.55-20.63c0,0-.69,5.86-8.28,3.1-3.12-1.13-4.09-2.95-7.4-10.39Z"/><path class="cls-2" d="M66.73,67.45l1-1.82a.57.57,0,0,1,.63-.27.56.56,0,0,1,.43.54C68.92,68,69,71,69,71Z"/><path class="cls-3" d="M65.68,43.74s-1.32,5.33-8,2.63c0,0-4.18-.16-7.48-10.27L57,37.57l.92-1.73s-2.63-4,.85-3.61l.7.52a4.19,4.19,0,0,0,3.31-3.49S66.74,32.6,68.06,32c0,0,1.17,6.58-3,7.56l-1.14,2.83Z"/><path class="cls-5" d="M56.76,37.24l.71-1.46a.33.33,0,0,1,.46-.06.32.32,0,0,1,.12.35l-.83,1.69a.3.3,0,0,1-.35.16L50.28,36.6,50,35.89Z"/><path class="cls-5" d="M67.7,32.17s0,1.77-.14,3.57a3.76,3.76,0,0,1-1.72,3.06,3.81,3.81,0,0,1-3.53.25,3.77,3.77,0,0,1-.78-.45.31.31,0,0,0-.45.07.32.32,0,0,0,.07.44,3.58,3.58,0,0,0,.91.52,4.39,4.39,0,0,0,4.1-.29,4.43,4.43,0,0,0,2.08-3.57c0-1.82.14-3.57.14-3.57a.33.33,0,0,0-.31-.33h0a.32.32,0,0,0-.33.3h0Z"/><path class="cls-5" d="M64.86,39.42,63.2,43.49a.3.3,0,0,0,.12.39h0a.32.32,0,0,0,.41-.14h0l1.73-4.09a.33.33,0,0,0-.16-.42h0a.34.34,0,0,0-.44.16Z"/><path class="cls-5" d="M63.75,42.85c.6.27,1.16.56,1.73.87l.17.11a3.42,3.42,0,0,0,.09-.63s-1.17-.68-1.74-.93a.32.32,0,0,0-.43.12.31.31,0,0,0,.11.43l0,0Z"/><path class="cls-5" d="M64.69,35.68a1.2,1.2,0,0,0-1.16-.25.85.85,0,0,0-.53.63.32.32,0,0,0,.62.14h0c.08-.29.41-.23.67,0a.32.32,0,1,0,.4-.5Z"/><path class="cls-5" d="M63,36.06a1.16,1.16,0,0,0,.33,1.09,1.68,1.68,0,0,0,1,.49.94.94,0,0,0,.69-.16.8.8,0,0,0,.3-.72,1.48,1.48,0,0,0-.58-1.08.32.32,0,0,0-.45,0,.33.33,0,0,0,.05.45.85.85,0,0,1,.35.6.34.34,0,0,1,0,.2.31.31,0,0,1-.23,0,1,1,0,0,1-.56-.3.51.51,0,0,1-.17-.5.32.32,0,0,0-.24-.38.31.31,0,0,0-.38.23Z"/><path class="cls-5" d="M58.49,35.68a4.42,4.42,0,0,1-1-1.12,1.51,1.51,0,0,1,.26-2,.62.62,0,0,1,.36-.16.5.5,0,0,1,.45.11,1.32,1.32,0,0,1,.37,1,.3.3,0,0,0,.34.29h0a.32.32,0,0,0,.29-.34h0A1.88,1.88,0,0,0,59,32a1.15,1.15,0,0,0-.94-.25,1.22,1.22,0,0,0-.7.32,2.05,2.05,0,0,0-.38,2.8,5.16,5.16,0,0,0,1.1,1.32.32.32,0,0,0,.45-.06A.31.31,0,0,0,58.49,35.68Z"/><path class="cls-3" d="M54.13,4A40.32,40.32,0,0,0,58.83.45a4.89,4.89,0,0,1-1.47,5.13s.67,3.85-1,6.21L55.3,19.28,29.4,32.73l6.22.83L31.43,47.07,16.66,43.74A10.29,10.29,0,0,1,8.87,31.5h0a11.27,11.27,0,0,1,5.86-7.58L34.06,14,48.72,7"/><path class="cls-6" d="M31.8,32.2l4.05.73-.23.85-5.15-1a.41.41,0,0,1-.34-.34.42.42,0,0,1,.22-.44L57.4,18.1a.41.41,0,0,1,.55.17h0a.41.41,0,0,1-.17.55h0Z"/><path class="cls-6" d="M48.89,7.45,15.19,23.73a11.11,11.11,0,0,0-6,12.63h0a9.11,9.11,0,0,0,6.92,6.76l22.85,5-.16.84L16,43.93a10,10,0,0,1-7.56-7.4h0A12,12,0,0,1,14.84,23L48.53,6.62h0A46.66,46.66,0,0,0,58.55,0a.44.44,0,0,1,.32,0,.46.46,0,0,1,.29.17,3.15,3.15,0,0,1,.17,3.09,9.58,9.58,0,0,1-1.68,2.63.43.43,0,1,1-.6-.62A8,8,0,0,0,58.57,3a2.63,2.63,0,0,0,.15-1.89A46.72,46.72,0,0,1,48.89,7.45Z"/><path class="cls-3" d="M61.69,7.45s-3.52,1.31-2.64,2.8l.79.55s-2.48,1.78-.51,3.07c0,0-2.8,1.48-.7,3-1.12.25-1.55,3,.13,2.5a33,33,0,0,0,3-2A1.32,1.32,0,0,0,61,16s2.45-2.47.71-2.73l-.14-.69s2.8-1.93.24-2.43c0,0,4.78-3.24,0-4.43H61l-.19,2.07"/><path class="cls-6" d="M63.2,10.57A1.49,1.49,0,0,0,61.15,10h0l-2.27,1.31a1.53,1.53,0,0,0-.54,2.08.41.41,0,0,0,.57.15h0a.4.4,0,0,0,.15-.54h0a.7.7,0,0,1,.21-.93l2.28-1.31a.67.67,0,0,1,.92.22h0a.43.43,0,1,0,.75-.43Z"/><path class="cls-6" d="M58.28,13.46a1.53,1.53,0,0,0,2.08.54l2.26-1.31a1.54,1.54,0,0,0,.61-2.08l0,0a.41.41,0,1,0-.71.42h0a.68.68,0,0,1-.25.93L60,13.24a.69.69,0,0,1-.93-.22h0a.39.39,0,0,0-.53-.16h0a.42.42,0,0,0-.25.54Z"/><path class="cls-6" d="M61.48,7.08,59.32,8.39a1.55,1.55,0,0,0,1.31,2.8l.28-.16,2.4-1.41a2.17,2.17,0,0,0,1-2.63c-.49-1-3-1.32-4.26-1.32-2.81-.46-2.19.29-2.22.51a18.82,18.82,0,0,0,3.74.44c.87,0,1.62,0,2,.73a1,1,0,0,1-.09,1,1.69,1.69,0,0,1-.58.58l-2.4,1.45a.71.71,0,0,1-1-.25.7.7,0,0,1,.25-1h0L61.9,7.84a.39.39,0,0,0,.15-.54h0a.4.4,0,0,0-.53-.21h0Z"/><path class="cls-6" d="M62.48,13.6A1.42,1.42,0,0,0,60.57,13h0l-2.44,1.32a1.46,1.46,0,0,0-.55,2,.45.45,0,0,0,.58.17.43.43,0,0,0,.16-.58h0a.6.6,0,0,1,.21-.81h0L61,13.78a.62.62,0,0,1,.83.24.43.43,0,0,0,.57.15.4.4,0,0,0,.17-.55h0Z"/><path class="cls-6" d="M57.53,16.36a1.41,1.41,0,0,0,1.93.56h0l2.43-1.31a1.42,1.42,0,0,0,.56-1.93v0h0a.41.41,0,0,0-.55-.22.42.42,0,0,0-.24.51v.12a.59.59,0,0,1-.23.81L59,16.19a.6.6,0,0,1-.81-.24.43.43,0,0,0-.57-.16.42.42,0,0,0-.18.55v0Z"/><path class="cls-6" d="M62,16.48a1.31,1.31,0,0,0-1.75-.5l-2.46,1.38a1.32,1.32,0,0,0-.5,1.77.43.43,0,0,0,.57.15.41.41,0,0,0,.17-.55h0a.47.47,0,0,1,.18-.63l2.46-1.32a.46.46,0,0,1,.62.16h0a.41.41,0,0,0,.54.22h0a.41.41,0,0,0,.22-.51A.29.29,0,0,0,62,16.48Z"/><path class="cls-6" d="M57.33,19.13a1.31,1.31,0,0,0,1.76.48l2.47-1.31A1.32,1.32,0,0,0,62,16.53a.4.4,0,0,0-.55-.17h0a.43.43,0,0,0-.16.57.46.46,0,0,1-.17.63h0L58.7,18.88a.47.47,0,0,1-.63-.17h0a.41.41,0,0,0-.55-.17h0a.42.42,0,0,0-.2.56Z"/><path class="cls-6" d="M54.79,14.28,55,14a19.18,19.18,0,0,0,1.62-3.39A6.89,6.89,0,0,0,57,5.88a.43.43,0,0,1,.2-.55.42.42,0,0,1,.55.21,7.57,7.57,0,0,1-.31,5.26,19.31,19.31,0,0,1-1.66,3.57c-.08.13-.16.26-.25.38a3.67,3.67,0,0,1,.86,1.51.41.41,0,0,1-.27.52.42.42,0,0,1-.53-.27,2.67,2.67,0,0,0-.59-1.1,4.64,4.64,0,0,1-1.41,1.16,1.2,1.2,0,0,1-1.45-.24,1.09,1.09,0,0,1-.3-.71A.93.93,0,0,1,52,15a2.63,2.63,0,0,1,1.5-.9A2.44,2.44,0,0,1,54.79,14.28Zm-.54.68a1.43,1.43,0,0,0-.65,0,1.66,1.66,0,0,0-.83.43.41.41,0,0,0-.17.27.18.18,0,0,0,.07.17,1,1,0,0,0,.8-.11,5.32,5.32,0,0,0,.77-.73Z"/><path class="cls-6" d="M30.85,31.63l-4.08,2.09a.66.66,0,0,0-.31.88h0a.63.63,0,0,0,.72.35l7.48-1.31Z"/><path class="cls-7" d="M29.4,113.07a217.18,217.18,0,0,1-5.26-25.65c-3.63-28,15.57-24.1,15.57-24.1L59.36,71.8c11.16,16.45,18.43,37.52,22.38,52a13.07,13.07,0,0,1-9.18,16.05h0a12.62,12.62,0,0,1-3.67.46h0L79,178.74l-23.94,3.95a408,408,0,0,1-17.45-42.57l-24.68-2.63L15,112.57l14.41.44Z"/><path class="cls-6" d="M51,83.43l17.93,56.9a13.2,13.2,0,0,0,4.41-.72S57.66,102.12,52.25,83.08c-.19-.67-.45-1-.91-1S50.77,82.75,51,83.43Z"/><path class="cls-6" d="M25.45,112.9l7.47,26.71,4.72.88-8.29-27.43Z"/><path class="cls-8" d="M30.72,87.89a1.21,1.21,0,0,1-2.39.37v0a2,2,0,0,1,0-.35,1.12,1.12,0,0,0-2.22,0,3.42,3.42,0,0,0,6.84,0h0a1.12,1.12,0,0,0-2.22,0Z"/><path class="cls-8" d="M28.36,87.89a1.21,1.21,0,1,1,2.36-.57,1.37,1.37,0,0,1,0,.57,1.12,1.12,0,1,0,2.16.58,1.39,1.39,0,0,0,0-.35.88.88,0,0,0,0-.23,3.43,3.43,0,1,0-6.85,0h0a1.12,1.12,0,1,0,2.22.28v0a.88.88,0,0,0,0-.23Z"/><path class="cls-8" d="M43.24,64.88l2,.86v.2a1.2,1.2,0,0,0,.56,1.6,1.21,1.21,0,0,0,1.6-.56h0a.54.54,0,0,0,0-.18v-.1l2,.88h0a3.43,3.43,0,1,1-6.52-2.11h0l.16-.39A.58.58,0,0,1,43.24,64.88Z"/><path class="cls-8" d="M24.14,131.34a1.21,1.21,0,0,1-2.4.38v0a2,2,0,0,1,0-.35,1.12,1.12,0,1,0-2.22-.29v0a1,1,0,0,0,0,.24,3.43,3.43,0,0,0,6.8.84,2.5,2.5,0,0,0,0-.47,1.48,1.48,0,0,0,0-.42,1.11,1.11,0,1,0-2.21,0Z"/><path class="cls-8" d="M21.67,131.34A1.24,1.24,0,0,1,23,130.23a1.26,1.26,0,0,1,1.11,1.11,1.11,1.11,0,0,0,2.21,0,3.42,3.42,0,1,0-6.83-.47v0a2.94,2.94,0,0,0,0,.42,1.12,1.12,0,0,0,2.23,0Z"/><path class="cls-8" d="M55.84,99l.7,2.2h-.21a1.32,1.32,0,1,0,0,2.63,1.17,1.17,0,0,0,.91-.45l.69,2.26a3.32,3.32,0,0,1-1.6.42,3.58,3.58,0,0,1-.49-7.1Z"/><path class="cls-8" d="M46.65,121.37a1.21,1.21,0,1,1-2.39.38v0a2.16,2.16,0,0,1,0-.36,1.11,1.11,0,1,0-2.21,0h0a3.42,3.42,0,1,0,6.83.47v0a2.94,2.94,0,0,0,0-.42,1.12,1.12,0,0,0-2.23,0Z"/><path class="cls-8" d="M44.25,121.37a1.21,1.21,0,0,1,2.4-.38v0a2.16,2.16,0,0,1,0,.36,1.12,1.12,0,0,0,2.23,0,3.42,3.42,0,1,0-6.83-.47v0a2.94,2.94,0,0,0,0,.42,1.11,1.11,0,1,0,2.21,0Z"/><path class="cls-8" d="M44.25,152.31a1.21,1.21,0,0,1,2.4-.37v0a2,2,0,0,1,0,.35,1.12,1.12,0,0,0,2.23,0,3.42,3.42,0,0,0-6.83-.47v0a2.94,2.94,0,0,0,0,.42,1.11,1.11,0,1,0,2.21,0Z"/><path class="cls-8" d="M46.65,152.31a1.21,1.21,0,1,1-2.39.38v0a2.16,2.16,0,0,1,0-.36,1.11,1.11,0,0,0-2.21,0,3.42,3.42,0,0,0,6.83.48v-.06a2.94,2.94,0,0,0,0-.42,1.12,1.12,0,0,0-2.23,0Z"/><path class="cls-8" d="M72,173.12a1.21,1.21,0,1,1,2.39-.38v0a1.09,1.09,0,0,1,0,.36,1.11,1.11,0,0,0,2.22,0,3.42,3.42,0,1,0-6.83-.47v0a2.94,2.94,0,0,0,0,.42,1.12,1.12,0,0,0,2.23,0Z"/><path class="cls-8" d="M74.35,173.12a1.2,1.2,0,0,1-1,1.38,1.21,1.21,0,0,1-1.39-1v0a1,1,0,0,1,0-.35,1.12,1.12,0,1,0-2.22-.29v0a1,1,0,0,0,0,.24,3.42,3.42,0,0,0,6.83.47v-.05a2.94,2.94,0,0,0,0-.42,1.11,1.11,0,1,0-2.22,0Z"/><path class="cls-8" d="M76.57,131.34a1.22,1.22,0,1,1,2.43-.25.53.53,0,0,1,0,.25,1.11,1.11,0,0,0,2.21,0h0a3.42,3.42,0,1,0-6.83-.47v0a2.94,2.94,0,0,0,0,.42,1.11,1.11,0,0,0,2.21,0Z"/><path class="cls-8" d="M79,131.34a1.21,1.21,0,1,1-2.4.28v0a1,1,0,0,1,0-.25,1.11,1.11,0,1,0-2.21,0h0a3.42,3.42,0,1,0,6.83.47v-.05a1.48,1.48,0,0,0,0-.42,1.11,1.11,0,1,0-2.21,0Z"/><path class="cls-8" d="M73.54,99.63l.85,2.17a1.24,1.24,0,0,0-.51.93,1.5,1.5,0,0,0,0,.3,1.26,1.26,0,0,0,1.24.79l.81,2.24a3.62,3.62,0,0,1-4.16-2.33A3.47,3.47,0,0,1,73.54,99.63Z"/><path class="cls-9" d="M50.11,172.05a14.12,14.12,0,0,1,5.69,2.63,14.48,14.48,0,0,1,4.66,7.06l-2.21.37a12.3,12.3,0,0,0-3.83-5.63,11.22,11.22,0,0,0-3.07-1.82Zm9.88-.54a12,12,0,0,1,1.09-7.9c1.44-2.63,4.35-5.27,9.9-6.81a1.11,1.11,0,0,0-.56-2.14c-6.39,1.68-9.64,4.82-11.3,7.9a14.23,14.23,0,0,0-1.32,9.5A1.11,1.11,0,0,0,60,171.5h0ZM36.68,137.28a14.26,14.26,0,0,1,8.43.25c3.31,1.18,6.87,3.95,9.48,10A1.12,1.12,0,0,1,54,149h0a1.12,1.12,0,0,1-1.46-.59c-2.26-5.27-5.26-7.77-8.19-8.8a11.92,11.92,0,0,0-7-.22Zm31.6,1.51.75,2.53a23.88,23.88,0,0,1-4.29,3.47,1.11,1.11,0,1,1-1.16-1.89h0a20.55,20.55,0,0,0,4.76-4.11ZM17.35,123.54a12,12,0,0,1,7.9,1.32c2.64,1.51,5.27,4.48,6.59,10.09a1.1,1.1,0,0,0,1.31.81,1.08,1.08,0,0,0,.82-1.31h0c-1.51-6.43-4.55-9.77-7.6-11.51a14.21,14.21,0,0,0-9.46-1.54,1.12,1.12,0,0,0-.72,1.41,1.13,1.13,0,0,0,1.22.76ZM54,114.72a12,12,0,0,1,3.84,7c.44,3-.31,6.87-4,11.36a1.1,1.1,0,0,0,1.51,1.61.89.89,0,0,0,.22-.29c4.13-5.15,4.88-9.62,4.36-13.08A14.28,14.28,0,0,0,55.3,113a1.11,1.11,0,0,0-1.57.17,1.1,1.1,0,0,0,.24,1.54Zm12.61,8.43A24.67,24.67,0,0,1,70,120.51a1.11,1.11,0,0,1,1.54.31,1.1,1.1,0,0,1-.3,1.54h0a21,21,0,0,0-3.74,3.11ZM18.43,112.78l2.94.08a11.9,11.9,0,0,0,6.06,3.31h0a1.12,1.12,0,0,1,1.05,1.18,1.13,1.13,0,0,1-1.18,1.06h-.23a14.21,14.21,0,0,1-8.2-5c-.15-.19-.29-.4-.44-.6Zm61,3.68a13.71,13.71,0,0,1-2.64.13c-3.5-.17-7.71-1.78-12-6.83a1.12,1.12,0,0,1,.14-1.57,1.1,1.1,0,0,1,1.56.13c3.7,4.41,7.34,5.9,10.39,6.06a14.43,14.43,0,0,0,1.86,0Zm-52.67-14a14.05,14.05,0,0,1,5.27,1c3.19,1.45,6.58,4.5,8.61,10.76a1.11,1.11,0,0,1-2.11.71c-1.82-5.47-4.63-8.19-7.43-9.46a12.13,12.13,0,0,0-3.95-.88ZM52.05,87l.62,2.12a11.71,11.71,0,0,0-5.08,2.79,11.93,11.93,0,0,0-3.53,7.15h0a1.11,1.11,0,0,1-2.22-.15,14.34,14.34,0,0,1,4.24-8.62,14,14,0,0,1,6-3.29Zm11.38-8.48,1.21,2.13h0a12.76,12.76,0,0,0-2.23,8.22,11.8,11.8,0,0,0,3.43,7.17h0a1.13,1.13,0,0,1,.09,1.57,1.11,1.11,0,0,1-1.57.09,14.22,14.22,0,0,1-4.21-8.62,15.36,15.36,0,0,1,3.26-10.54Zm-36.1-11A13.72,13.72,0,0,1,32,69.27c3,1.8,6,5.26,7.32,11.68a1.1,1.1,0,0,1-.81,1.31h0a1.1,1.1,0,0,1-1.32-.84h0c-1.18-5.64-3.67-8.66-6.29-10.23A11.4,11.4,0,0,0,26,69.61a13.35,13.35,0,0,1,1.42-2Zm31.92,4.32.5.76a12.23,12.23,0,0,1-2.16,2.27c-2.63,2.22-6.91,3.87-13.45,3a1.11,1.11,0,1,1,.3-2.2h0c5.7.76,9.39-.57,11.74-2.5a10.45,10.45,0,0,0,1.75-1.89Z"/><path class="cls-3" d="M73,74.1s6.44,12.44,17.33,8c0,0,5.27-.53,7.43-9.36L102.62,33s-.27-.26-1.09.36.08-.5.08-.5l-.08.5s1.32-6.59,1.74-7.64l.59-1.94s-.49-1.84-4.49,3.59l-3.58,9.49L83.62,68.13,81.2,64.38l-.42.23Z"/><path class="cls-6" d="M86,72.62a.48.48,0,0,0,.64.2.48.48,0,0,0,.24-.51C86.47,69,85.66,63,85.66,63l-2.25,5.59Z"/><path class="cls-6" d="M80.75,64.55l4.41,6.59a.45.45,0,0,0,.58.12.41.41,0,0,0,.14-.57h0l-4.55-6.78Z"/><path class="cls-6" d="M102.23,33.19a1.43,1.43,0,0,0-.75.53.42.42,0,0,1-.58.06.41.41,0,0,1-.12-.47s1.49-4.68,2.36-7.31a.25.25,0,0,0-.12-.32h0a.23.23,0,0,0-.29.08c-1.94,1.92-4.33,6.47-6.74,11.85-5.7,12.7-11.46,30.14-11.46,30.14A.41.41,0,0,1,84,68h0a.43.43,0,0,1-.28-.53s5.8-17.42,11.48-30.29c2.47-5.5,4.94-10.12,6.93-12.1a1.1,1.1,0,0,1,1.78,1.16l-2,6.09a1.24,1.24,0,0,1,.89,0,.41.41,0,0,1,.28.44L97.62,74A11,11,0,0,1,86.9,83.5h0A15.12,15.12,0,0,1,75.05,78l-2.63-3.25L73,74s1.2,1.65,2.64,3.46A14.21,14.21,0,0,0,86.9,82.67h0a10.12,10.12,0,0,0,9.92-8.76Z"/><path class="cls-6" d="M102.26,23.37a1.15,1.15,0,0,1,1.4-.47,1.18,1.18,0,0,1,.72,1.32l-.48,2.15a.43.43,0,0,1-.5.31.43.43,0,0,1-.32-.5l.48-2.09a.31.31,0,0,0-.2-.37.32.32,0,0,0-.41.13h0v.08l-2.75,3a4,4,0,0,0-.85,1.5l-1.83,5.92a.42.42,0,0,1-.49.27h0a.4.4,0,0,1-.28-.5h0l1.83-5.9a4.93,4.93,0,0,1,1-1.89Z"/><path class="cls-6" d="M98.75,39a20.67,20.67,0,0,1,2.64-5.14,1.76,1.76,0,0,1,.4-.37.4.4,0,0,1,.23-.08c.1,0,.18.11.26.24a.4.4,0,0,0,.54.15h0a.42.42,0,0,0,.14-.56,1.21,1.21,0,0,0-.9-.63,1.71,1.71,0,0,0-1.32.72A22.92,22.92,0,0,0,98,38.73a.42.42,0,0,0,.25.53.41.41,0,0,0,.53-.23Z"/><path class="cls-3" d="M14.84,112.9l-5.62-.4L1,144.28s3.47.53,5.71-7l6.25.28Z"/><path class="cls-3" d="M55.84,182.69l1.4,3.67,30.53.83a12.14,12.14,0,0,0-8.16-4.91l-1.78-3.36Z"/><path class="cls-10" d="M7,137.09C5.7,140.29,4.45,143,3.42,144c-1.81,1.63-3.08,1-3.08,1a.4.4,0,0,1-.23-.5l8.76-31.72a.43.43,0,0,1,.41-.3l5.7.17-.07.83-5.27-.17-8.57,31a2.68,2.68,0,0,0,1.16-.4c1.1-.69,2.63-3.37,4.16-7.34a.41.41,0,0,1,.39-.26l6.28.53v.84Z"/><path class="cls-10" d="M86.77,186.35a15.12,15.12,0,0,0-2.8-2.11,7.43,7.43,0,0,0-4.59-1.12.38.38,0,0,1-.44-.26l-1.39-4,.9-.17,1.16,3.5a8.25,8.25,0,0,1,4.78,1.32,15.78,15.78,0,0,1,3.68,3,.46.46,0,0,1-.36.68H57a.43.43,0,0,1-.39-.26L55,182.76l.75-.14,1.49,3.77Z"/></g><g id="CHARACTER-1"><path class="cls-3" d="M99.7,124.29,63,154c-2.71-1.79-5.62-2.91-7.9-1.13L72.92,173l39-26.11L136.29,181c-3.95.47-6.86,1.55-7.38,4.09h34q-15.4-26.75-32.35-52.41L157.37,109c14.3-17.48,6.66-30.12-4.22-32.15a28.83,28.83,0,0,0,8.9-12.25s24,0,25-1c.44-.44.68-1.4,1.32-1.32,13.29,2.11,10.19-10.54,10.19-10.54L170.71,25.05,162.4,35.58l13.43,12.83L156,49.08a40.3,40.3,0,0,0-8.84,1.71l-1.6-4.25s4.18-2.07,1.31-4.31c-.31-.25-.93.77-.93.77l-.38-2.08c-.43-3.31-2.48-4.14-5.14-4.06q-6.5-10.26-14-19.95a52.49,52.49,0,0,0-8.65,9.46l20.5,11c-2.71.93-3,3-2.73,5.27.13,1.92,0,4.83,2.73,6.24v3.5c-12.24,2-18.11,7.15-24.74,14.27,0,0-.52-11.85-1.12-20.16-.15-2.26-.43-5.71-.8-8.34-.24-1.64.87-6,.18-7.23a56.32,56.32,0,0,0-4-6.2c-1.41-2.09-2.71-2.43-3.21-2.2l.63,8.79-1.68-1-2.39,18.77c-1.56,16.38-8.36,49.7,27.85,21.35,1.73,4,4,6.86,7.72,7.58-10,5.47-18.15,14.18-26.34,22.65C100.91,111.82,99,118.42,99.7,124.29Z"/><path class="cls-11" d="M101,49.24l12.12-2.81.59,19.76s10.53-11.85,20.55-12.92c.24,0,.41-.08.65-.09,0,0,9.81,6.34,19.3-4l21.58-.68L161.26,36.1l9.21-11.6L197,49a9.22,9.22,0,0,1,2.87,8.31h0a7.17,7.17,0,0,1-6.8,6l-31,1.21s-2.88,8.83-8.89,12.31h.53a13.75,13.75,0,0,1,11.94,11.93h0a20.1,20.1,0,0,1-4.11,14.82l-4.14,5.26s-2.18-8.36-9.48-7.9l-37.72-.23s16.32-18.63,26.34-22.65a10.71,10.71,0,0,1-7.72-7.59L116.15,80.58a12.6,12.6,0,0,1-8.18,2.8h0A10.61,10.61,0,0,1,97.62,72.51v-.06a9.51,9.51,0,0,1,.11-1.31C99.19,61.46,101,49.24,101,49.24Z"/><path class="cls-12" d="M158.15,78.33a10.75,10.75,0,0,1,2.15,1.31,8.42,8.42,0,0,0-4.44,3.76,8.75,8.75,0,0,0-.41,6.42,1.13,1.13,0,0,1-.67,1.44,1.12,1.12,0,0,1-1.43-.67.86.86,0,0,1-.06-.23,10.94,10.94,0,0,1,.59-8A10.14,10.14,0,0,1,158.15,78.33Z"/><path class="cls-12" d="M165.75,89.93a13.54,13.54,0,0,1-5.81-.91,1.11,1.11,0,1,1,.9-2,10.58,10.58,0,0,0,4.59.76C165.57,88.47,165.68,89.2,165.75,89.93Z"/><path class="cls-12" d="M152.74,102.29a7.25,7.25,0,0,0,2.76-.87,8.8,8.8,0,0,0,3.82-5.16,1.11,1.11,0,0,1,2.09.72h0a10.91,10.91,0,0,1-4.87,6.38,9.72,9.72,0,0,1-1.79.76A15.81,15.81,0,0,0,152.74,102.29Z"/><path class="cls-12" d="M146.9,92.89S143.11,88.64,138,89a11,11,0,0,0-7.09,3.77,1.1,1.1,0,0,0,1.6,1.52,8.87,8.87,0,0,1,5.66-3.06c4.07-.33,7.06,3.09,7.06,3.09a1.13,1.13,0,0,0,1.57.11,1.11,1.11,0,0,0,.12-1.55h0Z"/><path class="cls-12" d="M132.84,80.1A13.86,13.86,0,0,1,136.79,83a1.12,1.12,0,0,1-.08,1.57h0a1.13,1.13,0,0,1-1.57-.09,10.44,10.44,0,0,0-4.54-2.86C131.22,81.17,132.1,80.58,132.84,80.1Z"/><path class="cls-12" d="M145.09,80a1.14,1.14,0,0,1-1.29,1h0a1.12,1.12,0,0,1-1-1.06s.28-4.55-2.83-7.18a8.86,8.86,0,0,0-6.19-1.79,1.12,1.12,0,0,1,0-2.23A11,11,0,0,1,141.48,71C145.38,74.28,145.09,80,145.09,80Z"/><path class="cls-12" d="M147.91,70.86A1.1,1.1,0,0,1,146.6,70s0,0,0,0a1.09,1.09,0,0,1,.85-1.31h.11s4.5-.67,6.43-4.27a8.81,8.81,0,0,0,.47-6.42,1.09,1.09,0,1,1,2.13-.49,11,11,0,0,1-.67,8C153.59,70,147.91,70.86,147.91,70.86Z"/><path class="cls-12" d="M191.25,43.71l1.62,1.51a7.09,7.09,0,0,0-1.05,2.18,8.85,8.85,0,0,0,.91,6.37,1.12,1.12,0,0,1-.67,1.43h0a1.09,1.09,0,0,1-1.31-.46,11,11,0,0,1-1-7.9A9.27,9.27,0,0,1,191.25,43.71Z"/><path class="cls-12" d="M181.35,52.81a1.12,1.12,0,0,1-1.31.88h0a1.1,1.1,0,0,1-.89-1.26s0,0,0-.06h0s.86-4.47-1.9-7.48a8.82,8.82,0,0,0-5.89-2.63,1.11,1.11,0,1,1,.22-2.21,11,11,0,0,1,7.32,3.29C182.36,47.2,181.35,52.81,181.35,52.81Z"/><path class="cls-12" d="M163.13,49l.22.11a8.83,8.83,0,0,0,6.43.47,1.11,1.11,0,1,1,.52,2.16h0a10.8,10.8,0,0,1-8-.67,9.24,9.24,0,0,1-2.44-2Z"/><path class="cls-12" d="M139.68,55a17.33,17.33,0,0,0,2.5.21l-.32.45a8.79,8.79,0,0,0-.93,6.37,1.12,1.12,0,0,1-.88,1.31h0a1.11,1.11,0,0,1-1.31-.85h0A11.22,11.22,0,0,1,139.68,55Zm2.13-2.64-.26.24Z"/><path class="cls-12" d="M123.49,57.72a7.92,7.92,0,0,0,4.1,2.07,8.84,8.84,0,0,0,6.21-1.7,1.12,1.12,0,0,1,1.54.3h0a1.11,1.11,0,0,1-.33,1.54,10.89,10.89,0,0,1-7.75,2,10.23,10.23,0,0,1-5.6-3Z"/><path class="cls-12" d="M119.6,77.9a9.26,9.26,0,0,1-.85-3.43c-.23-5.12,4.14-8.77,4.14-8.77a1.09,1.09,0,0,1,1.54.13h0a1.1,1.1,0,0,1-.13,1.55h0s-3.52,2.89-3.33,7a7,7,0,0,0,.44,2.06Z"/><path class="cls-12" d="M99.66,79a10.47,10.47,0,0,1,5.27-3.66c5-1.32,9.41,2.31,9.41,2.31A1.11,1.11,0,0,1,113,79.42s-3.53-2.88-7.48-1.9a8.56,8.56,0,0,0-4.23,3.24A10.31,10.31,0,0,1,99.66,79Z"/><path class="cls-12" d="M100.07,55.41a9.4,9.4,0,0,1,2.38,3.11c2.2,4.62-.42,9.68-.42,9.68a1.12,1.12,0,0,1-1.5.47,1.09,1.09,0,0,1-.46-1.48s2.13-4,.38-7.71a7.6,7.6,0,0,0-.79-1.31Z"/><path class="cls-12" d="M113.32,55a16.6,16.6,0,0,1-7.83-.31,1.1,1.1,0,0,1-.72-1.39,1.12,1.12,0,0,1,1.4-.73h0a13,13,0,0,0,7.07.16Z"/><path class="cls-12" d="M124.1,100.89a.89.89,0,0,1-.16-.22c-3-4.19-1.21-9.61-1.21-9.62a1.12,1.12,0,0,1,2.12.69s-1.44,4.32.91,7.65a6.07,6.07,0,0,0,1.46,1.53Z"/><path class="cls-12" d="M168.08,27.53A9,9,0,0,0,170,30a10.45,10.45,0,0,0,7.25,2.63,1.14,1.14,0,0,1,1.26,1,1.12,1.12,0,0,1-1,1.25h-.29a12.61,12.61,0,0,1-8.7-3.2,10.66,10.66,0,0,1-1.88-2.25Z"/><path class="cls-12" d="M182.55,63.78a10.83,10.83,0,0,1,6.17-4.86c4.49-1.2,8.63,1.54,9.36,2.06a7,7,0,0,1-1.83,1.47,9.07,9.07,0,0,0-6.95-1.32,7.94,7.94,0,0,0-4,2.63Z"/><path class="cls-12" d="M173.24,64.18a7.76,7.76,0,0,0-1.94-3.29,8.86,8.86,0,0,0-6.05-2.21,1.12,1.12,0,0,1,.09-2.22,10.93,10.93,0,0,1,7.5,2.84,9.8,9.8,0,0,1,2.64,4.79Z"/><path class="cls-13" d="M113.67,66.23l.25,5a.62.62,0,0,0,.55.59.61.61,0,0,0,.68-.43L118,61.92Z"/><path class="cls-13" d="M175.74,48.57l8.6,6.41a.42.42,0,0,1-.45.71L170,48.75Z"/><path class="cls-13" d="M162.05,64.55a20.2,20.2,0,0,0,.22-2.7.79.79,0,0,1,1.42-.47,9.78,9.78,0,0,1,1.82,3h0Z"/><path class="cls-13" d="M128.8,70.58a8.57,8.57,0,0,1-.18-2,.56.56,0,0,0-.39-.51.53.53,0,0,0-.6.21,7.81,7.81,0,0,0-1.56,4.44Z"/><path class="cls-3" d="M155.92,11.26s-2.14,1.65.7,5.57Z"/><path class="cls-3" d="M152.62,16.56s-3.56-.41-2.94,2.35l1,1.19.73.58s-2.29.63-.73,2.41l.9.71s-2.92.28-.17,2.57l.76.59s-2.86-.22-1.49,1.59l2.87,2,.62-.89-1.19-1.73,1.54-.7c-.19-.32,0-.74-.33-1.08s-1.32-.95-.91-1.15,1.1-.8.93-1.45-1.31-1.46-1.31-1.46a1.4,1.4,0,0,0,1.31-1.45.74.74,0,0,0,0-.21c-.18-.79-1.39-1.59-1.39-1.59Z"/><path class="cls-2" d="M153.66,24.1a.68.68,0,0,1-1,.11l-2-1.66a.44.44,0,0,0-.6,0h0a.41.41,0,0,0,0,.58h0l2.05,1.66a1.52,1.52,0,0,0,2.13-.23.42.42,0,0,0,0-.59h0a.42.42,0,0,0-.58.06h0Z"/><path class="cls-2" d="M150.66,22.55a.68.68,0,0,1-.12-.95h0a.68.68,0,0,1,1-.1l2,1.65a.69.69,0,0,1,.12,1h0a.41.41,0,0,0,0,.58h0a.41.41,0,0,0,.58,0h0a1.52,1.52,0,0,0-.19-2.13l-2-1.66a1.52,1.52,0,0,0-1.91,2.36.42.42,0,0,0,.58-.06h0a.42.42,0,0,0,0-.59Z"/><path class="cls-2" d="M151.57,18.47,153.51,20a.7.7,0,0,1,.12,1h0a.72.72,0,0,1-1,.1l-2.16-1.75a1.43,1.43,0,0,1-.48-.66,1,1,0,0,1,0-1c.44-.67,1.11-.68,2-.62.23,0,4.09,0,4.3-.09.56-.26-.7-.92-4.23-.73a2.61,2.61,0,0,0-2.74,1,2.18,2.18,0,0,0,.59,2.77l2.18,1.76a1.53,1.53,0,0,0,2-2.3h0l-1.94-1.58a.43.43,0,0,0-.6.06.44.44,0,0,0,.07.6Z"/><path class="cls-2" d="M154,27.09a.59.59,0,0,1-.83.12h0l-2.21-1.7a.61.61,0,0,1-.11-.85h0a.43.43,0,0,0-.08-.58.4.4,0,0,0-.58.06h0a1.45,1.45,0,0,0,.25,2l2.21,1.7a1.43,1.43,0,0,0,2-.25h0a.4.4,0,0,0,0-.59.42.42,0,0,0-.6,0S154,27.07,154,27.09Z"/><path class="cls-2" d="M150.8,24.68a.6.6,0,0,1,.83-.12h0l2.21,1.7a.6.6,0,0,1,.11.85h0a.43.43,0,0,0,0,.58h0a.43.43,0,0,0,.58-.07,1.47,1.47,0,0,0-.25-2l-2.21-1.69a1.44,1.44,0,0,0-2,.25h0a.42.42,0,0,0,0,.59h0a.45.45,0,0,0,.61.11A.49.49,0,0,0,150.8,24.68Z"/><path class="cls-2" d="M153.75,29.84a.45.45,0,0,1-.62.11h0l-2.22-1.73a.44.44,0,0,1-.09-.64h0a.42.42,0,0,0,0-.59h0a.44.44,0,0,0-.6.08,1.31,1.31,0,0,0,.24,1.81l2.22,1.73a1.32,1.32,0,0,0,1.82-.24.41.41,0,0,0,0-.58h0a.43.43,0,0,0-.6-.12A.59.59,0,0,0,153.75,29.84Z"/><path class="cls-2" d="M150.79,27.57a.46.46,0,0,1,.64-.11h0l2.22,1.73a.45.45,0,0,1,.08.64.45.45,0,0,0,.08.6.43.43,0,0,0,.58-.07h0a1.32,1.32,0,0,0-.22-1.82L152,26.83a1.31,1.31,0,0,0-1.82.24.41.41,0,0,0,.15.57.42.42,0,0,0,.51-.06Z"/><path class="cls-2" d="M156.91,26.37a3.11,3.11,0,0,1-.2-.41,21.6,21.6,0,0,1-1.12-3.78,7.67,7.67,0,0,1,.48-5.27.44.44,0,0,1,.59,0,.43.43,0,0,1,.11.52,6.81,6.81,0,0,0-.36,4.68,19.9,19.9,0,0,0,1.07,3.63l.17.34a2.28,2.28,0,0,1,1.32,0,2.49,2.49,0,0,1,1.31,1.1,1,1,0,0,1,.12.68,1.08,1.08,0,0,1-.41.64,1.22,1.22,0,0,1-1.47,0,4.48,4.48,0,0,1-1.21-1.32,2.93,2.93,0,0,0-.75,1,.42.42,0,0,1-.83-.18.36.36,0,0,1,0-.09.14.14,0,0,1,0-.09A3.6,3.6,0,0,1,156.91,26.37Zm1.17.37a4.48,4.48,0,0,0,.65.79c.26.25.51.44.78.25s0-.41-.16-.58a1.53,1.53,0,0,0-.63-.41,1.41,1.41,0,0,0-.64-.09Z"/><path class="cls-2" d="M156.6,16.69a.36.36,0,0,1,.19.21.41.41,0,0,1-.21.55.44.44,0,0,1-.39,0,1.52,1.52,0,0,1-.44-.5,9.16,9.16,0,0,1-1-3.26,4.92,4.92,0,0,1,.4-2.73h0a.74.74,0,0,1,.59-.39.76.76,0,0,1,.66.26h0c1.47,1.84,3.8,6.1,13.69,14l.09.08-.51.64h-.08c-9.83-7.9-12.27-12.14-13.77-14a4.83,4.83,0,0,0-.09,3.14A6.84,6.84,0,0,0,156.6,16.69Z"/><path class="cls-2" d="M153.9,29.49l7.49,6.58.56-.71-7.5-6.5a.42.42,0,0,0-.59,0,.44.44,0,0,0,0,.62Z"/><path class="cls-2" d="M101,49.24l.83-.18,1.84-17.73a.08.08,0,0,1,.11,0h0c.72.54,1.83,2.15,2.55,6.72a.42.42,0,0,0,.47.34h0a.42.42,0,0,0,.31-.5h0c-.78-5-2.08-6.67-2.88-7.26a.86.86,0,0,0-.91-.09.9.9,0,0,0-.54.74Z"/><path class="cls-2" d="M111.45,46.8l.83-.18A106.75,106.75,0,0,0,110,30.21c-.86-3.24-2-6.05-3.61-7.56a1.48,1.48,0,0,0-1.61-.23,1.44,1.44,0,0,0-.84,1.31c.11,2.72.3,7.51.3,7.51a.41.41,0,0,0,.42.39h0a.41.41,0,0,0,.4-.43s-.2-4.79-.3-7.51a.63.63,0,0,1,.6-.63.77.77,0,0,1,.44.17c1.48,1.41,2.63,4.11,3.38,7.18A101.79,101.79,0,0,1,111.45,46.8Z"/><path class="cls-2" d="M107,24.58l3,4.58A6.57,6.57,0,0,1,111,33.11c-.1,2.42-.27,6-.27,6a.42.42,0,0,0,.84,0s.16-3.51.26-6a7.4,7.4,0,0,0-1.25-4.4l-3-4.59a.42.42,0,0,0-.59,0,.41.41,0,0,0-.1.51Z"/><path class="cls-2" d="M104.64,23.37h0a.39.39,0,0,1-.55,0h0a.41.41,0,0,1,0-.58h0a1.22,1.22,0,0,1,1-.23,1.91,1.91,0,0,1,1.13.79c.83,1.1,1.83,3.86,2.36,10.54a.42.42,0,0,1-.31.5.41.41,0,0,1-.51-.31.28.28,0,0,1,0-.13c-.52-6.42-1.4-9.08-2.19-10.14a1.07,1.07,0,0,0-.63-.47.34.34,0,0,0-.28,0h0Z"/><path class="cls-2" d="M129,100.93l-61,48.57a.41.41,0,0,0-.07.57h0a.41.41,0,0,0,.58.08l61.59-49.22Z"/><path class="cls-2" d="M111.34,100.82h-1.2a64.68,64.68,0,0,0-9.64,13.4c-3,6.15-1.62,10.4-1.62,10.4a.41.41,0,0,0,.5.28h0a.4.4,0,0,0,.29-.48h0s-1.19-4,1.58-9.79A59.62,59.62,0,0,1,111.34,100.82Z"/><path class="cls-2" d="M111.29,147.31l20.38,28.52a.42.42,0,0,0,.57.11.41.41,0,0,0,.11-.57h0l-20.42-28.54a.44.44,0,0,0-.59-.09A.41.41,0,0,0,111.29,147.31Z"/><path class="cls-2" d="M130.46,132.52l25.83,41.32a.42.42,0,1,0,.7-.45l-25.83-41.3a.42.42,0,0,0-.56-.14h0a.39.39,0,0,0-.14.54h0Z"/><path class="cls-2" d="M105.48,129.45l4-1.11a.4.4,0,0,0,.3-.48v0h0a.42.42,0,0,0-.51-.28l-3.95,1.1a.42.42,0,0,0-.3.5v0h0A.41.41,0,0,0,105.48,129.45Z"/><path class="cls-2" d="M157,108a93.58,93.58,0,0,1-10.54,10.53c-15.09,13-41.91,33.73-64.4,47.51a.44.44,0,0,0-.13.58.41.41,0,0,0,.56.13h0c22.53-13.8,49.39-34.59,64.52-47.59a93.34,93.34,0,0,0,10.42-10.34S157.12,107.85,157,108Z"/><path class="cls-2" d="M136,42.63v1.24a11.38,11.38,0,0,0,.11,1.31,8.31,8.31,0,0,0,.25,1.32,2.48,2.48,0,0,0,1.83,1.84,5.23,5.23,0,0,0,2.83-.13.32.32,0,0,1,.39.21.31.31,0,0,1-.21.4,5.38,5.38,0,0,1-3.81-.09,3.12,3.12,0,0,1-1.64-2.06,9.69,9.69,0,0,1-.29-1.32c0-.46-.09-.93-.1-1.39V42.64a.25.25,0,0,1,0-.17.29.29,0,0,1,.29-.12.28.28,0,0,1,.23.13A.29.29,0,0,1,136,42.63Zm-.09.17h0a.49.49,0,0,1-.17,0A.49.49,0,0,0,135.87,42.8Zm-.47,0a.33.33,0,0,0,.19.12.33.33,0,0,1-.19-.16Z"/><path class="cls-2" d="M137.83,49.07a.38.38,0,0,1,0-.33.32.32,0,0,1,.44-.07h0a.76.76,0,0,1,.15.28c0,.28.07.54.09.82.1,1.1.19,2.92.18,3.51a.32.32,0,1,1-.63,0h0c0-.66-.12-2.92-.22-3.87C137.85,49.3,137.84,49.18,137.83,49.07Z"/><path class="cls-2" d="M145.94,46.51a.69.69,0,0,0,.1.25l.26,1c.17.58.33,1.16.49,1.74a11.47,11.47,0,0,0,.35,1.13.33.33,0,0,1-.2.41.32.32,0,0,1-.4-.21c-.14-.39-.25-.77-.36-1.16s-.33-1.16-.5-1.73l-.26-1c0-.12-.08-.25-.13-.37a.28.28,0,0,1,0-.18.36.36,0,0,1,.15-.21.32.32,0,0,1,.45,0A.29.29,0,0,1,145.94,46.51Z"/><path class="cls-2" d="M145.67,41.58v.1a2.81,2.81,0,0,0,0,.58,6.94,6.94,0,0,0,.12.9.32.32,0,0,1-.64.1h0a10.87,10.87,0,0,1-.14-1.5.93.93,0,0,1,.14-.54.33.33,0,0,1,.45,0h0A.32.32,0,0,1,145.67,41.58Z"/><path class="cls-2" d="M145.35,43.12c0-.11.11-.21.17-.32a2,2,0,0,1,.41-.42,1.16,1.16,0,0,1,.4-.2,1,1,0,0,1,.9.19,2.65,2.65,0,0,1,.74.89,2.09,2.09,0,0,1-.3,2.23,2.76,2.76,0,0,1-1.92,1.1.32.32,0,1,1,0-.63h0a2.06,2.06,0,0,0,1.44-.86,1.45,1.45,0,0,0,.25-1.55A2.43,2.43,0,0,0,147,43a.48.48,0,0,0-.46-.18.52.52,0,0,0-.25.14,1.55,1.55,0,0,0-.24.27,2.92,2.92,0,0,0-.14.31.3.3,0,0,1-.28.17.37.37,0,0,1-.28-.13,1.31,1.31,0,0,1,0-.43Z"/><path class="cls-2" d="M136,52.91a9.18,9.18,0,0,0-1.17.32l.81.41.73-.15c.87-.16,1-.21,2.11-.38a.32.32,0,0,0,.26-.35.31.31,0,0,0-.33-.29h0C137.12,52.7,136.94,52.7,136,52.91Z"/><path class="cls-2" d="M146.85,50.35h0l.67-.12c1.41-.24,4.48-.79,6.59-1a2.18,2.18,0,0,0-.29.32,4.15,4.15,0,0,1-.42.42c-.15.13-4.53.65-5.77.87l-.69.12a.46.46,0,0,1-.44-.36.29.29,0,0,1,.32-.27h0Z"/><path class="cls-2" d="M142.38,44.66a.67.67,0,0,0-.61-.1,4.43,4.43,0,0,0-.7.41,2.24,2.24,0,0,0-.68.62.68.68,0,0,0-.08.66.33.33,0,0,0,.42.18.32.32,0,0,0,.17-.42h0v-.14a2,2,0,0,1,.45-.36l.42-.27h.12a.31.31,0,0,0,.44-.08.32.32,0,0,0-.07-.44Z"/><path class="cls-2" d="M140.31,46.25a.75.75,0,0,0,.85.5,1.83,1.83,0,0,0,.89-.39,1.78,1.78,0,0,0,.64-1,.73.73,0,0,0-.31-.75.33.33,0,0,0-.45,0h0a.31.31,0,0,0,.08.43.15.15,0,0,1,0,.2,1.69,1.69,0,0,1-.39.49,1.17,1.17,0,0,1-.55.26.18.18,0,0,1-.2-.11.31.31,0,0,0-.4-.17.3.3,0,0,0-.17.38v.11Z"/><g id="FEET"><path class="cls-4" d="M63,153.46l5-4a.41.41,0,0,1,.58,0h0a.41.41,0,0,1,0,.58h0l-5.27,4.12a.41.41,0,0,1-.51,0,10.85,10.85,0,0,0-3.57-1.69,4.37,4.37,0,0,0-3.41.36L73.1,172.37,82,166.19a.42.42,0,0,1,.58.11.4.4,0,0,1-.09.56h0l-9.21,6.39a.4.4,0,0,1-.54-.07L54.84,153.09a.37.37,0,0,1-.1-.32.43.43,0,0,1,.15-.29,5,5,0,0,1,4.49-.76A11.87,11.87,0,0,1,63,153.46Z"/><path class="cls-4" d="M162.92,185.06l-7-11.85a.41.41,0,1,1,.71-.42L164,185.26a.43.43,0,0,1,0,.41.44.44,0,0,1-.37.21h-35.2a.4.4,0,0,1-.31-.15.39.39,0,0,1-.1-.34,5.17,5.17,0,0,1,3.23-3.75,13.16,13.16,0,0,1,3.95-1l-3.46-4.74a.39.39,0,0,1,0-.55h0a.39.39,0,0,1,.55.06v0h0l3.95,5.36a.42.42,0,0,1,0,.43.47.47,0,0,1-.37.23,12.52,12.52,0,0,0-4.35.94,4.55,4.55,0,0,0-2.64,2.64Z"/></g><path class="cls-4" d="M137.15,37.39l-.9-.45-3.1-1.57q-1.58-.78-3.09-1.62l-3.66-2-5.54-3.1c-.25-.14-1.66-.83-2.45-1.31a4.74,4.74,0,0,1-.51-.37.87.87,0,0,1-.19-.28.76.76,0,0,1,0-.47,2.46,2.46,0,0,1,.31-.68A16.15,16.15,0,0,1,119.33,24c.77-1,1.57-2,2.41-2.93a37.46,37.46,0,0,1,2.64-2.71,7.39,7.39,0,0,1,1.31-1.12,1.13,1.13,0,0,1,1.07,0,6.85,6.85,0,0,1,1.66,1.52c1.1,1.31,2.18,3,2.91,4s1.68,2.37,2.49,3.57c1.21,1.8,2.38,3.62,3.56,5.43.77,1.18,1.66,2.32,2.43,3.53.27.45.55.91.79,1.38a6.09,6.09,0,0,1,3.66,1,4.41,4.41,0,0,1,1.63,3.74.38.38,0,0,1-.25.38,7.51,7.51,0,0,1-4.75.29A3.56,3.56,0,0,1,139,40.4,6.26,6.26,0,0,1,137.53,42a3.88,3.88,0,0,1-1.94.83.41.41,0,0,1-.3-.09.43.43,0,0,1-.16-.29,6.75,6.75,0,0,1,.83-3.79A3.57,3.57,0,0,1,137.15,37.39ZM145,41a3.49,3.49,0,0,0-1.32-2.78,5.17,5.17,0,0,0-3.36-.81.4.4,0,0,1-.43-.23,15.58,15.58,0,0,0-.87-1.54c-.75-1.2-1.64-2.36-2.4-3.52-1.18-1.82-2.35-3.63-3.56-5.44-.81-1.18-1.62-2.37-2.48-3.53s-1.78-2.69-2.87-4a6,6,0,0,0-1.45-1.31.19.19,0,0,0-.18,0,1.28,1.28,0,0,0-.4.25c-.33.27-.63.63-.81.79a34.48,34.48,0,0,0-2.64,2.63Q121,23,119.83,24.48c-.15.22-.69.76-1.08,1.32a2.9,2.9,0,0,0-.25.57h.08a10,10,0,0,0,1.13.68l1.53.79,5.55,3.08,3.71,2c1,.55,2,1.09,3.07,1.62s2.05,1,3.09,1.57l1.54.76.17.08c.46.25,0,.78,0,.78a2.93,2.93,0,0,0-2,1.78,5.91,5.91,0,0,0-.45,2.31,3.68,3.68,0,0,0,1.41-.84,6.66,6.66,0,0,0,1.32-1.76.42.42,0,0,1,.41-.24.43.43,0,0,1,.37.29,2.84,2.84,0,0,0,1.71,1.91A6.05,6.05,0,0,0,145,41Z"/></g><g id="GREEN-LINES-"><path class="cls-10" d="M7,24.89A14.75,14.75,0,0,0,5.33,38.36a.49.49,0,0,0,.63.3H6a.47.47,0,0,0,.3-.6v0h0A13.83,13.83,0,0,1,7.78,25.49a.49.49,0,0,0-.08-.69h0A.49.49,0,0,0,7,24.89Z"/><path class="cls-10" d="M4,39.75S.9,29.82,6.48,23.18a.48.48,0,0,0-.08-.68.47.47,0,0,0-.61,0C-.11,29.49,3.16,40,3.16,40a.49.49,0,0,0,.58.34h0A.49.49,0,0,0,4,39.75Z"/><path class="cls-10" d="M166.55,82.14a17.91,17.91,0,0,1,1,15.13.5.5,0,0,0,.24.64h0a.5.5,0,0,0,.64-.25c3.54-8.37-1.06-16-1.06-16a.5.5,0,0,0-.63-.28.49.49,0,0,0-.28.63.14.14,0,0,0,0,.06A.22.22,0,0,0,166.55,82.14Z"/><path class="cls-10" d="M167.79,79.83s7.19,7.36,1.08,20a.49.49,0,1,0,.87.43c6.46-13.35-1.32-21.07-1.32-21.07a.49.49,0,0,0-.69,0A.53.53,0,0,0,167.79,79.83Z"/><path class="cls-10" d="M100.41,107s-4,6.29-4.44,9.69a.51.51,0,0,0,.36.59.5.5,0,0,0,.59-.37.2.2,0,0,0,0-.11c.42-3.26,4.29-9.29,4.29-9.29a.48.48,0,0,0-.14-.67.49.49,0,0,0-.66.13Z"/><path class="cls-10" d="M100.42,103.27c-1.43,1.9-4.88,5.14-7.11,15.55a.5.5,0,0,0,.32.61.49.49,0,0,0,.61-.31V119c2.17-10.14,5.54-13.3,6.94-15.17a.5.5,0,0,0-.08-.67h0a.52.52,0,0,0-.69.09Z"/></g></svg>