<svg id="Capa_1" data-name="Capa 1" xmlns="http://www.w3.org/2000/svg" viewBox="0 0 178.34 228.81"><defs><style>.cls-1{fill:#23bebe;opacity:0.4;}</style></defs><path class="cls-1" d="M165.91,162c-2.67-18.17-19.88-36.28-10.7-52.19,5.86-10.16,20.93-14.25,22.92-25.82.67-3.85-.37-7.77-1.58-11.49C172.22,59.3,165,46.43,153.37,38.85c-8.76-5.71-20.4-7.61-30.08-4.3-14.78-7.92-26.9-20.71-42.08-28.1C62.55-2.64,39.07-2.45,21.84,9.1S-4.59,43.91,2.3,63.47C9.12,82.83,29.49,96.55,31.49,117c1.2,12.11-4.51,23.72-6.61,35.7-5.47,31.1,16.31,63.78,46.44,73.13s65.07-3.78,83.83-29.17C162.49,186.65,167.7,174.26,165.91,162Z" transform="translate(0 0)"/></svg>