<svg id="Capa_1" data-name="Capa 1" xmlns="http://www.w3.org/2000/svg" viewBox="0 0 290 260"><defs><style>.cls-1{fill:#a8c1f2;}.cls-1,.cls-10,.cls-11,.cls-12,.cls-13,.cls-15,.cls-16,.cls-17,.cls-18,.cls-2,.cls-20,.cls-22,.cls-23,.cls-24,.cls-25,.cls-26,.cls-27{fill-rule:evenodd;}.cls-2{fill:#69bac9;}.cls-3{opacity:0.21;}.cls-4{opacity:0.95;}.cls-23,.cls-26,.cls-5,.cls-6{fill:#fe965c;}.cls-23,.cls-5{stroke:#fe965c;}.cls-23,.cls-5,.cls-8{stroke-miterlimit:10;}.cls-12,.cls-7,.cls-8{fill:#fff;}.cls-8{stroke:#fff;}.cls-10,.cls-9{fill:#ffd274;}.cls-11{fill:#b74d2f;}.cls-13,.cls-14{fill:#553e86;}.cls-15{fill:#ef7b58;}.cls-16{fill:#6a86d9;}.cls-17{fill:#426fc0;}.cls-18{fill:#23bebe;}.cls-19{fill:none;}.cls-20,.cls-21{fill:#fc5344;}.cls-24{fill:#ffd47b;}.cls-25{fill:#c577db;}.cls-27{fill:#8d1b1c;}</style></defs><g id="BACKGROUND"><path class="cls-1" d="M.1,243.07l106.76-.52s-1.21-6.67-12.32-5.47c-3.65.34-5.56-2.57-9.2-6.84-3.3-3.94-12.5-14.54-27.95-5-2.6,1.71-9,3.42-13.71.34-3.48-2.23-14.93-13-23.61.17-1.74,2.57-4.52,7.35-9.55,8.72C6,235.71-.94,236.91.1,243.07Z" transform="translate(0)"/><path class="cls-1" d="M203.55,239.64l86.45-.17s-4.51-11.63-15.62-9.06c-3.65.85-6.95,3.25-12.15-5.13-1.74-2.74-12.5-10.95-22.57-4.62-5,3.25-10.59,12.48-18.75,10.43C213.45,229.21,204.59,233.32,203.55,239.64Z" transform="translate(0)"/><path class="cls-2" d="M106.34,9.75l1.39-1.88,3.82,3.25-1,1.71Z" transform="translate(0)"/><path class="cls-2" d="M110.68,5l3.13,3.59,1.56-1-3-4.79Z" transform="translate(0)"/><path class="cls-2" d="M115.37,1.54l2.26,4.62h1.9L118.15.34Z" transform="translate(0)"/><path class="cls-2" d="M159.81,5.13l1.56,1,3.47-4.62L162.93,0Z" transform="translate(0)"/><path class="cls-2" d="M163.63,7.7l1.21,1.71,5.38-2.91-1.73-2.91Z" transform="translate(0)"/><path class="cls-2" d="M166.06,13l-.35-1.71,5.55-1V13Z" transform="translate(0)"/><path class="cls-1" d="M70.58,27.71l1.91-3.08c.18-.17.52-.34.7-.17h0a.42.42,0,0,1,.25.55.29.29,0,0,1-.08.13h0L71.1,29.08c-.17.17-.34.34-.52.34s-.34-.17-.52-.17l-2.43-4.11c-.17-.17,0-.51.18-.68h0c.17-.17.52,0,.69.17Z" transform="translate(0)"/><path class="cls-1" d="M84,34.55l1.91-2.91c.17-.17.52-.34.69-.17s.35.52.18.69l-2.26,3.59c-.17.17-.35.34-.52.17a.64.64,0,0,0-.52-.17L81,32.16a.43.43,0,0,1,0-.61.57.57,0,0,1,.13-.08h0a.44.44,0,0,1,.61,0,.51.51,0,0,1,.09.13h0Z" transform="translate(0)"/><path class="cls-1" d="M210,39.68l1.9-3.07c.18-.18.53-.35.7-.18s.35.52.17.69h0l-2.25,3.76a.63.63,0,0,1-.52.17c-.18,0-.35-.17-.53-.17L207,37.12c-.17-.17,0-.51.18-.69s.52,0,.69.18h0Z" transform="translate(0)"/><path class="cls-1" d="M248.86,86.89l1.56-2.22c.18-.17.52-.34.7-.17h0c.17.17.34.51.17.68l-1.91,2.91a.63.63,0,0,1-.52.17c-.17,0-.35-.17-.52-.17l-1.91-2.91a.49.49,0,0,1,.17-.68.52.52,0,0,1,.7.17Z" transform="translate(0)"/></g><g id="CLOUDS" class="cls-3"><path class="cls-1" d="M19.2,54.74l41.66.17a.52.52,0,1,0,0-1h0L19.2,53.54a.46.46,0,0,0-.52.4.2.2,0,0,0,0,.11h0C18.68,54.39,18.85,54.74,19.2,54.74Z" transform="translate(0)"/><path class="cls-1" d="M32.22,47.72a14,14,0,0,1,1-2.22A12,12,0,0,1,38,40.88a11.77,11.77,0,0,1,8-1.2,7.65,7.65,0,0,1,4.86,3.77c4-1,7.81,2.22,9.72,6a23.2,23.2,0,0,1,1.22,3.08,3.87,3.87,0,0,1-.17,2.4.44.44,0,0,1-.56.25l-.14-.08a.71.71,0,0,1-.35-.69,2.23,2.23,0,0,0,0-1.53,12.78,12.78,0,0,0-1-2.74c-1.56-3.25-4.86-6.16-8.33-5.3a3.62,3.62,0,0,1-1.74,4.61,2.15,2.15,0,0,1-2.25.18,1.71,1.71,0,0,1-.7-1.54,4.21,4.21,0,0,1,1.39-2.74,6.36,6.36,0,0,1,1.74-1.2,6.58,6.58,0,0,0-4-3.08,11,11,0,0,0-7.3,1.2,10,10,0,0,0-4.16,4.28c-.35.51-.7,1.88-1,2.39l-.52.51h-.52c-.35-.17-.7-.51-1-.68a5.75,5.75,0,0,0-2.6-.68,10.85,10.85,0,0,0-6.77,2.39,5.78,5.78,0,0,0-2.26,3.93.52.52,0,0,1-.52.52.52.52,0,0,1-.52-.52h0a6.68,6.68,0,0,1,2.61-4.78,13.42,13.42,0,0,1,7.63-2.91,7.11,7.11,0,0,1,3.13.85C32.05,47.55,32.05,47.55,32.22,47.72ZM50.1,45l-1.56,1a2.34,2.34,0,0,0-1,1.88.63.63,0,0,0,.17.52.83.83,0,0,0,1-.17A4.11,4.11,0,0,0,50.1,46.7,2.93,2.93,0,0,0,50.1,45Z" transform="translate(0)"/><g class="cls-4"><path class="cls-1" d="M216.57,62.26l.52-1a16.81,16.81,0,0,1,10.07-7.36A12.93,12.93,0,0,1,240.35,60a14.4,14.4,0,0,1,1.57,3.76c0,.17.17.52.17.69a13.73,13.73,0,0,1,1.74-1,8.49,8.49,0,0,1,6.77.34,8.87,8.87,0,0,1,4.68,7.53c0,.34-.17.51-.52.68s-.52-.17-.69-.51v-.17a7.53,7.53,0,0,0-10.07-7,4,4,0,0,0-1.56,1l-.7.69a.81.81,0,0,1-.87,0c-.17-.17-.17-.17-.17-.35V65a2.89,2.89,0,0,0-.17-1.2,8.6,8.6,0,0,0-1.39-3.42,12,12,0,0,0-12-5.64,15.18,15.18,0,0,0-9.37,6.84l-.35.51A3.32,3.32,0,0,1,219.87,65a1.9,1.9,0,0,1-2.06,1.76,1.93,1.93,0,0,1-1.24-.56A2.23,2.23,0,0,1,215.7,64c0-.34.18-.68.18-1a5,5,0,0,0-2.26.68,11.11,11.11,0,0,0-4.17,3.76,8.89,8.89,0,0,0-1.56,2.74,1.91,1.91,0,0,0-.17.51V71a.56.56,0,0,1-.52.51.46.46,0,0,1-.52-.4.2.2,0,0,1,0-.11v-.52c0-.17.17-.51.17-.68a13.56,13.56,0,0,1,1.74-3.08,14.51,14.51,0,0,1,4.51-4.1A11.26,11.26,0,0,1,216.57,62.26Zm.52,1.2a2.14,2.14,0,0,0-.17,1,2,2,0,0,0,.52,1.37,1.17,1.17,0,0,0,1,.17c.35,0,.52-.35.52-.69A2.19,2.19,0,0,0,217.09,63.46Z" transform="translate(0)"/><path class="cls-1" d="M254.41,71l-47-.35a.47.47,0,0,0-.52.41v.11h0a.46.46,0,0,0,.41.51.21.21,0,0,0,.11,0l47,.34a.46.46,0,0,0,.52-.4.21.21,0,0,0,0-.11h0A.53.53,0,0,0,254.41,71Z" transform="translate(0)"/></g></g><ellipse class="cls-5" cx="65.91" cy="67.94" rx="20.81" ry="19.98"/><ellipse class="cls-6" cx="83.76" cy="51.83" rx="5.75" ry="4.31"/><ellipse class="cls-7" cx="49.26" cy="166.66" rx="2.85" ry="1.36" transform="translate(-90.87 63.87) rotate(-37.27)"/><ellipse class="cls-7" cx="54.57" cy="168.95" rx="2.85" ry="1.36" transform="translate(-91.17 67.55) rotate(-37.27)"/><ellipse class="cls-7" cx="57.06" cy="170.08" rx="2.43" ry="1.36" transform="translate(-91.12 68.95) rotate(-37.14)"/><path class="cls-8" d="M94.36,64.49c3.48,10-2.43,22.75-9.58,22.75a3.12,3.12,0,0,1-2.46-.77c-1.74-2.06-8.56-3-8.8-10,0-2.07,9.7-6.84,9.42-8.11a46,46,0,0,0-2.29-7.53c-.28-.8-.59-1.71-1-2.73s-1.23-1-1.21-1.37,1.42,0,3.85-1.06a10.08,10.08,0,0,0,5.66-4.79c.49-1.18,2,5,3,7.11.49,1.08-1.89,2.28-1.73,3.54s2,2.52,2,3.87C91.19,67.07,94.21,64.06,94.36,64.49Z" transform="translate(0)"/><ellipse class="cls-7" cx="51.75" cy="168" rx="2.85" ry="1.36" transform="translate(-91.17 65.65) rotate(-37.27)"/><ellipse class="cls-7" cx="126.98" cy="13.07" rx="1.37" ry="3.87" transform="translate(-0.48 6.13) rotate(-2.76)"/><ellipse class="cls-7" cx="124.23" cy="12.82" rx="1.37" ry="3.87" transform="translate(-0.47 6) rotate(-2.76)"/><ellipse class="cls-7" cx="121.26" cy="12.69" rx="1.37" ry="3.87" transform="translate(-0.47 5.86) rotate(-2.76)"/><ellipse class="cls-7" cx="118.28" cy="12.83" rx="1.37" ry="3.87" transform="translate(-0.48 5.71) rotate(-2.76)"/><path class="cls-7" d="M122.28,28.6c1.26,0,3.82.43,5.21-1.15,2-2.25.69-10.62.62-11.37-.35-3.42-2.73-3.42-6.6-3.3-2,0-4.74-.26-5.85,1.45-.92,1.44,0,9.27,0,11.26C115.92,29.85,118.7,28.77,122.28,28.6Z" transform="translate(0)"/><ellipse class="cls-9" cx="171.21" cy="87.23" rx="11.77" ry="15.85" transform="matrix(0.61, -0.79, 0.79, 0.61, -2.48, 169.4)"/><path class="cls-10" d="M200.12,111.73c-2.4,11.62-18.77,24.7-35.5,21.35s-27.55-21.9-25.11-33.49A20.27,20.27,0,0,1,150,85.08c8.11-2.55,21.67-1.09,24.12-.44C186.78,88,202.51,100.1,200.12,111.73Z" transform="translate(0)"/><ellipse class="cls-9" cx="198.28" cy="69.05" rx="14.83" ry="12.33" transform="translate(19.67 179.41) rotate(-50.91)"/><ellipse class="cls-9" cx="214.31" cy="82.55" rx="14.82" ry="16.91" transform="matrix(0.55, -0.83, 0.83, 0.55, 26.81, 215.18)"/><ellipse class="cls-9" cx="216.09" cy="109.73" rx="19.04" ry="20.65" transform="translate(9.15 235.88) rotate(-58.29)"/><path class="cls-11" d="M171.44,54.39l-11.11,12c-18-15.53-12.15-19.9-12.15-25.66.07-9.34,2-21.21,2.77-30.45,3,0,6.48-.37,9.45-.42-1.2,2,2.06,4.39,2,6.41-.2,5.64.16,24.1-.43,29.64,0,.31,1.91.88,2.14,1.71A6.85,6.85,0,0,0,167.57,51h0A16.61,16.61,0,0,0,171.44,54.39Z" transform="translate(0)"/><path class="cls-11" d="M232.63,164.31s-2,7.43-3.61,5.94L225.7,172c0,2-5,.39-5,.41-.16-.55-1.22-.65-1.39-1.2-6-20.64-11.11-41.91-17.1-62.64l14.37-3.42Z" transform="translate(0)"/><path class="cls-11" d="M200.18,58.45C197,61,196,66.88,196,66.88c-.68,1.63,1.18,4.48,2.9,5.13s-2.09,2.14-2.42,2.23a22.93,22.93,0,0,0-4.56,1.88c-3.11,1-7.35.32-8.87-2-.7-1-.72-2.62.22-5a51,51,0,0,1,4-6.62c-1.38-.91-3-4.71-.72-7.07.46-.48.71-6.84,4.77-6.84s6.51,1.59,8.28,6.84C199.89,56.45,201.69,57.27,200.18,58.45Z" transform="translate(0)"/><path class="cls-12" d="M148.87,260c-4.36-2.89-20-9.15-21.87-10.35a30.92,30.92,0,0,0-3-1.4c-.73.51-2.46-.5-2.52,0-.6,5.95-.1,10.35-4.68,8.89-.4-4.67-.82-9.35-1.22-14l27.78.3c.93,2.79.71,6.16,1.73,9A24.2,24.2,0,0,1,148.87,260Z" transform="translate(0)"/><path class="cls-12" d="M75.27,256.58c-3.21,1.49-1-6.16-2.5-6.16-5.21,0-16.93,6.3-22.13,6.35,0-.28-.78,2.72.33-1.49.14-.48,5-5.63,4.34-7.1-1-2,0-6.16.69-12H79.78Z" transform="translate(0)"/><path class="cls-12" d="M159.91,258.29l-30.69-.12c.44-1.49.82-2,1.25-3.54a5.79,5.79,0,0,0,3.47-1.4c1.55-1.63.32-12.46.32-12.49h27.6Z" transform="translate(0)"/><path class="cls-12" d="M225.79,256.8l-31.14-.22L192,240.86l27.66-.7,1.21,11.63c.82.92,3.23,1.47,4.05,2.39S225.11,256.05,225.79,256.8Z" transform="translate(0)"/><g id="CHARACTER-2"><path class="cls-2" d="M159.63,257.43,161,241.36l1.57.17-1.91,16.59a.56.56,0,0,1-.53.51H129.08c-.17,0-.34,0-.34-.17s-.18-.17-.18-.34A5.12,5.12,0,0,1,130,255a5.84,5.84,0,0,1,4-1.88l-.34-12,1-.51a.47.47,0,0,1,.52.41v.1l-.35,12a.46.46,0,0,1-.41.51.21.21,0,0,1-.11,0,5,5,0,0,0-3.65,1.71,4.12,4.12,0,0,0-1,1.88Z" transform="translate(0)"/><path class="cls-2" d="M220.91,251.79a6.66,6.66,0,0,1,4,1.88,6.23,6.23,0,0,1,1.39,3.08c0,.17,0,.34-.17.34s-.17.17-.35.17h-30.9a.47.47,0,0,1-.52-.4v-.11l-2.6-15.39h1l2.6,14.88h29.86a4,4,0,0,0-1-1.88,4.92,4.92,0,0,0-3.65-1.72.47.47,0,0,1-.52-.4v-.11l-.34-12a.46.46,0,0,1,.41-.52h.11a.48.48,0,0,1,.52.41v.11Z" transform="translate(0)"/><path class="cls-10" d="M156.34,83.82c.17-5.31,2.08-8,4.16-9.24a10.8,10.8,0,0,1,7.64-.69c.35.18.52.35.35.69s-.35.34-.7.34a9.28,9.28,0,0,0-6.77.51c-2.08,1.2-3.64,3.94-3.64,9.07a.6.6,0,0,1-.18.51h-.52A10.41,10.41,0,0,0,148,86.89c-7.29,4.79-13,16.25-4.34,30.11a.42.42,0,0,1,0,.6.29.29,0,0,1-.14.08h0c-.17.18-.52,0-.69-.17h0C133.77,103.14,140,91,147.48,86A12.56,12.56,0,0,1,156.34,83.82Z" transform="translate(0)"/><path class="cls-13" d="M238.79,145.57l26.91-6.16,7.11,32.33-26.73,7.35Z" transform="translate(0)"/><polygon class="cls-14" points="215.04 165.07 251.44 156.98 252.63 162.15 216.22 170.25 215.04 165.07"/><path class="cls-12" d="M264,156.51a3.46,3.46,0,0,1-1.21,4.79,3.57,3.57,0,0,1-4.86-1.19h0c0-.18-.18-.18-.18-.35a1.29,1.29,0,0,0-1.7-.63,1.27,1.27,0,0,0-.64,1.68,1.19,1.19,0,0,0,.09.15h0a6.34,6.34,0,0,0,8.5,2.57,6.16,6.16,0,0,0,2.61-8.39h0a1.25,1.25,0,0,0-1.65-.56l-.09,0a1.3,1.3,0,0,0-1,1.52,1.42,1.42,0,0,0,.14.36Z" transform="translate(0)"/><path class="cls-12" d="M257.54,159.76a3.39,3.39,0,0,1,1.62-4.56l.11-.06a3.51,3.51,0,0,1,4.52,1.37,1.3,1.3,0,0,0,1.77.4,1.25,1.25,0,0,0,.48-1.59h0a6.32,6.32,0,0,0-8.5-2.57,6.16,6.16,0,0,0-2.61,8.38h0a1.24,1.24,0,0,0,1.65.56l.09-.05c1-.51,1.22-1.36.87-1.88Z" transform="translate(0)"/><path class="cls-12" d="M255.11,158.05,248,159.93a1.34,1.34,0,0,0-1,1.54h0a1.36,1.36,0,0,0,1.56,1h.18l7.11-1.88a1.23,1.23,0,0,0,.88-1.51v0a1.19,1.19,0,0,0-1.29-1.08A1.28,1.28,0,0,0,255.11,158.05Z" transform="translate(0)"/><path class="cls-12" d="M250.07,158.05l1.22,4.79a1.36,1.36,0,0,0,1.56,1h0a1.34,1.34,0,0,0,1-1.54h0l-1.21-4.79a1.36,1.36,0,0,0-1.56-1,1.26,1.26,0,0,0-1.07,1.42S250.06,158,250.07,158.05Z" transform="translate(0)"/><path class="cls-11" d="M223.86,162.84a14.31,14.31,0,0,0,4.52,1.71s-2.26,4.11-.53,5a6.6,6.6,0,0,0,4.17-3.59,15.86,15.86,0,0,0-.87-6.33Z" transform="translate(0)"/><path class="cls-15" d="M230.46,168.66a.77.77,0,0,1,0,.85.76.76,0,0,1-.87.17c-.35-.17-.69,0-.69.18a1,1,0,0,0,.17.68,1.75,1.75,0,0,0,2.37-.63,1.66,1.66,0,0,0,.06-1.59.43.43,0,0,0-.56-.26.57.57,0,0,0-.13.08h0c-.52-.17-.52.18-.35.52Z" transform="translate(0)"/><path class="cls-15" d="M227.33,167.63c-.34-.17-.34-.51-.34-.85s.17-.35.34-.17.52,0,.7-.35h0c.17-.34,0-.51-.35-.68h0a1.27,1.27,0,0,0-1.69.58.42.42,0,0,0,0,.1h0a1.69,1.69,0,0,0,.52,2.23.44.44,0,0,0,.61,0,.57.57,0,0,0,.08-.13h0C227.51,168.14,227.51,168,227.33,167.63Z" transform="translate(0)"/><path class="cls-15" d="M227.85,169.86a.31.31,0,0,1,.06.45.17.17,0,0,1-.06.06c-.17.34-.52.34-.86.17h0l-2.43-1.88c-.35-.17-.35-.52-.18-.86s.52-.34.87-.17l1.22.86a.44.44,0,0,0,.61,0,.57.57,0,0,0,.08-.13h0c.17-.18.17-.52-.17-.86l-1-.85a1.75,1.75,0,0,0-2.43.35,1.69,1.69,0,0,0,.34,2.38l2.43,1.88a1.91,1.91,0,0,0,2.43-.34,2,2,0,0,0,.18-1.71.7.7,0,0,0-.7-.34h0C227.85,169.17,227.68,169.51,227.85,169.86Z" transform="translate(0)"/><path class="cls-15" d="M221.78,169.17a.78.78,0,0,1,.87-.17l2.43,1.71c.34.17.34.51.17.86h0a.42.42,0,0,0,0,.6.57.57,0,0,0,.13.08h0a.44.44,0,0,0,.62,0,.57.57,0,0,0,.08-.13,1.85,1.85,0,0,0-.35-2.4l-2.43-1.88a1.92,1.92,0,0,0-2.43.34.43.43,0,0,0,0,.61.57.57,0,0,0,.13.08h0C221.26,169.51,221.61,169.34,221.78,169.17Z" transform="translate(0)"/><path class="cls-15" d="M225.25,171.57a.78.78,0,0,1-.87.17L222,170c-.34-.17-.34-.52-.17-.86h0c.17-.34,0-.68-.17-.68a1.06,1.06,0,0,0-.7.17,1.83,1.83,0,0,0,.35,2.39l2.43,1.71a1.91,1.91,0,0,0,2.43-.34c.17-.34,0-.68-.17-.68A.62.62,0,0,0,225.25,171.57Z" transform="translate(0)"/><path class="cls-15" d="M219.18,170.54h0l2.6,1.88a.51.51,0,0,0,.69,0,.81.81,0,0,1,.87,0c.18.17.18.34.18.69a1.46,1.46,0,0,1-2,.4l-.09-.06-2.6-1.88a.88.88,0,0,1-.47-1.17.67.67,0,0,1,.12-.2.38.38,0,0,1,.35-.34.5.5,0,0,1,.87.51C219.35,170.37,219.35,170.54,219.18,170.54Z" transform="translate(0)"/><path class="cls-15" d="M220.74,170.54a1.49,1.49,0,0,0-1.39,0,.43.43,0,0,1-.61,0,.38.38,0,0,1-.09-.13.53.53,0,0,1,0-.69,2,2,0,0,1,1.39-.51,3.06,3.06,0,0,1,1.74.51h0l1.56,1.2a1.4,1.4,0,0,1,.41,2l-.06.08c-.17.18-.52.35-.7.18s-.34-.52-.17-.69h0a.42.42,0,0,0,0-.6.35.35,0,0,0-.13-.08h0Z" transform="translate(0)"/><path class="cls-15" d="M222.82,162.67a3,3,0,0,1-.69-1.71,1.55,1.55,0,0,1,.69-1.37,1.37,1.37,0,0,1,1.39-.34,1.54,1.54,0,0,1,1,1,1.57,1.57,0,0,1-.17,1.71,2.46,2.46,0,0,1-.52.68l.34.17a12.4,12.4,0,0,0,3.3,1c.35,0,.52.34.52.68a.55.55,0,0,1-.52.52h0a16.36,16.36,0,0,1-3.82-1,2.47,2.47,0,0,1-.69-.51l-1,.51c-.35.17-.52,0-.7-.34s0-.52.35-.69h0Zm1-.51.35-.34a.74.74,0,0,0,.17-.86c0-.17-.17-.34-.34-.51a.61.61,0,0,0-.7.5.54.54,0,0,0,0,.18A1.48,1.48,0,0,0,223.86,162.16Z" transform="translate(0)"/><path class="cls-15" d="M201.82,110l17,59.52a.7.7,0,0,0,.69.35c.18-.18.35-.35.35-.52l-17-59.52Z" transform="translate(0)"/><path class="cls-15" d="M227.51,168.14c0,.69.17.86.34,1h.35a7.7,7.7,0,0,0,2.43-1.71,3.84,3.84,0,0,0,.87-3.59c-2.78-11.12-15.1-57.82-15.1-57.82l1-.17s12.32,46.7,15.1,57.82a4.94,4.94,0,0,1-1.21,4.62,8.55,8.55,0,0,1-2.78,2.05,2,2,0,0,1-1.39,0,2.24,2.24,0,0,1-1-2.05h0a10.9,10.9,0,0,1,1.73-4.45.44.44,0,0,1,.56-.25.39.39,0,0,1,.14.08h0c.17.17.35.51.17.68A19.17,19.17,0,0,0,227.51,168.14Z" transform="translate(0)"/><path class="cls-16" d="M185.33,65.17,171.26,53.54,157.72,69.11,170.57,78s-3.12,8.55,4.86,17.45l16.67,9.92s6.77-2.23,7.29-4.28l1.21,8.73,17.19-4.45-5.21-19a19.19,19.19,0,0,0-6.77-10.09L198.87,71s-6.25,6.33-11.64,2.9a5.38,5.38,0,0,1-1.9-8.72Z" transform="translate(0)"/><path class="cls-17" d="M178,76.63a5,5,0,1,1,0,9.92h0a1.2,1.2,0,1,0,0,2.4,7.53,7.53,0,1,0,0-15.06h0A1.18,1.18,0,0,0,176.82,75v.07C176.82,76.12,177.34,76.63,178,76.63Z" transform="translate(0)"/><path class="cls-17" d="M178,86.55a5,5,0,1,1,0-9.92,1.2,1.2,0,1,0,0-2.39,7.53,7.53,0,1,0,0,15.05h0a1.18,1.18,0,0,0,1.22-1.13v-.07a1.28,1.28,0,0,0-1-1.51Z" transform="translate(0)"/><path class="cls-17" d="M182.37,98.53a7.58,7.58,0,0,1,15.11,1.19,8,8,0,0,1-1.91,4.45,12.1,12.1,0,0,1-2.26.86l-2.08-1.2a5,5,0,0,0,3.36-6.32,5.14,5.14,0,0,0-6-3.43,4.94,4.94,0,0,0-3.82,4.79,3.07,3.07,0,0,0,.18,1.2A10.87,10.87,0,0,1,182.37,98.53Zm30.38-10.27.7,2.57c-.18,0-.18-.17-.35-.17a5,5,0,1,0,0,9.92h0a4.28,4.28,0,0,0,2.78-1l.87,2.57a5,5,0,0,1-3.48.85,7.63,7.63,0,0,1-7.63-7.52h0A7.23,7.23,0,0,1,212.75,88.26ZM199,71.5c.87.68,1.91,1.37,3,2.22h-.69a5,5,0,1,0,5,5,3.69,3.69,0,0,0-.17-1.36c.86.85,1.73,1.54,2.6,2.39a7.63,7.63,0,0,1-8.86,6.09,7.54,7.54,0,0,1-6.24-8.31,6.48,6.48,0,0,1,1.91-3.94,24.21,24.21,0,0,0,2.6-1.88C198.34,71.84,198.69,71.67,199,71.5ZM164.67,61.41a8,8,0,0,1,1.73,4.79,7.68,7.68,0,0,1-4,6.16l-2.26-1.54a5.15,5.15,0,0,0,3.65-4.62,5.69,5.69,0,0,0-.87-2.91Zm9-5.82,2.09,1.71a5,5,0,0,0-1.22,7,5.16,5.16,0,0,0,7.12,1.19h0a5.36,5.36,0,0,0,1.56-1.88l2.09,1.71h0A1.24,1.24,0,0,0,185,66a7.67,7.67,0,0,1-10.59,1.71,7.42,7.42,0,0,1-1.74-10.44A3.66,3.66,0,0,1,173.69,55.59Z" transform="translate(0)"/><path class="cls-17" d="M170.57,78.17a30.87,30.87,0,0,1,2.26-4.1.53.53,0,0,0,0-.69c-.18-.17-.35-.17-.7-.17l-5.55,2.4Z" transform="translate(0)"/><path class="cls-18" d="M173.87,94.08,191.4,104s9.72,2.57,18.23,41.39c4.51,20.19,8.68,50.29,11.11,95.11l-29.34,1.2-16.66-90.32L162.41,241.7l-28.81-.34S116.41,89.63,173.87,94.08Z" transform="translate(0)"/><path class="cls-18" d="M169,133.76c0-.34.17-.68.52-.68s.69.17.69.51l4.52,17.79-1.91,11.46S170.57,145.39,169,133.76Z" transform="translate(0)"/><path class="cls-15" d="M187.58,50.29,185,57.64a3.68,3.68,0,0,0,.87,3.94l.34.34a9,9,0,0,0,6.6,1.2c.17,0,.35-.34.35-.51s-.35-.35-.52-.35a7.19,7.19,0,0,1-5.91-1l-.34-.35a2.94,2.94,0,0,1-.7-3.07l2.61-7.53a.33.33,0,0,0-.06-.46l-.12,0C187.93,50,187.76,50,187.58,50.29Z" transform="translate(0)"/><path class="cls-15" d="M187.06,61.92l-1.39,3.59a.33.33,0,0,0,.06.46.34.34,0,0,0,.12.06h0c.17,0,.52,0,.52-.17h0l1.39-3.6c0-.17,0-.51-.18-.51S187.06,61.75,187.06,61.92Z" transform="translate(0)"/><path class="cls-15" d="M198,59l-2.61,10.1c0,.17,0,.51.35.51h0a.49.49,0,0,0,.52-.34h0l2.61-10.1c0-.17-.18-.51-.35-.51S198,58.84,198,59Z" transform="translate(0)"/><path class="cls-15" d="M197.82,59.36a6,6,0,0,0,1.74-.18,2.73,2.73,0,0,0,1.39-1,1.78,1.78,0,0,0,.17-1.37,2.09,2.09,0,0,0-1.56-1.37,2.89,2.89,0,0,0-2.08.86.31.31,0,0,0-.06.45.34.34,0,0,0,.06.06h0a.33.33,0,0,0,.46.06l.06-.06h0a1.58,1.58,0,0,1,1.39-.68c.34,0,.69.34.86.85a.5.5,0,0,1,0,.68.94.94,0,0,1-.86.52,4.35,4.35,0,0,1-1.39.17c-.18,0-.35.17-.52.34C197.48,59.18,197.48,59.36,197.82,59.36Z" transform="translate(0)"/><path class="cls-15" d="M195.39,69.45,198,72c.34-.17.52-.51.69-.68l-2.6-2.57a.33.33,0,0,0-.46-.05.1.1,0,0,0-.06.05h0C195.22,69.11,195.22,69.28,195.39,69.45Z" transform="translate(0)"/><path class="cls-19" d="M195.74,69.11l3.13,2.9" transform="translate(0)"/><path class="cls-10" d="M194,52.24a7.14,7.14,0,0,1-6.08-1.37.82.82,0,0,1-.31-.58c0-.17,0-.68,1-.1a5.81,5.81,0,0,0,5.73,1h.34c.18.17.18.17.18.35a2.24,2.24,0,0,0,0,1.53,4.78,4.78,0,0,0,3.3,2.74c-.52.34-.87.51-.87.86a3.75,3.75,0,0,1-1.91-.69A4.67,4.67,0,0,1,194,53.44Z" transform="translate(0)"/><path class="cls-10" d="M187.58,50.12a4.57,4.57,0,0,1,5.56-2.4,10.37,10.37,0,0,1,7.46,6.16c1.56.17,6.6.69,9.55,4.62a11.3,11.3,0,0,1,1.73,8.21c2.78,0,13.37.86,17.88,10.78,1.05,2.22,2.78,9.06-2.25,16.76,1.91,1.2,8.68,5.64,9.72,13.34.52,3.77-.52,8.38-4.17,13.86a16.11,16.11,0,0,1-8.85,5.81c-.35.17-.52,0-.69-.34a.86.86,0,0,1,.34-.68,13.21,13.21,0,0,0,8.16-5.31c3.65-5.13,4.51-9.4,4-13-1-8.38-9.54-12.82-9.54-12.82l-.35-.35v-.51c5-7.53,3.47-14,2.43-16.25C223.69,67.22,211,67.74,211,67.74a.62.62,0,0,1-.7-.5.61.61,0,0,1,0-.19,11,11,0,0,0-1.56-8c-2.95-4.27-9-4.1-9-4.1s-.52-.17-.52-.34a9.27,9.27,0,0,0-6.77-5.82,3.48,3.48,0,0,0-4.16,1.88Z" transform="translate(0)"/><path class="cls-10" d="M206.5,125.89l-2.43-1.36.52,1.36,2.26,1.2Z" transform="translate(0)"/><path class="cls-20" d="M171.79,93.91l.52-2.23,23.26,12.49-2.26.86Z" transform="translate(0)"/><ellipse class="cls-21" cx="181.76" cy="98.32" rx="3.25" ry="3.47" transform="matrix(0.03, -1, 1, 0.03, 78.62, 277.39)"/><path class="cls-15" d="M160.33,66.37l-9.55-10.09a11.47,11.47,0,0,1-3.12-9.07C148.7,35.92,151,11,151,11a.51.51,0,0,0-.52-.52.52.52,0,0,0-.52.52h0s-2.25,25-3.3,36.26A12,12,0,0,0,150.09,57l9.54,10.09Z" transform="translate(0)"/><path class="cls-15" d="M157.55,15.39l-.52-.51h0a1.33,1.33,0,0,1,.35-1.37,4.88,4.88,0,0,1,3.47-.51,2.79,2.79,0,0,1,2.43,2.74l-.35,30.44,8.51,7.53-.7.68-8.68-7.69c-.17-.17-.17-.17-.17-.34s.35-23.95.35-30.79a1.82,1.82,0,0,0-1.56-1.71,4,4,0,0,0-2.78.51v.17c.17.34.87.85,2.6,1.37.18,0,.35.34.35.51s-.35.34-.52.34l-2.43-.34a14,14,0,0,0-2.61,2l-.17.17a3,3,0,0,1,.7,1.72,2.09,2.09,0,0,1-.7,2.05,1.43,1.43,0,0,1-1.84-.8,2,2,0,0,1-.07-.23,3.33,3.33,0,0,1,.7-2.56,2,2,0,0,0-1.39-.52.53.53,0,0,1-.52-.51.46.46,0,0,1,.41-.51.2.2,0,0,1,.11,0,3.65,3.65,0,0,1,1.91.68l.17-.17A20.08,20.08,0,0,1,157.55,15.39Zm-3.12,4.11a2.05,2.05,0,0,0-.35,1.71c0,.17.17.17.17.34h.18a.17.17,0,0,0,.17-.17v-.85A1,1,0,0,0,154.43,19.5Z" transform="translate(0)"/><path class="cls-15" d="M151.48,9.41a1.63,1.63,0,0,0-1.74,1.5.74.74,0,0,0,0,.21l-.17,3.08a1.6,1.6,0,0,0,1.31,1.87H151a.52.52,0,1,0,0-1h0c-.34,0-.69-.51-.69-.85l.17-3.08a.8.8,0,0,1,.7-.86c.35,0,.52-.34.35-.51C151.82,9.41,151.65,9.41,151.48,9.41Z" transform="translate(0)"/><path class="cls-15" d="M151.13,16.25a1.62,1.62,0,0,0,1.73-1.5.74.74,0,0,0,0-.21l.18-3.08a1.62,1.62,0,0,0-1.32-1.87h-.07c-.35,0-.52.34-.35.51a.38.38,0,0,0,.35.34c.35,0,.69.52.69.86l-.17,3.08a.79.79,0,0,1-.69.85.48.48,0,0,0-.53.41v.11C150.78,15.91,151,16.08,151.13,16.25Z" transform="translate(0)"/><path class="cls-15" d="M153.91,9.24a1.63,1.63,0,0,0-1.74,1.5.74.74,0,0,0,0,.21L152,14a1.6,1.6,0,0,0,1.31,1.87h.25c.17,0,.52-.17.52-.34h0a.46.46,0,0,0-.41-.52h-.11c-.35,0-.7-.51-.7-1L153,11a.79.79,0,0,1,.69-.86c.52.17.7-.17.7-.34h0a.47.47,0,0,0-.41-.51Z" transform="translate(0)"/><path class="cls-15" d="M153.56,16.08a1.62,1.62,0,0,0,1.73-1.5.74.74,0,0,0,0-.21l.18-3.08a1.62,1.62,0,0,0-1.32-1.87h-.24c-.18,0-.53.17-.53.34h0c0,.17.18.51.35.51h0a1,1,0,0,1,.7,1v3.08a.79.79,0,0,1-.7.85.46.46,0,0,0-.52.41v.11h0c-.17.17.17.34.35.34Z" transform="translate(0)"/><path class="cls-15" d="M156.34,9.24a1.91,1.91,0,0,0-1.91,1.88V14.2a1.7,1.7,0,0,0,1.34,2l.22,0c.35,0,.52-.34.35-.51a.39.39,0,0,0-.35-.35c-.52,0-.7-.51-.7-1l.18-3.25c0-.51.35-1,.69-.86a.36.36,0,0,0,.52-.34C156.68,9.75,156.68,9.24,156.34,9.24Z" transform="translate(0)"/><path class="cls-15" d="M156,16.25a1.9,1.9,0,0,0,1.91-1.71l.17-3.25a1.7,1.7,0,0,0-1.35-2,.76.76,0,0,0-.21,0c-.35,0-.52.34-.35.51a.38.38,0,0,0,.35.34c.52,0,.69.52.69,1L157,14.37c-.17.51-.52,1-.87,1s-.52.35-.34.52A.51.51,0,0,0,156,16.25Z" transform="translate(0)"/><path class="cls-15" d="M160.5,13.34l.18-2.05a1.93,1.93,0,0,0-1.57-2.22.47.47,0,0,0-.52.4v.11a.47.47,0,0,0,.41.51h.11c.52,0,.7.52.7,1l-.18,2.05a.47.47,0,0,0,.41.51h.11C160.15,13.86,160.5,13.68,160.5,13.34Z" transform="translate(0)"/><path class="cls-15" d="M158.94,9.07A1.91,1.91,0,0,0,157,11l-.17,2.73c0,.18.17.52.34.52h0a.46.46,0,0,0,.52-.41.2.2,0,0,0,0-.11h0L157.9,11a1,1,0,0,1,.87-1,.47.47,0,0,0,.52-.4V9.41C159.46,9.41,159.29,9.07,158.94,9.07Z" transform="translate(0)"/><path class="cls-22" d="M191.75,54.57c.35,0,.52.34.69.51a2.33,2.33,0,0,1,.18,1.88,2.91,2.91,0,0,1-1.05,1.71,1.24,1.24,0,0,1-.86.17c-.18,0-.52.17-.52.34s.17.52.34.52a1.81,1.81,0,0,0,1.57-.34,3.43,3.43,0,0,0,1.38-2.23,3.36,3.36,0,0,0-.34-2.56c-.35-.52-.7-.86-1.22-.86-.17,0-.52.17-.52.34S191.57,54.57,191.75,54.57Z" transform="translate(0)"/><path class="cls-22" d="M190.88,58.84c-.35,0-.52-.34-.69-.51a2.3,2.3,0,0,1-.18-1.88,2.52,2.52,0,0,1,1-1.54,1.27,1.27,0,0,1,.87-.17c.18,0,.52-.17.52-.35s0-.51-.34-.51h0a1.81,1.81,0,0,0-1.57.34,3.67,3.67,0,0,0-1,4.62,1.31,1.31,0,0,0,1.22.86c.17,0,.52-.17.52-.34S191.05,58.84,190.88,58.84Z" transform="translate(0)"/><path class="cls-22" d="M186.71,52.51c.35,0,.52.35.7.52a2.41,2.41,0,0,1,.17,1.88,3.5,3.5,0,0,1-1,1.71,1.05,1.05,0,0,1-.69.17c-.18,0-.52.17-.52.34a.37.37,0,0,0,.34.34,1.35,1.35,0,0,0,1.39-.34,3.73,3.73,0,0,0,1.39-2.22,4.42,4.42,0,0,0-.17-2.57,1.3,1.3,0,0,0-1.22-.85c-.17,0-.52.17-.52.34C186.37,52.34,186.54,52.51,186.71,52.51Z" transform="translate(0)"/><path class="cls-22" d="M185.67,56.79a.47.47,0,0,1-.52-.4v-.11a2.35,2.35,0,0,1-.17-1.89,3.5,3.5,0,0,1,1-1.71,1.11,1.11,0,0,1,.69-.17c.18,0,.52-.17.52-.34s-.17-.51-.34-.51a1.35,1.35,0,0,0-1.39.34,3.76,3.76,0,0,0-1.39,2.22,4.42,4.42,0,0,0,.17,2.57,1.3,1.3,0,0,0,1.22.85c.17,0,.52-.17.52-.34S186,56.79,185.67,56.79Z" transform="translate(0)"/><path class="cls-22" d="M187.76,55.59l1.38.52c.18,0,.53,0,.53-.18h0c0-.17,0-.51-.18-.51l-1.39-.51c-.17,0-.52,0-.52.17a.31.31,0,0,0,.18.51Z" transform="translate(0)"/></g><ellipse class="cls-9" cx="191.95" cy="50.05" rx="1.97" ry="3.77" transform="translate(123.94 236.4) rotate(-84.56)"/><g id="CHARACTER-1"><path class="cls-23" d="M78.74,51.49S69.89,44.64,60,47a22.19,22.19,0,0,0-12.67,9.41c-1,1.71-5.38,10.26-2.26,18.64,2.09,5.65,7.47,11.29,19.27,14.71.35,0,.52-.17.7-.51a1.31,1.31,0,0,0-.35-.68c-11.28-3.25-16.49-8.56-18.57-14-3-8,1.21-16.08,2.25-17.62,3.82-5.47,8-8,12-9.07C69.71,45.67,78.22,52,78.22,52a.52.52,0,0,0,.69-.17C78.91,52,78.91,51.66,78.74,51.49Z" transform="translate(0)"/><path class="cls-24" d="M72.73,76.65h-.86l-.52.68C69.09,80.24,60.24,90.5,49.47,146.1l14.06,4.44L77.94,102s2.26,3.6,8.33,3.08l17-10.43s7.29-10.78,3.64-17.45l19.72-19A14.64,14.64,0,0,0,131,47.72c-.17-8.38-.52-22.06-.52-22.06L115,25.83V46.36L94.36,63.46S96.17,76.82,72.73,76.65Z" transform="translate(0)"/><path class="cls-22" d="M77.7,102.12l.87-4.79c0-.34.34-.51.69-.69a1,1,0,0,1,.87.52c1,2.22,2.6,5.81,2.43,7.7A9.26,9.26,0,0,1,77.7,102.12Z" transform="translate(0)"/><path class="cls-22" d="M106.69,77.14l-2.08-3.07a1,1,0,0,1,0-1c.17-.34.69-.34,1-.17a22,22,0,0,1,3.47,1.88Z" transform="translate(0)"/><path class="cls-25" d="M34,163.36l-3.12,14.71L4.1,170.71l8-33,26.21,5.47-3.12,15.05,26.91,6-1.22,5.13Z" transform="translate(0)"/><path class="cls-1" d="M20.59,156.86a3.63,3.63,0,0,1-3.82,3.25,3.7,3.7,0,0,1-3.3-3.43,1.72,1.72,0,0,0-1.21-1.54,1.74,1.74,0,0,0-1.57,1.2v.34a6.25,6.25,0,0,0,12.5.35h0A1.32,1.32,0,0,0,22,155.66a1.22,1.22,0,0,0-1.38,1.05.76.76,0,0,0,0,.15Z" transform="translate(0)"/><path class="cls-1" d="M13.47,156.51a3.56,3.56,0,0,1,7.12-.17h0v.52a1.36,1.36,0,0,0,1.35,1.36h0A1.33,1.33,0,0,0,23.37,157h0a6.25,6.25,0,0,0-12.5-.35h0a1.4,1.4,0,0,0,1.56,1.2C13,157.54,13.47,157.2,13.47,156.51Z" transform="translate(0)"/><path class="cls-1" d="M22,159.42l7.29,1.71a1.33,1.33,0,0,0,1.56-1,1.31,1.31,0,0,0-1-1.54l-7.29-1.71a1.37,1.37,0,0,0-1.74.85,1.35,1.35,0,0,0,.87,1.71Z" transform="translate(0)"/><path class="cls-1" d="M26.32,161.82,27.53,157a1.25,1.25,0,0,0-1-1.48,1.27,1.27,0,0,0-1.45.79h0l-1.21,4.79a1.22,1.22,0,0,0,.84,1.53h0a1.06,1.06,0,0,0,1.44-.42A1.08,1.08,0,0,0,26.32,161.82Z" transform="translate(0)"/><path class="cls-12" d="M49.75,145.91H49.4s-4.51,17.1-3.29,19.16c-.72,1.38,3.64,3.59,4,3.42,1-.17.17-5.65-.7-5.48,0,0,4.34-.34,4-.68l5.93,1.2s3.48-13.24,3.32-13.59" transform="translate(0)"/><path class="cls-22" d="M46.63,166.78a1.81,1.81,0,0,0,0,1.88,1.75,1.75,0,0,0,2.25.34h0a.62.62,0,0,0,.18-.51h0c-.18-.17-.35-.17-.7,0a.83.83,0,0,1-1-.17h0a.79.79,0,0,1,0-.86.32.32,0,0,0-.06-.46l-.11-.05h0C47,166.61,46.8,166.61,46.63,166.78Z" transform="translate(0)"/><path class="cls-22" d="M51.31,167.12a1.79,1.79,0,0,0,.52-2.23,1.4,1.4,0,0,0-1.56-.68c-.17,0-.34.34-.34.51h0c0,.17.34.35.52.35h0c.17,0,.34.17.52.34s0,.68-.35,1-.17.35-.17.69S51.14,167.29,51.31,167.12Z" transform="translate(0)"/><path class="cls-22" d="M49.23,168.14a1.71,1.71,0,0,0,.17,1.54c.18.18.35.18.7.18s.17-.35.17-.69a.52.52,0,0,1,0-.68c0-.17,0-.52-.34-.52S49.4,168.14,49.23,168.14Z" transform="translate(0)"/><path class="cls-22" d="M49.4,169.86a1.76,1.76,0,0,0,2.26.34h0l2.43-1.88a1.7,1.7,0,0,0,.35-2.23h0a.54.54,0,0,0-.7,0h0c-.17.17-.17.34-.17.69a.79.79,0,0,1-.17,1L51,169.51a.82.82,0,0,1-1-.17.67.67,0,0,0-.53-.17h0c-.17,0-.17.34,0,.69C49.23,169.68,49.4,169.68,49.4,169.86Z" transform="translate(0)"/><path class="cls-22" d="M54.44,166.09a1.76,1.76,0,0,0-2.26-.34h0l-1.21.86a.5.5,0,0,0,0,.68.66.66,0,0,0,.52.17h0l1.21-.85c.35-.18.7-.18.87.17h0c.17.17.35.17.7.17C54.61,166.61,54.61,166.26,54.44,166.09Z" transform="translate(0)"/><path class="cls-22" d="M57,167.29a1.75,1.75,0,0,0-2.25-.34h0l-2.43,1.71a1.68,1.68,0,0,0-.35,2.22h0c.17.17.35.17.69.17s.18-.34.18-.68h0c-.18-.34-.18-.69.17-.86h0l2.43-1.71a.83.83,0,0,1,1,.17h0c.18.17.35.17.7,0C57,167.8,57.22,167.46,57,167.29Z" transform="translate(0)"/><path class="cls-22" d="M52,170.88a1.75,1.75,0,0,0,2.26.34l2.43-1.71a1.69,1.69,0,0,0,.34-2.22h0c-.17-.17-.34-.17-.69-.17s-.18.34-.18.68.18.69-.17.86h0l-2.26,1.88a.83.83,0,0,1-1-.17h0c-.17-.17-.34-.17-.69-.17S51.83,170.71,52,170.88Z" transform="translate(0)"/><path class="cls-22" d="M57.22,169.17l-1.57,1.2c-.17.17-.52,0-.69-.17s0-.34,0-.52l1.56-1.19h0a3,3,0,0,1,1.74-.52,1.59,1.59,0,0,1,1.21.52.48.48,0,0,1,0,.68.49.49,0,0,1-.69,0h0a.78.78,0,0,0-.87-.17C57.74,168.83,57.39,169,57.22,169.17Z" transform="translate(0)"/><path class="cls-22" d="M59,169.34l-.17-.17a.48.48,0,0,1,0-.68.49.49,0,0,1,.69,0h0c.35.34.52.68.35,1a.92.92,0,0,1-.52.69l-2.6,1.88a1.52,1.52,0,0,1-2.09-.34,1.47,1.47,0,0,1,.35-2.06h0a.44.44,0,0,1,.61,0,.29.29,0,0,1,.08.14c.18.17.18.51-.17.51h0a.74.74,0,0,0,0,.85c.17.17.35.17.69.17Z" transform="translate(0)"/><path class="cls-22" d="M50.62,166.78a11.24,11.24,0,0,0-1.74-3.94.32.32,0,0,1,.06-.45l.12-.06h0a.32.32,0,0,1,.46.06.24.24,0,0,1,.06.11A10,10,0,0,1,51.31,167h0c0,1.19-.52,1.71-1,1.88a1.5,1.5,0,0,1-1.21,0,8.55,8.55,0,0,1-2.78-2.05,4.92,4.92,0,0,1-1.22-4.28c1-4.62,4-16.59,4-16.59l.69.17-3.82,16.76a3.94,3.94,0,0,0,.87,3.59,10.31,10.31,0,0,0,2.6,1.89h.53A3.31,3.31,0,0,0,50.62,166.78Z" transform="translate(0)"/><path class="cls-22" d="M53.4,161.47a3.57,3.57,0,0,1-.7-.85,1.69,1.69,0,0,1-.17-1.54,1.56,1.56,0,0,1,1-1,1.4,1.4,0,0,1,1.39.34,1.58,1.58,0,0,1,.52,1.2,3,3,0,0,1-.69,1.71,1.29,1.29,0,0,0,.69.34c.17.18.35.35.17.52.18.34-.17.51-.34.34a8.72,8.72,0,0,0-1.22-.51,3.61,3.61,0,0,1-.87.51,14.84,14.84,0,0,1-3.64,1c-.18,0-.52,0-.52-.35s0-.51.34-.51h.18a11.47,11.47,0,0,0,3.47-1Zm.69-.51a1.81,1.81,0,0,0,.52-1.2c0-.17-.17-.34-.34-.51a.67.67,0,0,0-.53-.17c-.17,0-.34.17-.52.51s0,.69.35,1C53.92,160.62,53.92,160.79,54.09,161Z" transform="translate(0)"/><path class="cls-22" d="M62.65,149.94l-4.39,18c0,.17,0,.52.34.52h0c.18,0,.53,0,.53-.35h0l4.34-17.78Z" transform="translate(0)"/><path class="cls-22" d="M127.87,10.61c0-.18,0-.35.17-.35a.54.54,0,0,1,.7,0l.17.17V11c.17,2.39.17,14.54.17,14.54h-.87S128,13.34,128,11.12A1.34,1.34,0,0,1,127.87,10.61ZM128,11Zm.17,0a.18.18,0,0,0,.18-.17A.18.18,0,0,1,128.21,11Z" transform="translate(0)"/><path class="cls-22" d="M114.8,26h.86s-.29-7.9-.29-10.81a2,2,0,0,1,1.56-1.88,10,10,0,0,1,2.26-.17c.17,0,.52.17.52.34a1.06,1.06,0,0,1-.18.69,5.91,5.91,0,0,1-2.08,1.19.33.33,0,0,0-.23.4.27.27,0,0,0,.06.12h0a.34.34,0,0,0,.4.23.45.45,0,0,0,.12-.06h0a6.88,6.88,0,0,0,2.43-1.37,2.07,2.07,0,0,0,.52-1.54,1.86,1.86,0,0,0-1.22-1,6.71,6.71,0,0,0-2.6.18,2.78,2.78,0,0,0-2.26,2.73c0,2.91.18,10.44.18,10.44Z" transform="translate(0)"/><path class="cls-22" d="M122.83,18.47c-.17-.34-.52-.51-.69-.85A12.09,12.09,0,0,0,119,15.57c-.17-.18-.34-.35-.17-.52s.35-.34.52-.17a14.68,14.68,0,0,1,3.47,2.23l1,1c.53-.17.87-.17,1.39-.34a.34.34,0,0,1,.47.06.37.37,0,0,1,0,.11h0a.32.32,0,0,1,0,.46l-.12,0h0a3.24,3.24,0,0,1-1.21.35,3,3,0,0,1,.34,1.71,2.07,2.07,0,0,1-.69,1.36,1.62,1.62,0,0,1-1.74-.17,1.8,1.8,0,0,1-.17-2.39A3.84,3.84,0,0,1,122.83,18.47Zm.52.69a2.47,2.47,0,0,0-.69.51c-.35.69-.35,1,0,1.37a1,1,0,0,0,.69.17.85.85,0,0,0,.35-.68A2.29,2.29,0,0,0,123.35,19.16Z" transform="translate(0)"/><path class="cls-22" d="M117.28,16.08a1.58,1.58,0,0,0,1.39.68,2,2,0,0,0,1.56-2.22.52.52,0,0,0-.52-.51.51.51,0,0,0-.52.51c0,.68-.18,1.2-.7,1.37s-.34-.17-.52-.34-.34-.18-.69-.18A.51.51,0,0,0,117.28,16.08Z" transform="translate(0)"/><path class="cls-22" d="M117.63,11v1.88a.53.53,0,0,1-1,0h0V11h0a1.8,1.8,0,0,1,1.22-2.23,1.83,1.83,0,0,1,2.26,1.2,1.1,1.1,0,0,1,0,1v1.71a.53.53,0,0,1-.53.51.52.52,0,0,1-.52-.51V11a2.33,2.33,0,0,0-.34-1,.67.67,0,0,0-.84-.36l0,0c-.17,0-.17.17-.35.34C117.63,10.26,117.45,10.61,117.63,11Z" transform="translate(0)"/><path class="cls-22" d="M121.27,16.76A1.91,1.91,0,0,0,123,14.71h0V11a1.8,1.8,0,0,0-1.22-2.23,1.83,1.83,0,0,0-2.26,1.2h0a1.1,1.1,0,0,0,0,1V13a.55.55,0,0,0,.53.51c.17,0,.52-.17.52-.34h0V11h0a2.33,2.33,0,0,1,.34-1c.18-.17.35-.34.52-.34s.53.17.53.34a2.33,2.33,0,0,1,.34,1v3.76c0,.68-.34,1.2-.87,1.2a.54.54,0,0,0-.52.51A.38.38,0,0,0,121.27,16.76Z" transform="translate(0)"/><path class="cls-22" d="M126,11a1.79,1.79,0,0,0-1.22-2.23,1.81,1.81,0,0,0-2.25,1.2h0a1,1,0,0,0,0,1v3.76a1.77,1.77,0,0,0,1.21,2.22A1.82,1.82,0,0,0,126,15.74a1.1,1.1,0,0,0,0-1Zm-.87,0v3.76a2.43,2.43,0,0,1-.35,1c-.17.17-.34.34-.52.34s-.52-.17-.52-.34a2.58,2.58,0,0,1-.35-1V11a2.48,2.48,0,0,1,.35-1c.17-.17.35-.34.52-.34s.52.17.52.34A2.34,2.34,0,0,1,125.09,11Z" transform="translate(0)"/><path class="cls-22" d="M128.74,11a1.86,1.86,0,0,0-1.47-2.18,1.88,1.88,0,0,0-2.18,1.32v4.62A1.85,1.85,0,0,0,126.4,17a1.87,1.87,0,0,0,2.3-1.29.56.56,0,0,0,0-.12Zm-.87,0v3.76a2.58,2.58,0,0,1-.35,1,.64.64,0,0,1-.83.35h0c-.17,0-.17-.17-.35-.34a2.42,2.42,0,0,1-.34-1V11a2.33,2.33,0,0,1,.34-1,.67.67,0,0,1,.84-.36l0,0c.18,0,.18.17.35.34A1.44,1.44,0,0,1,127.87,11Z" transform="translate(0)"/><path class="cls-22" d="M71.8,76.46H73a56.59,56.59,0,0,1,9.2-7.7c.18-.17.35-.34.18-.68s-.35-.34-.7-.17h0a36,36,0,0,0-9.2,7.7Z" transform="translate(0)"/><path class="cls-22" d="M78.74,58.67l2.78,9.92c0,.17.35.34.52.34s.35-.34.35-.51h0L79.61,58.5c0-.17-.35-.34-.52-.34S78.74,58.5,78.74,58.67Z" transform="translate(0)"/><path class="cls-22" d="M94.36,63.29l-2.6,1.54a.5.5,0,0,0,0,.68.63.63,0,0,0,.52.17l2.08-1.19Z" transform="translate(0)"/><path class="cls-22" d="M92.8,66.2l-2.6-4.79c-.18-.17-.35-.34-.52-.17s-.35.34-.18.68l2.61,5c.17.17.34.34.52.17h0C92.8,66.71,93,66.54,92.8,66.2Z" transform="translate(0)"/><path class="cls-22" d="M83.78,62.61a9.61,9.61,0,0,0,5.72-.69,3.57,3.57,0,0,0,2.26-4.1,37.32,37.32,0,0,0-2.26-7.53c0-.17-.34-.34-.52-.34s-.34.34-.34.51v.17A52.52,52.52,0,0,1,90.89,58a2.88,2.88,0,0,1-1.73,3.08,10.76,10.76,0,0,1-5.21.68c-.17,0-.52.17-.52.34S83.6,62.43,83.78,62.61Z" transform="translate(0)"/><path class="cls-22" d="M85.51,57.64a1.15,1.15,0,0,0,.7,1.2,1.9,1.9,0,0,0,1.38.17c.18,0,.35-.17.35-.51s-.17-.34-.52-.34c-.87.17-1.21-.17-1.21-.52s-.18-.34-.35-.51h0C85.86,57.3,85.51,57.47,85.51,57.64Z" transform="translate(0)"/><path class="cls-22" d="M87.59,59.18a1.13,1.13,0,0,0,1-1.19,1.32,1.32,0,0,0-.35-.86,2.19,2.19,0,0,0-1.74-.34c-.52,0-.87.51-1,1,0,.17.17.51.35.51s.52-.17.52-.34h0c0-.17.35-.35.52-.35a1.65,1.65,0,0,1,.87.18V58a.38.38,0,0,1-.35.34c-.17,0-.35.17-.35.51S87.25,59.18,87.59,59.18Z" transform="translate(0)"/><path class="cls-22" d="M80.13,55.25a6.45,6.45,0,0,0-1.91-.17A1.5,1.5,0,0,0,77,56.62a1.69,1.69,0,0,0,.69,1.54,4,4,0,0,0,2.43.68.34.34,0,1,0,0-.68c-1.74.17-2.26-.69-2.26-1.37a.6.6,0,0,1,.18-.51c.17-.17.52-.35.69-.17a2.18,2.18,0,0,1,1,.17c.18,0,.52,0,.52-.35h0C80.48,55.59,80.48,55.42,80.13,55.25Z" transform="translate(0)"/><path class="cls-26" d="M86,104.68l17.53-10.26s37.5-3.42,37.33,68.42l3.47,82.62-30.21-2.39-11.28-89.81L80,236.74l-25.17,5.64C55,242.38,62.08,117.51,86,104.68Z" transform="translate(0)"/><path class="cls-18" d="M107.9,94.76A25,25,0,0,1,114,96.47l5.21,8.39h0a.61.61,0,0,1,.17.34h0v.34h0a1,1,0,0,1-.17.68l-.52.52h0l-.35.17H102.7a1.18,1.18,0,0,1-1.22-1.13v-.07a1,1,0,0,1,.18-.68Zm7.82,9.58-5.39-8.72L105,104.34Z" transform="translate(0)"/><path class="cls-18" d="M118.15,120.93l-14.76,3.94a1.24,1.24,0,0,0-.75,1.6,1.27,1.27,0,0,0,1.45.79h0l14.75-3.93a1.3,1.3,0,0,0,1-1.54,1.32,1.32,0,0,0-1.56-1A.17.17,0,0,1,118.15,120.93Z" transform="translate(0)"/><path class="cls-18" d="M108.43,114.61l-3.48,12a1.32,1.32,0,0,1-2.6-.51h0v-.18l4-14a2.12,2.12,0,0,1,.87-.86,1.17,1.17,0,0,1,1.22.35L119,121.45a1.13,1.13,0,0,1,.1,1.62l-.1.09a1.36,1.36,0,0,1-1.91,0Z" transform="translate(0)"/><path class="cls-18" d="M99.57,111.53l-13.19,7.69a1.38,1.38,0,0,0-.52,1.71h0a1.41,1.41,0,0,0,1.73.52l13.2-7.7a1.38,1.38,0,0,0,.52-1.71,1.2,1.2,0,0,0-1.59-.59Z" transform="translate(0)"/><path class="cls-18" d="M88.46,106.74v13.51a1.22,1.22,0,0,1-2.43,0V105.37a1.69,1.69,0,0,1,.7-1.2,1.9,1.9,0,0,1,1.39-.34,5.17,5.17,0,0,1,1.73.68c.35.17.52.35.87.52l10.41,6.5a1.22,1.22,0,0,1,.35,1.71,1.26,1.26,0,0,1-1.73.34l-10.07-6.33Z" transform="translate(0)"/><path class="cls-18" d="M100.09,96.47l-3,6.67h0a.18.18,0,0,1-.17.18h0l-.18.17h0c-.17.17-.34.17-.69.17a1.11,1.11,0,0,1-.69-.17h0c-.18,0-.18,0-.35-.17h0l-.17-.18h0L93,100.41l2.25-1.2.52.86.7-1.54Z" transform="translate(0)"/><path class="cls-18" d="M70.41,133.93l10.24,9.41h0l.17.17h0a.62.62,0,0,1,.18.35h0v.68c0,.17-.18.34-.35.51h0l-.17.17h0a.61.61,0,0,0-.35.17h0l-13.54,3.94a21.54,21.54,0,0,1,.69-2.74l9.9-2.73-7.64-7C69.89,135.47,70.24,134.62,70.41,133.93Z" transform="translate(0)"/><path class="cls-18" d="M91.07,142.32l-.52-14.54a1.31,1.31,0,0,0-2.61.17l.52,14.54a1.31,1.31,0,0,0,2.61-.17Z" transform="translate(0)"/><path class="cls-18" d="M88.64,129,102,136.33a1.37,1.37,0,0,0,1.74-.51,1.17,1.17,0,0,0-.52-1.54l-13.37-7.36a1.2,1.2,0,0,0-1.65.36,1.09,1.09,0,0,0-.08.15A1.06,1.06,0,0,0,88.64,129Z" transform="translate(0)"/><path class="cls-18" d="M102,133.93l-12.84,7.19a1.31,1.31,0,0,0-.52,1.71,1.2,1.2,0,0,0,1.58.59l.15-.08h0l12.85-7.18a1.22,1.22,0,0,0,.57-1.63l-.05-.08A1.43,1.43,0,0,0,102,133.93Z" transform="translate(0)"/><path class="cls-18" d="M134.29,119.39c-1.91,1.89-4.17,3.94-6.42,6.16l-.18.17h0c-.17,0-.17.17-.34.17h-.7c-.17,0-.35-.17-.52-.34a.61.61,0,0,1-.17-.34h0c0-.17-.18-.17-.18-.34l-4-14h0v-.34h0v-.34h0c0-.17.18-.34.35-.52s.35-.34.52-.34h.69l7.12,1.88a26.71,26.71,0,0,1,1.74,3.08l-7.29-1.88,2.77,9.75c1.91-1.88,4-3.76,5.56-5.3A18.3,18.3,0,0,0,134.29,119.39Z" transform="translate(0)"/><path class="cls-18" d="M126.83,138.55l-11.29-6.16a1.25,1.25,0,0,1-.4-1.74,1.29,1.29,0,0,1,1.62-.48h.17l13.37,7.36a1.37,1.37,0,0,1,.69,1,.94.94,0,0,1-.69,1l-12.67,7.18a1.25,1.25,0,0,1-1.69-.42.41.41,0,0,1,0-.09h0a1.17,1.17,0,0,1,.37-1.63l.15-.08Z" transform="translate(0)"/><path class="cls-18" d="M117.8,145.74l-.52-14.54a1.31,1.31,0,0,0-2.61.17l.53,14.54a1.32,1.32,0,0,0,1.38,1.2C117.28,146.93,118,146.42,117.8,145.74Z" transform="translate(0)"/><path class="cls-18" d="M103.56,158.05l1.74-7.87h0V150h0c.17-.17.35-.34.52-.34h1L118,159.93h0v.69h0c0,.17-.17.34-.34.51h-.35l-13.54,3.76Zm1.74,4.79,9.9-2.73-7.82-7.19Z" transform="translate(0)"/><path class="cls-18" d="M140.71,154.46l-8.5,7.7a1.19,1.19,0,0,1-1.65-.06l-.09-.11c-.17-.17-.17-.35-.35-.52l-3.47-14.19h0v-.35h0v-.34h0c0-.17.18-.34.35-.51s.35-.17.52-.34h.69l12.33,3.76ZM132,158.74l7.81-6.85-10.24-3.07Z" transform="translate(0)"/><path class="cls-18" d="M137.24,128.8c.17.69.35,1.54.52,2.4l-1.73.51,2.43,2c.34,1.54.52,3.08.69,3.94l-6.42-5.65h0l-.18-.17h0c0-.17-.17-.17-.17-.34h0v-.68c0-.18.17-.35.35-.52h0l.17-.17h0l.17-.17h0Z" transform="translate(0)"/><path class="cls-18" d="M106.17,177.55l2.26-2.91h0l.17-.17h0l.17-.17h.7c.17,0,.34.17.52.17h0l.17.17h0l.17.18h0l5.39,13.51v.34h0V189c0,.17-.18.35-.18.52h0c-.17.17-.34.34-.52.34h-.52l-7.12-.86-.34-2.56,5.55.68-3.82-9.58-2.43,3.25Z" transform="translate(0)"/><path class="cls-18" d="M128.91,201.33l5.55-11a1.33,1.33,0,0,1,1.74-.68,1.29,1.29,0,0,1,.69,1.71v.17l-6.59,13a1.42,1.42,0,0,1-1,.68,1.3,1.3,0,0,1-1.22-.68l-8.16-12.66a1.22,1.22,0,0,1,.35-1.71,1.27,1.27,0,0,1,1.74.34h0Z" transform="translate(0)"/><path class="cls-18" d="M120.92,192.43l14.76-.34a1.32,1.32,0,0,0,1.21-1.37,1.21,1.21,0,0,0-1.24-1.2h-.14l-14.76.34a1.11,1.11,0,0,0-1.08,1.13,2,2,0,0,0,0,.24C119.88,191.92,120.23,192.43,120.92,192.43Z" transform="translate(0)"/><path class="cls-18" d="M141.58,178.24l.17,3.08L139,183.2l2.77,1.19.18,2.74-6.08-2.56h0c-.17,0-.17,0-.17-.18h0l-.17-.17h0c-.18-.17-.18-.34-.18-.68v-.68h0a.18.18,0,0,1,.18-.18h0l.17-.17h0Z" transform="translate(0)"/><path class="cls-18" d="M143.32,218.61l-10.59,2.22H132a2,2,0,0,1-.86-.86h0v-.34h0v-.34h0L136,205.61c0-.18,0-.18.17-.35h0a.18.18,0,0,1,.17-.17c.18-.17.35-.17.52-.34h.7c.17,0,.17,0,.35.17h0l.17.17,4.69,5L143,214l-5.21-5.48-3.47,9.58,8.68-1.88Z" transform="translate(0)"/><path class="cls-18" d="M111.38,219.8l9.54-4.79a.51.51,0,0,0,.35-.17h.35a1.29,1.29,0,0,1,.69.17h0a.94.94,0,0,1,.52.86h0v.34l-.17,14.54a1,1,0,0,1-.69,1,1.52,1.52,0,0,1-1.22,0l-8.51-5.14-.34-3.25,8.33,5.14.17-10.27-8.5,4.28Z" transform="translate(0)"/><path class="cls-18" d="M108.6,198.08l11.46,7.53.17.17h0a.61.61,0,0,1,.17.34c.18.17.18.34.18.68h0a1.39,1.39,0,0,1-.18.69.17.17,0,0,1-.17.17h0l-.17.17L110.68,213l-.35-2.74,6.77-3.59-7.81-5.13Z" transform="translate(0)"/><path class="cls-18" d="M113.29,234.86h.17l14.06,4.27.35.17h0a.18.18,0,0,1,.17.17h0c.17.17.17.35.35.52h0v.68c0,.17,0,.17-.18.34h0a.16.16,0,0,1-.17.17h0l-2.78,2.74-3.29-.34,2.77-2.74-9.89-3.08,1.39,5.31-1.91-.18Z" transform="translate(0)"/><path class="cls-18" d="M144,234.68,135.33,242l-.17.17h0c-.18,0-.18.17-.35.17h-.69c-.18,0-.35-.17-.52-.34s-.18-.17-.18-.34h0c0-.17,0-.17-.17-.34l-3.3-14.2h0v-.34h0v-.35h0c0-.17.17-.34.35-.51s.34-.17.52-.34h.69l12.15,3.93Zm-11.11-6,2.26,9.92L143,232Z" transform="translate(0)"/><path class="cls-18" d="M132.38,175l-8-9.75a1.28,1.28,0,0,1,.17-1.71,1.33,1.33,0,0,1,1.73.17L135.51,175a1.14,1.14,0,0,1-.07,1.62l-.11.09a.66.66,0,0,1-.52.17l-14.41,2.74a1.36,1.36,0,0,1-1.56-1h0a1.33,1.33,0,0,1,1-1.54Z" transform="translate(0)"/><path class="cls-18" d="M121.44,179.09l5.21-14.2a1.23,1.23,0,0,0-.84-1.53h0a1.41,1.41,0,0,0-1.56.68L119,178.24a1.25,1.25,0,0,0,.4,1.74,1.3,1.3,0,0,0,1.78-.39.8.8,0,0,0,.08-.16C121.44,179.26,121.44,179.26,121.44,179.09Z" transform="translate(0)"/><path class="cls-18" d="M101,160.79l-11.11.34H89.5c-.17,0-.17,0-.34-.17s-.35-.17-.52-.51h0c-.18-.17-.18-.34-.18-.69v-.34h0v-.34l6.43-13.17h0l.17-.17h0l.17-.17h0a.63.63,0,0,1,.52-.18,1.09,1.09,0,0,1,.7.18h0l.34.17h0l.18.17h0l5.55,8.21-.86,3.25-5.56-8.21-4.51,9.23,9.72-.34Z" transform="translate(0)"/><path class="cls-18" d="M71.62,163.87,81,152.58a1.2,1.2,0,0,0-.18-1.71,1.23,1.23,0,0,0-1.73.17h0L69.71,162.5a1.21,1.21,0,0,0,.16,1.71,1.24,1.24,0,0,0,1.58,0C71.62,164,71.62,164,71.62,163.87Z" transform="translate(0)"/><path class="cls-18" d="M83.08,164.38l-4.34-12c-.17-.69,0-1.37.7-1.54h0a1.3,1.3,0,0,1,1.56.68h0l5,14.2a1.39,1.39,0,0,1-.17,1.2,1.09,1.09,0,0,1-1.22.34l-14.4-2.91a1.23,1.23,0,0,1-.88-1.51v0a1.37,1.37,0,0,1,1.39-.85Z" transform="translate(0)"/><path class="cls-18" d="M63.64,164.89l8.5,11a1.28,1.28,0,0,1-.17,1.71c-.17.17-.35.17-.69.17l-9.9,1.2L61.9,176l6.95-.68-5.56-7.53Z" transform="translate(0)"/><path class="cls-18" d="M76.66,187a1.29,1.29,0,0,0,1.73,1.37l13.54-5.82a1.14,1.14,0,0,0,.7-1,1.55,1.55,0,0,0-.52-1.2l-12.5-8.72a1.2,1.2,0,0,0-1.66.22.83.83,0,0,1-.08.12c-.17.17-.17.34-.17.68Zm2.6-1.88L88.81,181l-8.68-6.15Z" transform="translate(0)"/><path class="cls-18" d="M89.5,202.36l-4,6.15a.17.17,0,0,1-.17.17h0a.62.62,0,0,1-.35.18c-.17.17-.35.17-.69.17h0a1.51,1.51,0,0,1-.7-.17l-.35-.18h0l-.17-.17-7.29-12.65A1.29,1.29,0,0,1,77,194l14.58.35Zm-5,3.25L90,197.05l-10.76-.34Z" transform="translate(0)"/><path class="cls-18" d="M70.93,206l8.33,12a1.26,1.26,0,0,0,1.74.34,1.23,1.23,0,0,0,.35-1.71l-8.34-12a1.3,1.3,0,0,0-1.77-.4,1.26,1.26,0,0,0-.48,1.6C70.76,206,70.76,206,70.93,206Z" transform="translate(0)"/><path class="cls-18" d="M67.28,216.72l13-.85a1.3,1.3,0,0,1,1.39,1.2,1.28,1.28,0,0,1-1.21,1.36h0l-15.28.86a1.62,1.62,0,0,1-1.21-.51,1.4,1.4,0,0,1,0-1.2l6.77-12.83a1.2,1.2,0,0,1,1.58-.59l.15.08h0a1.17,1.17,0,0,1,.61,1.56L73,206h0Z" transform="translate(0)"/><path class="cls-18" d="M83.08,226l-.69,2.57-8,.51,5,7.87-2.78.68L71.1,228.7c0-.17-.17-.17-.17-.34h0V228a1,1,0,0,1,.17-.68h0c.18-.17.18-.34.35-.51s.17-.18.35-.18h.34Z" transform="translate(0)"/><path class="cls-18" d="M56.87,222.2,65,235a1.26,1.26,0,0,0,1.73.34,1.22,1.22,0,0,0,.35-1.71L59,220.83a1.25,1.25,0,0,0-2.08,1.37Z" transform="translate(0)"/><path class="cls-18" d="M55.48,233.14,66.07,233c.69,0,1.39.35,1.39,1s-.35,1.37-1,1.37h-.35l-10.76.17C55.31,235,55.48,234.17,55.48,233.14Zm1-11.46.35-.68a1.29,1.29,0,0,1,1.7-.63,1.25,1.25,0,0,1,.64,1.67.8.8,0,0,1-.08.16h0L56,228.36c0-2.06.35-4.28.52-6.68Z" transform="translate(0)"/><path class="cls-18" d="M59.82,190.72l7.46-2.05H68c.17,0,.35.17.52.34s.17.35.35.52h0v.34h0v.34h0l-4.17,14.54c-.17.51-.52.86-.87.86a1.09,1.09,0,0,1-1.21-.35l-3.82-4.1.35-3.25,3.81,3.93,3-10.09-6.25,1.71Z" transform="translate(0)"/><path class="cls-2" d="M78.74,112.55l3,14.54h0v.34h0v.35h0c0,.17-.17.34-.34.51s-.35.17-.53.34h-.69L73,126.07c.35-.86.52-1.71.87-2.4l5,1.71L77,116.14A38.16,38.16,0,0,1,78.74,112.55Z" transform="translate(0)"/><path class="cls-27" d="M103,153.78s2.78-8.56,5.39-16.77a1.25,1.25,0,0,1,1.53-.86h0a1.37,1.37,0,0,1,.87,1.37l-5.39,34.55Z" transform="translate(0)"/><path class="cls-17" d="M75.27,256.58l4-19.5.87-.17-3.82,20.35a.56.56,0,0,1-.52.52l-2.26-.17a.48.48,0,0,1-.52-.41v-.11l-.52-6.84-22.56,7.18a.6.6,0,0,1-.7-.68,10.18,10.18,0,0,1,5.21-5.82l.69-8.38,1-.17-.69,9.07c0,.17-.17.34-.35.51a8.43,8.43,0,0,0-4.51,4.28l22.22-7h.52c.17,0,.17.17.17.35l.52,7Z" transform="translate(0)"/><path class="cls-17" d="M121.44,248.2l-.69,9.06a.68.68,0,0,1-.17.35c-.18,0-.35.17-.52.17l-3.3-.69c-.18,0-.35-.17-.52-.51l-1.91-13.69,1.21.18,1.91,13,2.26.51.69-9.24a.57.57,0,0,1,.18-.34h.52L148,258.63a6.83,6.83,0,0,0-3.29-4.79c-.18-.17-.18-.17-.18-.34l-1.21-7.87,1,.17,1.21,7.36a7.52,7.52,0,0,1,3.65,6.5.38.38,0,0,1-.35.34h-.52Z" transform="translate(0)"/><path class="cls-17" d="M77.7,51.66a6.52,6.52,0,0,0,.52,3.59h1.22A7.09,7.09,0,0,1,80,50.63,4.59,4.59,0,0,0,77.7,51.66Z" transform="translate(0)"/><path class="cls-17" d="M77.7,51.66s-3.47-6.33-.52-7.36c0,0,2.6-.51,1.73,5.48,0,0,1.39-5.82,3.65-5,.35.17,1,1,0,2.9a12.44,12.44,0,0,1-2.43,2.74Z" transform="translate(0)"/><path class="cls-26" d="M85.68,49.26s.18,3.77-5.38,5.82a.42.42,0,0,0-.25.55.35.35,0,0,0,.08.13.93.93,0,0,0,.69.35c6.43-2.4,6.08-6.85,6.08-6.85a.56.56,0,0,0-.52-.51h0C85.86,48.58,85.68,48.92,85.68,49.26Z" transform="translate(0)"/><path class="cls-26" d="M88.29,49.61a3.48,3.48,0,0,0-4-1.54,22.45,22.45,0,0,0-4.52,2.39L82,48.07s.17-.52,1.91-1a4.56,4.56,0,0,1,5.55,2.74v.68c-.17.17-.17.17-.34.17a4.59,4.59,0,0,1-3.3-1.2.5.5,0,0,1,0-.68h0a.53.53,0,0,1,.69,0A4.19,4.19,0,0,0,88.29,49.61Z" transform="translate(0)"/></g><path class="cls-10" d="M198.34,51.74c.2.41,2.92,2.89,1.6,3.42-.38.18-1.39.4-1.73.59-1,.41-2.66-.91-3.48-2.38-.86-1.8-.76-3.61.23-4.09S197.48,50,198.34,51.74Z" transform="translate(0)"/></svg>