<svg id="Capa_1" data-name="Capa 1" xmlns="http://www.w3.org/2000/svg" viewBox="0 0 290 260"><defs><style>.cls-1{fill:#fff;}.cls-1,.cls-10,.cls-11,.cls-12,.cls-13,.cls-14,.cls-15,.cls-16,.cls-17,.cls-18,.cls-19,.cls-2,.cls-20,.cls-21,.cls-4,.cls-5,.cls-6,.cls-7,.cls-8,.cls-9{fill-rule:evenodd;}.cls-2{fill:#fbc12a;}.cls-3,.cls-6,.cls-8{fill:#194fb0;}.cls-4,.cls-7{fill:#b1c3e7;}.cls-4{fill-opacity:0.75;}.cls-5{fill:#8da7da;}.cls-8{fill-opacity:0.24;}.cls-9{fill:#ee7e5c;}.cls-10{fill:#ffd173;}.cls-12{fill:#6d8cd1;}.cls-13{fill:#003595;}.cls-14{fill:#3565bd;}.cls-15{fill:#fe965c;}.cls-16{fill:#557acb;}.cls-17{fill:#b0c2e7;}.cls-18{fill:#c577db;}.cls-19{fill-opacity:0.98;}.cls-20{fill:#23bebe;}.cls-21{fill:#553e86;}</style></defs><g id="PLANT"><path class="cls-1" d="M239.72,157.23s-16.6,4.19-9,21.11c0,0-12.86,8.09-10.89,21.59l2.49,12.41,43.25-1S280,189.4,257,179c0,0,9.26-12.1,4.48-17.78C261.5,161.18,250,154.23,239.72,157.23Z"/><path class="cls-2" d="M262.29,166.38c.28-3.86-2.16-5.86-5.44-6.92a32.14,32.14,0,0,0-8.3-.88.6.6,0,0,1-.6-.53.58.58,0,0,1,.6-.56h0a33.19,33.19,0,0,1,8.66.94c3.74,1.16,6.59,3.45,6.26,8h0a37.36,37.36,0,0,1-6,12.53,21.23,21.23,0,0,1,11.69,10c2.51,5.19,2.94,12.52-2.75,23.09a.63.63,0,0,1-.55.3h-44a.55.55,0,0,1-.56-.37,41.78,41.78,0,0,1-1.88-17.92c.9-5.93,3.75-11.86,10.81-15.3l-1.48-4h0s-4.27-13.47,10.14-16.94a.62.62,0,0,1,.73.4.53.53,0,0,1-.41.65h0C226,162,229.79,174,229.79,174.38l1.63,4.48a.53.53,0,0,1-.3.65c-6.93,3.22-9.74,9-10.6,14.7a40.21,40.21,0,0,0,1.63,17h43.28c5.31-10,5-17,2.57-21.85a20.2,20.2,0,0,0-11.71-9.56.57.57,0,0,1-.38-.34.6.6,0,0,1,0-.49A38.31,38.31,0,0,0,262.29,166.38Z"/><ellipse class="cls-3" cx="246.1" cy="164.75" rx="9.35" ry="3.64" transform="translate(-21.92 38.76) rotate(-8.62)"/><path class="cls-4" d="M246.54,163c-1.25.46-3.57-3.79-4.16-4.67-3.74-5.62-7.49-11.46-7.75-18.24-.28-8.81,7.49-12.89,9.37-20.63,1.72-7.47-5.63-14-4.43-22.3,1-7.5,9.24-11,10.29-18.56.77-5.43,1.14-10.84,5.32-15.14.85-.87,3.11-3.08,4.61-3.08.53,0,3,4.53,3.21,5A24.16,24.16,0,0,1,265.1,83c-1.48,5.19-4.86,9.91-4.93,15.33,0,5.88,3.37,11.15,2.27,17.15s-7.5,9.4-9.37,15.18c-1.65,5.18,1.55,10.89,1.27,16.19a36.56,36.56,0,0,1-3.35,11.7c-2.12,5.19-1.88,7.92-8.16,5.71"/><path class="cls-5" d="M235.68,134.39l2.84-5s7.26,4.77,6.94,11.29c0,0,7.87-24,16.75-24.3L249.39,164l-5.34.75Z"/><path class="cls-6" d="M259.19,60.53s-.13,9.14,0,13.08a28.06,28.06,0,0,1-1.87,8.06,42.9,42.9,0,0,1-4.07,8.48,19.45,19.45,0,0,0-2.85,9.22,29.65,29.65,0,0,0,1.69,8.41,21.9,21.9,0,0,1,1.24,8.16,21,21,0,0,1-3.75,9.08,30.19,30.19,0,0,0-4.53,9.3c-1,4.54.58,9.24.75,13.82a52.54,52.54,0,0,1-2,14.3.55.55,0,0,0,.45.65.61.61,0,0,0,.71-.41,53.33,53.33,0,0,0,2-14.57c-.17-4.48-1.75-9.09-.77-13.57a29,29,0,0,1,4.38-8.95,22.22,22.22,0,0,0,4-9.53,22.78,22.78,0,0,0-1.28-8.53,29.31,29.31,0,0,1-1.65-8.15,18.28,18.28,0,0,1,2.74-8.72A43.74,43.74,0,0,0,258.5,82a28.58,28.58,0,0,0,1.87-8.34V61.19a7,7,0,0,0-.5-.61.35.35,0,0,0-.28-.09h-.19Z"/><path class="cls-7" d="M252.92,164.75H245a29.27,29.27,0,0,1-.42-5.61c-.67-4.43-1-9.7,2-13.49,1.43-1.72,3.47-3.16,4.35-5.27,1.87-4.54,1.2-9.66,3.33-14.26,1.88-4,5.93-5.94,8.49-9.43,3.13-4.26,4.31-9.65,7-14.16,3.28-5.6,12.07-15.16,20-15.12.79,0-.13,4.35-.13,5,0,5.27.81,10.56-1.63,15.55-3,6-9.52,9.63-12.57,15.56-2.85,5.53-1.3,13-5.4,17.89-3.32,4-9.37,4.63-12.91,8.31C252.58,154.26,253.63,161.4,252.92,164.75Z"/><path class="cls-6" d="M288.86,87.42a3.47,3.47,0,0,1,.91,0c.17.12.19.35.23.57h0a28.66,28.66,0,0,0-6.71,7.76,47.49,47.49,0,0,0-3.17,8.65,26.73,26.73,0,0,1-4,8.64c-3.22,4.27-7.92,7.38-10.62,12.1a36.55,36.55,0,0,0-2.74,6.91,24.7,24.7,0,0,1-3.2,7c-4.2,5.84-11.34,8.45-11.08,25.7a.57.57,0,0,1-.6.55h0a.6.6,0,0,1-.6-.53c-.26-17.65,7-20.35,11.25-26.33a24.26,24.26,0,0,0,3.07-6.74,35.51,35.51,0,0,1,2.83-7.14c2.7-4.7,7.5-7.84,10.7-12.1a26,26,0,0,0,3.75-8.26,48.54,48.54,0,0,1,3.24-8.81,31.38,31.38,0,0,1,6.61-7.82S288.82,87.42,288.86,87.42Z"/><path class="cls-8" d="M249.43,164.75h2.12s.09-11.92-7.24-13.37l-.16,1.93A16.74,16.74,0,0,1,249.43,164.75Z"/><path class="cls-7" d="M241.39,166.27a16.18,16.18,0,0,1-4.27-4.66c-1.67-3.3-1-7.49-3.62-10.37-3.39-3.7-9.27-4.44-12.2-8.73s.45-8.56-3.74-13.73c-3.64-4.56-6.11-9-4.73-14.84.25-1.09.81-4,2-4.63a21.76,21.76,0,0,1,3.45,1.72,24.87,24.87,0,0,1,9.89,8.13c2.34,3.63,1.63,7.71,3.39,11.44,1.63,3.46,6.41,4,8.38,7.35,2.17,3.69.43,7.34,1.37,11.14.67,2.75,3.75,4.65,5.24,7a18.18,18.18,0,0,1,2.63,7.49c0,.33.35,2.11,0,2.37"/><path class="cls-6" d="M215,109.32c-.19,0-.43.26-.7.59l.1.14c4.93,5.37,6.16,9.3,8.34,13.74a31.3,31.3,0,0,1,2.1,6.91,31.17,31.17,0,0,0,2.28,7.21,11.15,11.15,0,0,0,5,4.36,8,8,0,0,1,4.16,5c1.88,6.44,3.36,8.21,4.41,11.89a7.68,7.68,0,0,0,3.22,4.49,5.22,5.22,0,0,1,2.25,4.08.57.57,0,0,0,.57.58.58.58,0,0,0,.63-.52.44.44,0,0,0,0-.16,6.1,6.1,0,0,0-2.64-4.79,6.7,6.7,0,0,1-2.87-4c-1.05-3.68-2.55-5.44-4.4-11.89a9,9,0,0,0-4.67-5.6,10.28,10.28,0,0,1-4.57-3.91,28.65,28.65,0,0,1-2.19-6.91,31.66,31.66,0,0,0-2.2-7.26c-2.17-4.46-3.44-8.4-8.28-13.83A2.31,2.31,0,0,0,215,109.32Z"/><path class="cls-2" d="M231.33,212a5,5,0,0,1,1.2-2.16,7.43,7.43,0,0,1,4.05-2,13.49,13.49,0,0,1,2.54-.24,8.55,8.55,0,0,1,3.53-5.55,9,9,0,0,1,5.32-1.38,14,14,0,0,1,4.44.88,1.24,1.24,0,0,1,.72,1.67,1.44,1.44,0,0,1-1.81.67,11.16,11.16,0,0,0-3.44-.66,6.16,6.16,0,0,0-3.6.88,6.69,6.69,0,0,0-2.63,5,1.37,1.37,0,0,1-1.53,1.09,11.88,11.88,0,0,0-3,.14,4.6,4.6,0,0,0-2.51,1.21,2.35,2.35,0,0,0-.36.47Zm35.73-1.73a8.35,8.35,0,0,0-4.25-1.44,16,16,0,0,0-4.48.28h0a1.38,1.38,0,0,1-1.62-1,1.27,1.27,0,0,1,.93-1.46,18.67,18.67,0,0,1,5.43-.35,11.77,11.77,0,0,1,5.14,1.59A24.91,24.91,0,0,1,267.06,210.3Zm-47.2-15a12,12,0,0,1,6.77-1.57,13.6,13.6,0,0,1,8.88,4.77,1.21,1.21,0,0,1-.13,1.73,1.47,1.47,0,0,1-1.88-.12,11,11,0,0,0-7-3.92,10.07,10.07,0,0,0-6.84,2.31A28.71,28.71,0,0,1,219.86,195.29Zm46.49-9.62a16.91,16.91,0,0,1,1.58,2.12,2.6,2.6,0,0,0-.36.3c-1.44,1.36-2.59,4.09-1.87,9.37a1.33,1.33,0,0,1-1.22,1.41,1.37,1.37,0,0,1-1.54-1.12c-.84-6.48.9-9.77,2.68-11.44A7.43,7.43,0,0,1,266.35,185.67Zm-35.81,1.93a1.15,1.15,0,0,1-.39.78,1.45,1.45,0,0,1-1.88,0,1.35,1.35,0,0,1-.45-1.07,3,3,0,0,1,1.28-1.92,11,11,0,0,1,9.5-2,9.6,9.6,0,0,1,5.75,5.89,11.51,11.51,0,0,1,2.46-.76,5.86,5.86,0,0,1,4.87,1.06,6.39,6.39,0,0,1,2,3.45,1.28,1.28,0,0,1-1,1.54,1.39,1.39,0,0,1-1.66-.91v0a3.85,3.85,0,0,0-1.17-2.09,2.89,2.89,0,0,0-2.49-.45,9.45,9.45,0,0,0-3,1.14,1.44,1.44,0,0,1-1.23.15,1.38,1.38,0,0,1-.87-.83,8.41,8.41,0,0,0-4-5.44,7,7,0,0,0-6.37.62A9.69,9.69,0,0,0,230.54,187.6Zm31.75-18.46a7.62,7.62,0,0,0-4.69.92,6.89,6.89,0,0,0-2.89,4.42,1.32,1.32,0,0,1-1.36,1,4.13,4.13,0,0,0-3.28,1.36,3.79,3.79,0,0,0-.38,3,1.31,1.31,0,0,1-1.27,1.38,1.38,1.38,0,0,1-1.44-.93,6,6,0,0,1,.78-4.84,6.66,6.66,0,0,1,4.52-2.42,8.76,8.76,0,0,1,3.75-5.18,10.76,10.76,0,0,1,6.57-1.28A12.37,12.37,0,0,1,262.29,169.14ZM229.49,168a11.94,11.94,0,0,1,4.61,2.76,7.18,7.18,0,0,1,1.52,6.36,1.28,1.28,0,0,0,1.08,1.49h0a1.4,1.4,0,0,0,1.61-1c1.74-9-7.84-12.1-7.84-12.1-.73-.22-.89.52-1.14,1.2s-.6,1.1.13,1.33Z"/></g><g id="CHAIR"><path class="cls-9" d="M86,181.23h50.86l36,.2a.61.61,0,1,1,0,1.21l-36-.2H85.28l-.66-.64c3.49-51.08-1.23-77.18-8.18-90.11-4-7.55-8.85-10.52-13.12-11.34a17.67,17.67,0,0,0-11.77,2.34h0a.66.66,0,0,1-.89-.11l0,0a.59.59,0,0,1,.15-.85h0a19.07,19.07,0,0,1,12.8-2.54c4.61.87,9.78,3.94,14.11,12C84.61,104.12,89.42,130.18,86,181.23Z"/><path class="cls-9" d="M117.66,81.15l27.43,1.31c8.74.42,16.11,6.17,18,14.06A258.39,258.39,0,0,1,168,135.37a.66.66,0,0,0,.72.57.63.63,0,0,0,.61-.66,260.61,260.61,0,0,0-5-39c-2-8.43-9.87-14.57-19.21-15l-27.43-1.32a.62.62,0,0,0-.55.72.64.64,0,0,0,.55.51Z"/><path class="cls-9" d="M229.46,217.42,231,200.55c.82-9.18-6.58-17.24-16.54-18-.49,0-1-.06-1.46-.06l-41,.14a2.12,2.12,0,0,1-2.21-2v0c-.17-18.17-.73-33.05-1.58-45.25a.66.66,0,0,1,.73-.57.66.66,0,0,1,.6.48c.83,12.22,1.41,27.14,1.56,45.34a.87.87,0,0,0,.9.81l41-.14c10.71,0,19.43,7.94,19.48,17.82,0,.51,0,1-.07,1.54-.79,8.82-1.54,17.43-1.54,17.43a.64.64,0,0,1-.65.55L78,219.91C67.52,220,58.37,213.36,56,204c-1.08-4.27-2.34-9.24-3.74-14.72-5.63-22.83-12.8-54.29-16.51-78.85C33.33,94.55,45.33,80,62.49,77.77a33.93,33.93,0,0,1,6-.23l49.3,2.35a.67.67,0,0,1,.78.51.63.63,0,0,1-.55.72h-.23l-49.3-2.37c-16.53-.91-30.72,10.72-31.7,26a25.33,25.33,0,0,0,.24,5.5C40.74,134.75,47.9,166.15,53.48,189q2,8.19,3.75,14.71c2.25,8.86,10.87,15.1,20.74,15Z"/><path class="cls-9" d="M177.34,182.64a13.49,13.49,0,0,1,11.25,6.29c3.11,5,3.56,13.73-4,29a.62.62,0,0,0,.34.82.69.69,0,0,0,.88-.31c7.85-15.81,7.18-24.89,3.94-30.07a14.76,14.76,0,0,0-12.41-6.91.64.64,0,0,0-.67.62.65.65,0,0,0,.67.62h0Z"/><path class="cls-9" d="M69.41,218.33l.82,3.77S72,231,73,236.34a5.76,5.76,0,0,0,5.8,4.46h0a5.79,5.79,0,0,0,5.85-4.59l3-16.87a.64.64,0,0,0-.61-.68.67.67,0,0,0-.72.49l-3,16.87a4.51,4.51,0,0,1-4.52,3.56h0a4.45,4.45,0,0,1-4.47-3.46l-2.8-14.33h0L70.72,218a.67.67,0,0,0-.72-.58.65.65,0,0,0-.63.67,1.24,1.24,0,0,0,0,.16Z"/><path class="cls-9" d="M210.68,218.33l3.62,18.45a5.75,5.75,0,0,0,5.79,4.47h0a5.8,5.8,0,0,0,5.86-4.59c1.13-6.43,3.22-18.24,3.22-18.24a.63.63,0,0,0-.56-.71.65.65,0,0,0-.76.49h0s-2.08,11.81-3.22,18.26a4.53,4.53,0,0,1-4.53,3.56h0a4.48,4.48,0,0,1-4.48-3.46L212,218.13a.66.66,0,0,0-.78-.5h0A.62.62,0,0,0,210.68,218.33Z"/><path class="cls-9" d="M203.09,182.63c5.17,1.17,10.14,1.53,13.92,8.4a18,18,0,0,1,1.75,9.48c0,4.24-.72,9.7-1.58,17.19a.64.64,0,0,0,.59.69h0a.66.66,0,0,0,.73-.56c.86-7.53,1.52-13,1.59-17.28a19.16,19.16,0,0,0-1.87-10.08c-4-7.33-9.27-7.79-14.8-9.05a.68.68,0,0,0-.81.44A.63.63,0,0,0,203.09,182.63Z"/><path class="cls-9" d="M191.19,182.63c5.17,1.17,10.46,1.53,14.26,8.4a18.12,18.12,0,0,1,1.74,9.48c-.09,4.24-.73,9.7-1.59,17.19a.64.64,0,0,0,.59.69h0a.65.65,0,0,0,.73-.53v0c.88-7.53,1.52-13,1.59-17.28a19,19,0,0,0-1.87-10.08c-4.05-7.33-9.59-7.79-15.12-9.05a.65.65,0,0,0-.8.43h0A.64.64,0,0,0,191.19,182.63Z"/></g><g id="DOG"><path class="cls-10" d="M29.16,235.27s5.24-21,23.87-22.47H93.81s-.36-4.56,4-4.4a32.17,32.17,0,0,0,6.65-.3s1.74-3.2,2.44-4.54c.32-.59-6.19-4.55-5.14-5.59,0,0,3.06-1.57,8.66,1l15.29-1.36-3-7.49s.21-4.34,8.09,1.49c0,0,9.84,7.6,11.68,24.59l-.15,19.9s16.64,5,16.68,9.37a1.06,1.06,0,0,1-.32.74,1.19,1.19,0,0,1-.81.29h-3.75a7.39,7.39,0,0,1,1.65,2.18,1.45,1.45,0,0,1-.89,1.93,1.57,1.57,0,0,1-.64.11L65,247.91s9.37,6.69,7.74,10.21h0a4.57,4.57,0,0,1-4.89,1.73L66,259.37l-36.86-19H0S.22,235.26,29.16,235.27Z"/><path class="cls-11" d="M122.51,233.68s27.19,10.08,32.05,13.42a1.52,1.52,0,0,1,.26.13l-.58-.65h1.37l-.3-.21c-5.12-3.46-32.37-13.69-32.37-13.69a.6.6,0,0,0-.75.29v0a.51.51,0,0,0,.33.69Z"/><path class="cls-11" d="M143.61,236.47l-1.18-.25V241a.56.56,0,0,0,.6.52h0a.56.56,0,0,0,.58-.54h0Z"/><path class="cls-11" d="M62.29,243.83c1,.95,4.38,4.08,4.38,4.08s-1.44.12-1.67-.09a51,51,0,0,0-3.87-3.46.47.47,0,0,1-.31-.62.2.2,0,0,1,0-.08c3.75-7.73,3.54-13,1.88-16.56a13.53,13.53,0,0,0-8.1-6.78.54.54,0,0,1-.32-.72.6.6,0,0,1,.66-.33,14.66,14.66,0,0,1,8.83,7.38C65.55,230.43,66,235.9,62.29,243.83Z"/><path class="cls-11" d="M97.2,218.65c.22,0,3.61,1.24,13.11,1.07a.58.58,0,0,1,.62.53h0a.6.6,0,0,1-.58.56c-10.1.19-13.53-1.16-13.53-1.16h0a6.06,6.06,0,0,1-3.2-3.46,12.74,12.74,0,0,1-.64-3.46h1.18a11.58,11.58,0,0,0,.56,3A5,5,0,0,0,97.2,218.65Z"/><path class="cls-11" d="M111.16,204.11a7.71,7.71,0,0,1-5.85,2.87h-.24l-.64,1.12h.28c5.62-.27,7.5-3.45,7.5-3.45a.54.54,0,0,0-.25-.75.61.61,0,0,0-.79.19Z"/><path class="cls-11" d="M110.41,199.05l-1.24-.54-3,4.13a2.53,2.53,0,0,1,.76.9Z"/><path class="cls-11" d="M128.62,196.64l-3.35-.08.47,1.15h2.88a.56.56,0,0,0,.49-.64.58.58,0,0,0-.49-.44Z"/><path class="cls-11" d="M100.29,208.57s1.74,8.64-6.37,6.34c0,0-1.18-5.72,2.57-6.34A10.12,10.12,0,0,1,100.29,208.57Z"/><path class="cls-11" d="M134.47,221.32a7.88,7.88,0,0,1,3.75-5.08,4.93,4.93,0,0,1,4.42-.45.52.52,0,0,1,.26.73.6.6,0,0,1-.79.24,3.65,3.65,0,0,0-3.29.42,6.89,6.89,0,0,0-3.38,4.77,4.68,4.68,0,0,1,1.88,2.71,2.56,2.56,0,0,1,0,1.23,1.39,1.39,0,0,1-2.59.36,4.5,4.5,0,0,1-.62-2.63,9.24,9.24,0,0,1,.1-1.17l-.47-.21a5.09,5.09,0,0,0-5.77,1.38,10.34,10.34,0,0,0-2.65,5.83,23,23,0,0,0-.11,3.21v.87a.47.47,0,0,1,0,.53.62.62,0,0,1-.82.14.64.64,0,0,1-.3-.47v-1a25.16,25.16,0,0,1,.11-3.36,11.34,11.34,0,0,1,2.94-6.43,6.16,6.16,0,0,1,7.1-1.72Zm.88,2a1.82,1.82,0,0,0,0,.33,3.42,3.42,0,0,0,.45,2l.17.19h.11a.53.53,0,0,0,.17-.36,1.83,1.83,0,0,0,0-.66A3.3,3.3,0,0,0,135.35,223.31Z"/></g><g id="CHARACTER"><path class="cls-1" d="M79.15,56.92S76,51.23,71.86,55c0,0-1.48,2.21,1.88,6.63l-7.41,13.3s-8,.83-12,1.27C46.83,77,34.12,78,28.65,85.37,24.9,90.45,24.9,95,24.9,99c6.58,21.45,13.12,42.9,17.92,68.79,0,0,4.83,16.33,22,16.68,15.76.29,65.17-3.55,66.8-2.39l-.13-3.87h5.11l.47,1s13.35,1.9,18.12,8.24l27.38-2s-.79-5.47-4.16-7.39h9L214.82,244h43.47a21.13,21.13,0,0,0-6.82-4.2l-31-81.84s-8.32-21.35-41.82-20.33l-.43-6s22.05-.76,24.36-14.64c0,0,7.19-17.56-23.73-31.25l-.22-19.7s-3.75-14-12.52-16.46c0,0-12.22-4.28-21.14-1.4a54.46,54.46,0,0,0-11.15,9.06L115.73,77.73l-29.27-.18V75.31s6.69-.54,8.41-4l5.29-9.68S92.12,46.53,79.15,56.92Z"/><path class="cls-11" d="M161.9,183.26a10.21,10.21,0,0,1,1.2,3.6.66.66,0,0,0,.73.55.63.63,0,0,0,.6-.68h0a11.23,11.23,0,0,0-1.37-4.06.7.7,0,0,0-.9-.24.58.58,0,0,0-.28.81Z"/><path class="cls-11" d="M167.52,182.71a10.14,10.14,0,0,1,1.2,3.6.68.68,0,0,0,1.35,0,.39.39,0,0,0,0-.15,11.59,11.59,0,0,0-1.35-4.06.72.72,0,0,0-.91-.25.6.6,0,0,0-.27.85Z"/><path class="cls-11" d="M172.4,182.12a10.65,10.65,0,0,1,1.21,3.6.69.69,0,0,0,.82.46.63.63,0,0,0,.51-.58,11.44,11.44,0,0,0-1.36-4.08.7.7,0,0,0-.9-.24A.6.6,0,0,0,172.4,182.12Z"/><path class="cls-11" d="M97.37,60.49A23.84,23.84,0,0,1,94.05,48.4c.17-14.7,13.23-26.49,29.17-26.33,15.43.16,28,11.48,28.53,25.7-2.42.19-6.21,1.21-11.87,4.45,0,0-1.34,0-21.28,22A29.36,29.36,0,0,1,99.18,63.24l1.3-2Z"/><path class="cls-12" d="M124.29,136.94h5.63l1.7,45.1-63,2.31h.43c5.51-1.17,16.86-4.61,31-13.94C110,163.79,113.33,152.33,124.29,136.94Z"/><path class="cls-13" d="M90.15,183.56a1.1,1.1,0,0,1,.53-1.09l4.48-2.71a1.23,1.23,0,0,1,1.63.3,1,1,0,0,1-.32,1.51h0l-3,1.85Zm13.12-.49h0a1.09,1.09,0,0,1,.9-1.29h0l5.24-1a1.2,1.2,0,0,1,1.41.86,1.07,1.07,0,0,1-.66,1.21Zm12.82-.48h0a1,1,0,0,1,.12-1.53h0l4.08-3.2A1.29,1.29,0,0,1,122,178a1.06,1.06,0,0,1-.15,1.55l-3.84,3Zm10.47-.43-.37-.12a1.07,1.07,0,0,1-.72-1.39h0A1.24,1.24,0,0,1,127,180l4.63,1.59v.36ZM88,180.08h0a1.14,1.14,0,0,1-1.11,1.16l-2.26.11.93-.35a23.65,23.65,0,0,0,2.38-.92Zm12.67-8.14,3.33,2.92a1,1,0,0,1,0,1.54,1.26,1.26,0,0,1-1.68,0l-3.47-3a18.6,18.6,0,0,0,1.7-1.46Zm14,1.73-5.08-1.57a1.22,1.22,0,0,0-1.5.69,1.08,1.08,0,0,0,.75,1.38l5.08,1.58a1.21,1.21,0,0,0,1.5-.7,1.07,1.07,0,0,0-.75-1.38Zm7.93-3.07,3.47,3.76a1.22,1.22,0,0,0,1.63.17l0,0a1,1,0,0,0,.16-1.53h0l-3.46-3.78a1.24,1.24,0,0,0-1.64-.15l0,0a1,1,0,0,0-.21,1.48Zm-4.57-2-1-4.86a1.18,1.18,0,0,0-1.38-.87h0a1.12,1.12,0,0,0-1,1.28l1,4.86a1.2,1.2,0,0,0,1.39.87,1.11,1.11,0,0,0,.94-1.28Zm-10.44-4.08.77.19a1.09,1.09,0,0,1,.75,1.38,1.21,1.21,0,0,1-1.48.71h0l-1.46-.45c.43-.66.91-1.25,1.38-1.88Zm23.27,1.17a1.22,1.22,0,0,1-.8,0l-5-1.86a1.09,1.09,0,0,1-.64-1.44,1.2,1.2,0,0,1,1.51-.6h0l4.8,1.73Zm-18.74-8.24,4.54-1.85a1.22,1.22,0,0,1,1.56.56,1.06,1.06,0,0,1-.61,1.44l-5.06,2a1,1,0,0,1-1.32-.26.64.64,0,0,1-.08-.14s.62-1.19.84-1.81ZM123.53,153l-1.88,4.62a1.07,1.07,0,0,0,.69,1.41,1.21,1.21,0,0,0,1.52-.63l1.88-4.62a1.08,1.08,0,0,0-.69-1.41A1.21,1.21,0,0,0,123.53,153Zm6.91-2.31A1.11,1.11,0,0,1,130,150l-1.15-4.83a1.07,1.07,0,0,1,.87-1.29h0a1.14,1.14,0,0,1,.45,0Zm-12.84-2a1.07,1.07,0,0,1,.3.75,1.16,1.16,0,0,1-1.21,1.07h-.17Zm7-8.54-3.48,3.75a1,1,0,0,0,.13,1.54,1.23,1.23,0,0,0,1.64-.09l0,0,3.49-3.75a1.06,1.06,0,0,0-.17-1.57,1.28,1.28,0,0,0-1.7.15Z"/><path class="cls-14" d="M36.33,138.15,42.44,166c2.42,11,13.16,18.86,25.38,18.45,14.29-.49,32.41-5.93,44.35-27.11l-17.28-16c-7,4-12.33,8-21.9,13.91C57.7,161.5,43.47,158,36.33,138.15Z"/><path class="cls-7" d="M78.66,183l-2.52.52-.27-.33a1,1,0,0,1,.36-1.5,1.25,1.25,0,0,1,1.52.19Zm-20.91-.15,1.41-2.27a1.23,1.23,0,0,1,1.56-.54h0a1.08,1.08,0,0,1,.58,1.45l-.84,2.14A16,16,0,0,1,57.75,182.87Zm11-3,5.32-.67a1.11,1.11,0,0,0,1-1.23,1.15,1.15,0,0,0-1.33-.93l-5.32.67a1.12,1.12,0,0,0-1,1.23,1.17,1.17,0,0,0,1.33.93Zm22.8-1.64-2.32.36a1.14,1.14,0,0,1-1.22-1.05,1.13,1.13,0,0,1,1-1.11l5.34-.52c.47,0,.62-.1.84.26A38.89,38.89,0,0,1,91.59,178.22ZM46.28,174.4a.91.91,0,0,1,.42-.73,1.26,1.26,0,0,1,1.66.15h0l3.38,3.83a1,1,0,0,1-.16,1.54h0l-.3.14a23.15,23.15,0,0,1-5-4.94Zm33.34-2.27.71,4.9a1.19,1.19,0,0,0,1.33.95,1.12,1.12,0,0,0,1-1.23h0L82,171.84a1.16,1.16,0,0,0-1.33-.93A1.11,1.11,0,0,0,79.62,172.13Zm-22.71,2.2,5,1.73a1.23,1.23,0,0,0,1.54-.62,1.06,1.06,0,0,0-.68-1.42l-5-1.73a1.2,1.2,0,0,0-1.52.63,1.07,1.07,0,0,0,.68,1.41Zm14.22-3.46L67.76,167a1.26,1.26,0,0,0-1.66-.17h0a1,1,0,0,0-.19,1.53h0l3.4,3.83a1.26,1.26,0,0,0,1.68.18,1.06,1.06,0,0,0,.19-1.56h0Zm19.6-.45-3.09-4a1.28,1.28,0,0,0-1.67-.26,1.05,1.05,0,0,0-.28,1.52l3.11,4a1.23,1.23,0,0,0,1.59.47,1.05,1.05,0,0,0,.51-1.47,1.18,1.18,0,0,0-.22-.28Zm5.89-4.73-.73,4.89a1.09,1.09,0,0,0,.86,1.34,1.21,1.21,0,0,0,1.46-.8,1.57,1.57,0,0,0,0-.23L99,166a1.11,1.11,0,0,0-1-1.23,1.16,1.16,0,0,0-1.33.94Zm-19.68,2.52,1.87-4.6a1.08,1.08,0,0,0-.67-1.41,1.2,1.2,0,0,0-1.53.61h0l-2,4.6a1.06,1.06,0,0,0,.67,1.41,1.23,1.23,0,0,0,1.54-.62Zm-25.65-1.87-5.36.09a1.09,1.09,0,1,0,0,2.18h5.36a1.15,1.15,0,0,0,1.16-1.13,1.12,1.12,0,0,0-1-1.2h-.12Zm6.44-4,1.35,4.78a1.18,1.18,0,0,0,1.41.79h0a1.09,1.09,0,0,0,.84-1.33h0L60,161.83a1.2,1.2,0,0,0-1.44-.78,1.1,1.1,0,0,0-.85,1.34Zm48.09,4.09-2.59-3a1,1,0,0,1,.21-1.54,1.27,1.27,0,0,1,1.67.19l2.28,2.44ZM41,159.34l3.49,1.73a1.06,1.06,0,0,1,.47,1.49,1.25,1.25,0,0,1-1.62.43h0l-1.72-.9c-.19-.79-.47-1.85-.62-2.68Zm49.6-1.72-4.29,2.93a1.05,1.05,0,0,0-.24,1.54,1.23,1.23,0,0,0,1.62.25l0,0,4.31-3a1,1,0,0,0,.24-1.52,1.27,1.27,0,0,0-1.67-.14ZM52,157.2a20.39,20.39,0,0,0,2.43.69l-.22.26L51,162.09a1.25,1.25,0,0,1-1.62.46,1.07,1.07,0,0,1-.5-1.5,1.13,1.13,0,0,1,.24-.29ZM68.41,157,71,160a1.06,1.06,0,0,1-.19,1.56,1.27,1.27,0,0,1-1.69-.18h0l-3.27-3.73a12.06,12.06,0,0,0,2.52-.59ZM100,159.1l1.87-4.65a1.07,1.07,0,0,0-.71-1.4,1.22,1.22,0,0,0-1.52.66h0l-1.87,4.63a1.08,1.08,0,0,0,.7,1.41A1.22,1.22,0,0,0,100,159.1Zm10.83.38L106.4,159a1.14,1.14,0,0,1-1.12-1.15,1.15,1.15,0,0,1,1.24-1l.14,0,5.27.58a20.44,20.44,0,0,1-1.09,2.2Zm-27.55-3.09-5.3-.78a1.16,1.16,0,0,0-1.34.87v0a1.1,1.1,0,0,0,1,1.26h0l5.3.78a1.2,1.2,0,0,0,1.35-.92,1.1,1.1,0,0,0-1-1.16ZM42.07,150a24.88,24.88,0,0,0,3,3.11l.49,1.73a1.08,1.08,0,0,1-.84,1.33,1.2,1.2,0,0,1-1.45-.77h0L42,150.6a1.51,1.51,0,0,1,0-.52Zm42.31-1.88,3.2,2a1.05,1.05,0,0,1,.32,1.52,1.23,1.23,0,0,1-1.63.3h0l-3.91-2.44a19.3,19.3,0,0,0,2-1.31Zm14.69-.8-5.13,1.44a1.08,1.08,0,0,0-.79,1.36,1.2,1.2,0,0,0,1.48.73l5.13-1.43a1.09,1.09,0,0,0,.79-1.37,1.19,1.19,0,0,0-1.52-.58h0ZM97,143.11a2.14,2.14,0,0,1-.71.3L91,143.7c2.34-1.45,3.93-2.47,3.93-2.47Z"/><path class="cls-15" d="M115.64,77.73H104.71s-17.91,19-46.43-2.46L43.66,76.9C31.94,78.21,23.59,88,25,98.85a16.3,16.3,0,0,0,.36,2c2.63,10.8,5.29,21.68,5.29,21.68l35.13-9,1.54,5.9s17.5-12.27,23.14-13.23Z"/><path class="cls-1" d="M34.5,114.37a2.35,2.35,0,0,1,2.26,2.49A2.4,2.4,0,0,1,34.5,119a2.45,2.45,0,0,1-2.7-2.09,2.36,2.36,0,0,1,2.27-2.49A3.08,3.08,0,0,1,34.5,114.37Zm16.15,3.06a8.94,8.94,0,0,1-1.46-9.94,7.55,7.55,0,0,1,6.26-4.68,1.14,1.14,0,0,1,1.23,1A1.12,1.12,0,0,1,55.56,105a5.24,5.24,0,0,0-4.2,3.36,7,7,0,0,0,1.88,8.42Zm34-14.71a7.84,7.84,0,0,0-6.82-1.54c-5.61,1-9.29,6-8.22,11.16v.06a1.19,1.19,0,0,0,1.38.89A1.11,1.11,0,0,0,72,112c-.84-4,2-7.87,6.34-8.64h0a5.3,5.3,0,0,1,4.63.91,1.22,1.22,0,0,0,1.64,0l0,0a1,1,0,0,0,.07-1.54Zm-5.88,8.85a2.24,2.24,0,0,1-1.3-3,2.52,2.52,0,0,1,2.25-1.39,2.41,2.41,0,0,1,2.5,2.3v.09c-1.17.64-2.31,1.33-3.45,2ZM24.92,96.65a10.9,10.9,0,0,1,12.15,2.16A6.8,6.8,0,0,1,39.2,106a1.22,1.22,0,0,1-1.53.65,1.08,1.08,0,0,1-.7-1.41h0a4.66,4.66,0,0,0-1.65-4.91,8.42,8.42,0,0,0-10.23-1.23C25,98.3,25,97.48,24.92,96.65ZM93.79,84.11a9,9,0,0,1-2.65,11.13A8.16,8.16,0,0,1,83.33,97a1.06,1.06,0,0,1-.66-1.41h0a1.21,1.21,0,0,1,1.53-.61h0a5.63,5.63,0,0,0,5.36-1.4,6.94,6.94,0,0,0,1.87-8.83,16.82,16.82,0,0,0,2.35-.6Zm-43.33,7.5A2.41,2.41,0,0,1,53,93.84a2.5,2.5,0,0,1-5,.13v-.08a2.37,2.37,0,0,1,2.41-2.28ZM64.84,80c.71.39,1.44.76,2.09,1.07a6.29,6.29,0,0,0-1.64,2.87,7.2,7.2,0,0,0,4.76,8.83,1.07,1.07,0,0,1,.63,1.43,1.23,1.23,0,0,1-1.55.59C64.2,93,61.55,88,63,83.34A8.44,8.44,0,0,1,64.91,80Zm14,7.72A2.31,2.31,0,1,1,76.34,90a2.41,2.41,0,0,1,2.49-2.3Zm23.93,4a6.69,6.69,0,0,1-2.88-6.22,1.17,1.17,0,0,1,1.37-.89,1.11,1.11,0,0,1,1,1.27,4.52,4.52,0,0,0,2,4.13Zm-49.86-10A8.22,8.22,0,0,0,45.05,80c-5.14,1.17-8.48,5.75-7.7,10.58a1.15,1.15,0,0,0,1.31.95,1.09,1.09,0,0,0,1-1.18v0a7.4,7.4,0,0,1,6-8.21,5.66,5.66,0,0,1,5.45,1,1.3,1.3,0,0,0,1.72.14A1.06,1.06,0,0,0,53,81.69Zm58.69-2.51a2.22,2.22,0,0,1,.82,1.47l-2.21,2.52h-.32a2.41,2.41,0,0,1-2.51-2.31,2.15,2.15,0,0,1,.32-1.15Z"/><path class="cls-11" d="M103.85,78.59l.84-.83H86.22a.43.43,0,0,0-.45.41.42.42,0,0,0,.44.42h17.64Z"/><path class="cls-11" d="M85.64,79.51l1.64-4.39a.38.38,0,0,0-.23-.52l0,0a.44.44,0,0,0-.55.24v0l-1.67,4.39a.39.39,0,0,0,.24.52l0,0a.46.46,0,0,0,.58-.25Z"/><path class="cls-11" d="M78.61,70.61A36.52,36.52,0,0,0,83,73.94a8.89,8.89,0,0,0,11.75-1.87,7.77,7.77,0,0,0,.63-1c2.21-4.08,5.08-9.32,5.08-9.32a.41.41,0,0,0-.21-.57.49.49,0,0,0-.61.19l-5.08,9.32a7.81,7.81,0,0,1-10.06,3.08,8.44,8.44,0,0,1-1-.54A33.65,33.65,0,0,1,79.25,70a.51.51,0,0,0-.64,0,.4.4,0,0,0,0,.59Z"/><path class="cls-11" d="M79.41,58.49a10.08,10.08,0,0,0-1.14-3.35,4.12,4.12,0,0,0-2.64-2.09,4.43,4.43,0,0,0-2.89.38c-2.66,1.15-3.88,4.58,1.15,9a.48.48,0,0,0,.64,0,.39.39,0,0,0,0-.59c-4.29-3.79-3.74-6.66-1.38-7.64a3.09,3.09,0,0,1,4.07.88,2.59,2.59,0,0,1,.26.46,9.19,9.19,0,0,1,1,3.06A.45.45,0,0,0,79,59a.44.44,0,0,0,.4-.46Z"/><path class="cls-11" d="M72.52,60.7l-7.2,14.18a.42.42,0,0,0,.23.55.48.48,0,0,0,.6-.21l7.19-14.17a.41.41,0,0,0-.2-.56A.5.5,0,0,0,72.52,60.7Z"/><path class="cls-11" d="M59.29,76,66,75.17a.42.42,0,0,0,.39-.46h0a.41.41,0,0,0-.46-.36h0l-7.63,1Z"/><path class="cls-11" d="M87.23,67.27a.64.64,0,0,1,.47,0,1.65,1.65,0,0,1,.75.45,1.31,1.31,0,0,1,.37.74.39.39,0,0,1-.11.42.4.4,0,0,0,0,.6.46.46,0,0,0,.63,0h0a1.27,1.27,0,0,0,.43-.9,2.14,2.14,0,0,0-.62-1.45,2.42,2.42,0,0,0-1.46-.76,1.39,1.39,0,0,0-1,.3.38.38,0,0,0,0,.58.49.49,0,0,0,.64,0h0Z"/><path class="cls-11" d="M88.71,68.83a.49.49,0,0,1-.47,0,1.41,1.41,0,0,1-.75-.45,1.2,1.2,0,0,1-.37-.73.41.41,0,0,1,.11-.43.41.41,0,0,0,0-.59.48.48,0,0,0-.64,0,1.18,1.18,0,0,0-.43.9,2,2,0,0,0,.62,1.43,2.42,2.42,0,0,0,1.46.76,1.36,1.36,0,0,0,1-.28.39.39,0,0,0,0-.58h0A.48.48,0,0,0,88.71,68.83Z"/><path class="cls-11" d="M78.91,57.37a10.67,10.67,0,0,0,11.82-2,12.1,12.1,0,0,0,9.67,6.43,4.29,4.29,0,0,0,.53-4.42,23.94,23.94,0,0,0-5.63-6.43,13,13,0,0,0-19.15,2.93S77.88,53.27,78.91,57.37Z"/><path class="cls-11" d="M90.41,106.32,135,56.74a27.17,27.17,0,0,1,27.39-7.57h0c9.26,2.63,15.57,10.55,15.52,19.48,0,13.5-.19,30.94-.19,30.94a.57.57,0,0,0,.6.55h0a.57.57,0,0,0,.6-.53s0-17.46.17-31c0-9.42-6.6-17.75-16.36-20.51h0c-10.41-3-21.73.17-28.67,7.91-16.3,18.12-44.54,49.56-44.54,49.56a.49.49,0,0,0,0,.75l0,0a.62.62,0,0,0,.84,0A.38.38,0,0,0,90.41,106.32Z"/><path class="cls-11" d="M177.51,131.5v5.44l-.24,41.49a.59.59,0,0,0,1.18,0h0l.24-41.49V131.5a.55.55,0,0,0-.48-.64.59.59,0,0,0-.7.44A.67.67,0,0,0,177.51,131.5Z"/><path class="cls-11" d="M181.93,185.05a7.49,7.49,0,0,0-4.31-6.18.54.54,0,0,1-.3-.72.61.61,0,0,1,.77-.28h0a8.59,8.59,0,0,1,5.08,7.66.59.59,0,0,1-.56.57L155.23,188a.64.64,0,0,1-.47-.17s-8-7.81-17.71-8.07a.58.58,0,0,1-.56-.55l-.17-42.25a.59.59,0,0,1,.7-.44.57.57,0,0,1,.48.44l.17,41.73c9,.5,16.46,7,17.75,8.21Z"/><path class="cls-11" d="M137.5,136.94v-5.56a.56.56,0,0,0-.58-.54h0a.56.56,0,0,0-.58.54h0v5.55a.56.56,0,0,0,.49.64.58.58,0,0,0,.69-.44A.34.34,0,0,0,137.5,136.94Z"/><path class="cls-11" d="M137.2,88.7V83.1a.56.56,0,0,0-.59-.55.57.57,0,0,0-.6.55h0v5.6a.58.58,0,0,0,.58.56.56.56,0,0,0,.61-.5S137.21,88.72,137.2,88.7Z"/><path class="cls-11" d="M128.62,128.78l-17.33,27.66.95.85,17.39-28a.51.51,0,0,0-.19-.74h0A.63.63,0,0,0,128.62,128.78Z"/><path class="cls-11" d="M129.84,138.46l6.5-.27a.61.61,0,0,0,.7-.45.56.56,0,0,0-.49-.64h-.21l-6.5.26Z"/><path class="cls-11" d="M257,243.48a14.54,14.54,0,0,0-5.77-3.13.49.49,0,0,1-.39-.34l-29.76-78.45c-5.3-14-19.62-23.38-35.7-23.37h-6.86a.6.6,0,0,1-.69-.45.55.55,0,0,1,.48-.64h7.07c16.58,0,31.35,9.66,36.82,24.09l29.65,78.2a14,14,0,0,1,6.86,4.34.53.53,0,0,1,0,.57.6.6,0,0,1-.53.27l-44.05-1.73a.65.65,0,0,1-.57-.36l-28.72-69.91a.54.54,0,0,1,.22-.76.63.63,0,0,1,.82.21.47.47,0,0,1,.06.15l28.64,69.57Z"/><path class="cls-11" d="M200.39,149.91l6.93,4.21a.64.64,0,0,0,.85-.06.52.52,0,0,0-.07-.78.47.47,0,0,0-.12-.07L201.05,149a.66.66,0,0,0-.83.16.5.5,0,0,0,.15.74Z"/><path class="cls-11" d="M187.37,177.6h-9a.58.58,0,0,0-.69.44.55.55,0,0,0,.48.64.37.37,0,0,0,.21,0h9a.58.58,0,0,0,.69-.44.55.55,0,0,0-.48-.64A.37.37,0,0,0,187.37,177.6Z"/><path class="cls-11" d="M131.81,177.6h4.79a.58.58,0,0,1,.59.55.57.57,0,0,1-.57.55h-5.13v-1.07h.22Z"/><path class="cls-16" d="M124.59,125.64l13.7,4.89a2.32,2.32,0,0,0,2.47-.59,2.17,2.17,0,0,0,.77.28l1.2-.12-1,1.81a2.24,2.24,0,0,1-2.79.92l-15.86-6.57Zm30.27-20.86,4.79-8.65v2.74a1.52,1.52,0,0,1-.2.74l-3,5.55A2.46,2.46,0,0,0,154.86,104.78Z"/><path class="cls-17" d="M127.74,101.6l8.23-13a2.56,2.56,0,0,1,2.55-1.09A103.87,103.87,0,0,1,158.34,94a3.81,3.81,0,0,1,1,.67,1.37,1.37,0,0,1,.26,1.64l-4.74,8.44a7.12,7.12,0,0,0-3.41,1.09l-11.25,21.6s-.69,1.73.56,2.49a2.59,2.59,0,0,1-2.71.59l-13.57-4.93,1.87-.74,5.25-22.47Z"/><path class="cls-1" d="M157.46,97.48a1.23,1.23,0,0,0,0-1.15,1.44,1.44,0,0,0-.9-.82h-.15c-4-1.36-11.82-4.34-17.41-5.75a2.59,2.59,0,0,0-2.75,1.09c-3.36,5.39-14.75,23.74-18.18,29.29a1.46,1.46,0,0,0-.13,1.33,1.66,1.66,0,0,0,1,1l18.24,6.68a2.56,2.56,0,0,0,3.09-1.06Z"/><path class="cls-16" d="M152.36,92.68a.43.43,0,0,0-.28-.57l-7.49-2.46a.5.5,0,0,0-.61.25.43.43,0,0,0,.26.56h0l7.49,2.47A.49.49,0,0,0,152.36,92.68Z"/><path class="cls-11" d="M146.24,112.31l-.42.8-11-4,8.95-2.06c2.55-1.51.13-3.82.13-3.82-1.61.38-9.74-.43-12.44-.71l5.62-9.45,16.14,5.8-4,7.71c-1.74.4-5.94,1.73-5,4.48Z"/><path class="cls-18" d="M139.64,114.39a1,1,0,0,1,1.33,0,.83.83,0,0,1,.19.26,1.45,1.45,0,0,1-.75,1.54,4.48,4.48,0,0,1-2,.66,4.21,4.21,0,0,1-.77-1.73,1.48,1.48,0,0,1,.77-1.56,1,1,0,0,1,1.18.57A1,1,0,0,1,139.64,114.39Z"/><path class="cls-11" d="M154.48,96.36l-16-5.63-1,1.72,16.13,5.66Z"/><path class="cls-19" d="M141.33,120.9l-4.43,8.23-11.76-4.3,3.14-1.26c4.46-2.84,1.58-3.95,1.58-3.95a4.41,4.41,0,0,0,2.94-2.07Z"/><path class="cls-20" d="M161.58,85.11,157.35,89l1.87,1.73,4.5-2.83Zm-8.71,1.73,1.87,1.22L159,82.74l-3.75-1.57Zm-6.43-1.61,2.7.48,1.63-5.32L147,79.73Z"/><path class="cls-11" d="M62.14,95.18l4.38,24.34c0,.29.26-.17.6-.22a.57.57,0,0,0,.49-.63L63.32,95a.57.57,0,0,0-.66-.45h0A.56.56,0,0,0,62.14,95.18Z"/><path class="cls-11" d="M126.75,101a119,119,0,0,0,16.86,1.65,2.06,2.06,0,0,1,1.76,1.07,2.35,2.35,0,0,1-.41,2.81,9.45,9.45,0,0,1-5.09,2.48c-3.43.79-7.18,1.91-16.64.62a.55.55,0,0,1-.49-.62.57.57,0,0,1,.67-.45h0c9.18,1.26,12.84.15,16.16-.63a9.69,9.69,0,0,0,4.17-1.72,1.69,1.69,0,0,0,.72-1.54A1.21,1.21,0,0,0,144,104a.6.6,0,0,0-.32-.12,121.89,121.89,0,0,1-17.07-1.73h0c-14.07-3.08-27.77.45-39.13,5.77a111.28,111.28,0,0,0-29,20.14.64.64,0,0,1-.84,0,.5.5,0,0,1,0-.74l0,0A112,112,0,0,1,87,106.87C98.47,101.48,112.43,97.9,126.75,101Z"/><path class="cls-11" d="M132.5,110.38a2.67,2.67,0,0,1,.6.78,1.26,1.26,0,0,1,.11,1,2.48,2.48,0,0,1-1.38,1.24,23.39,23.39,0,0,1-8.12,1.61.55.55,0,0,0-.54.56v0a.59.59,0,0,0,.64.5,24.58,24.58,0,0,0,8.58-1.73,3.6,3.6,0,0,0,1.87-1.73,2.17,2.17,0,0,0-.09-1.73,3.7,3.7,0,0,0-.92-1.17.61.61,0,0,0-.82,0,.51.51,0,0,0,0,.76Z"/><path class="cls-11" d="M131.71,114.46a2.74,2.74,0,0,1,.9,2.24,2.79,2.79,0,0,1-1.74,1.73,19.43,19.43,0,0,1-6.54,1.45.57.57,0,0,0-.54.59.61.61,0,0,0,.65.5,24.43,24.43,0,0,0,6.06-1.16c2.45-.88,3.22-2.07,3.35-3.12a4.13,4.13,0,0,0-1.24-3,.62.62,0,0,0-.84-.1.51.51,0,0,0-.1.77l.08.09Z"/><path class="cls-11" d="M123.49,125.28c4.23-2,6-3.25,6.65-4.13a.73.73,0,0,0,.17-.54.43.43,0,0,0-.23-.23,1.68,1.68,0,0,0-.41-.17h0a.54.54,0,0,1-.36-.71.6.6,0,0,1,.61-.36,2.81,2.81,0,0,1,.8.33,1.44,1.44,0,0,1,.71.81,1.6,1.6,0,0,1-.3,1.44c-.65,1-2.55,2.43-7.14,4.54h0A226.67,226.67,0,0,0,78.2,152.65h0S64.7,161.73,52,157.32c-5.43-1.88-10.72-6.24-14.71-14.86h0L30.58,122.6l1.14-.31s6.43,19.27,6.64,19.79c3.75,8.26,8.82,12.46,14,14.26,11.92,4.14,24.61-4.26,25-4.53A228.62,228.62,0,0,1,123.49,125.28Z"/><path class="cls-11" d="M178.5,86.28a56.34,56.34,0,0,1,14.64,8.46c6.69,5.49,12.33,13.63,8,24.19-1.54,3.74-8.23,17.77-54.45,9.79a.6.6,0,0,0-.7.43.57.57,0,0,0,.49.64c47.41,8.19,54.19-6.64,55.77-10.48,4.51-11.08-1.34-19.61-8.34-25.39a58.85,58.85,0,0,0-15-8.64.64.64,0,0,0-.77.31A.53.53,0,0,0,178.5,86.28Z"/><path class="cls-11" d="M159.62,99.64l24.36.92a.6.6,0,0,0,.69-.45.55.55,0,0,0-.48-.64.74.74,0,0,0-.21,0l-24.36-.92a.58.58,0,0,0-.62.5v0a.57.57,0,0,0,.58.57Z"/><path class="cls-11" d="M154.05,105.66a2.08,2.08,0,0,1,2.59,1,1.8,1.8,0,0,1-1.14,2.37h0L147.36,112a.57.57,0,0,0-.34.71.63.63,0,0,0,.77.33l8.1-2.87a2.91,2.91,0,0,0,2.1-3.68,3.24,3.24,0,0,0-4-1.93,2.43,2.43,0,0,0-.38.13.54.54,0,0,0-.36.71A.64.64,0,0,0,154.05,105.66Z"/><path class="cls-11" d="M147.36,112a2.06,2.06,0,0,1-2.58-1.07,1.81,1.81,0,0,1,1.16-2.39h0l8.09-2.87a.53.53,0,0,0,.35-.7.61.61,0,0,0-.76-.32l-8.13,2.91a2.86,2.86,0,0,0-1.65,3.87,3.29,3.29,0,0,0,3.93,1.61.54.54,0,0,0,.34-.71A.61.61,0,0,0,147.36,112Z"/><path class="cls-11" d="M152.68,111.6a2.06,2.06,0,0,1,2.59,1.08,1.81,1.81,0,0,1-1.16,2.38L146,117.93a.54.54,0,0,0-.33.71.59.59,0,0,0,.74.32h0l8.12-2.87a2.85,2.85,0,0,0,1.64-3.87,3.28,3.28,0,0,0-3.93-1.61.54.54,0,0,0-.34.72.6.6,0,0,0,.77.32Z"/><path class="cls-11" d="M146,117.9a2,2,0,0,1-2.56-1.06h0a1.8,1.8,0,0,1,1.14-2.38l8.11-2.86a.54.54,0,0,0,.35-.71.62.62,0,0,0-.78-.32h0l-8.11,2.87a2.86,2.86,0,0,0-1.65,3.87,3.29,3.29,0,0,0,3.93,1.61.53.53,0,0,0,.35-.69v0A.61.61,0,0,0,146,117.9Z"/><path class="cls-11" d="M153.88,118.59a1.78,1.78,0,0,1-1.14,2.36h0l-8.1,2.86a.54.54,0,0,0-.31.73.62.62,0,0,0,.73.31l8.11-2.87a2.88,2.88,0,0,0,1.89-3.77l0,0a.6.6,0,0,0-.76-.31.54.54,0,0,0-.4.69Z"/><path class="cls-11" d="M144.64,123.82a2.05,2.05,0,0,1-2.59-1.06,1.81,1.81,0,0,1,1.15-2.39l8.11-2.87a2,2,0,0,1,2.57,1h0a.63.63,0,0,0,.82.21.54.54,0,0,0,.29-.6,3.25,3.25,0,0,0-4.06-1.75l-.05,0-8.09,2.87a2.85,2.85,0,0,0-1.58,3.89,3.29,3.29,0,0,0,3.85,1.58.53.53,0,0,0,.35-.7A.63.63,0,0,0,144.64,123.82Z"/><path class="cls-11" d="M152.5,124.53a1.79,1.79,0,0,1-1.15,2.37h0l-8.09,2.87a.53.53,0,0,0-.35.69v0a.57.57,0,0,0,.71.33l.06,0,8.09-2.87a2.85,2.85,0,0,0,1.89-3.74v0a.59.59,0,0,0-.75-.32h0a.54.54,0,0,0-.4.69Z"/><path class="cls-11" d="M143.26,129.77a2.08,2.08,0,0,1-2.59-1.05,1.83,1.83,0,0,1,1.16-2.39l8.1-2.85a1.93,1.93,0,0,1,2.48.85l.09.2a.61.61,0,0,0,.76.31.5.5,0,0,0,.36-.65.08.08,0,0,0,0,0,3.25,3.25,0,0,0-4.06-1.75l0,0-8.1,2.87a2.84,2.84,0,0,0-1.64,3.86,3.28,3.28,0,0,0,3.93,1.62.55.55,0,0,0,.34-.71A.65.65,0,0,0,143.26,129.77Z"/><path class="cls-11" d="M150.34,57.73,157.48,62a.62.62,0,0,0,.81-.13v0a.53.53,0,0,0-.16-.76L151,56.81a.67.67,0,0,0-.83.16.5.5,0,0,0,.15.74Z"/></g><g id="HAND-BUBBLE"><path class="cls-11" d="M64,37.3c-.35.14-.35.17-.71.29a30.08,30.08,0,0,1-10,1.73C39.84,39.32,29,30.78,29,20.21s11-19.12,24.36-19.12S77.67,9.63,77.67,20.21a17.28,17.28,0,0,1-7.18,13.51l-.63.49a.5.5,0,0,0-.12.74v0a.63.63,0,0,0,.82.12q.36-.26.69-.54a18.32,18.32,0,0,0,7.5-14.34C78.76,9.07,67.29,0,53.12,0S27.47,9.07,27.47,20.21s11.66,20.1,25.84,20.1a31.15,31.15,0,0,0,10.38-1.73c.4-.14.4-.16.77-.31a.53.53,0,0,0,.33-.7h0A.63.63,0,0,0,64,37.3Z"/><path class="cls-11" d="M72,44l-2.3-9.19a.59.59,0,0,1,1.13-.29v0l2.77,11a.51.51,0,0,1-.28.6.64.64,0,0,1-.71-.08l-8.75-7.85a.53.53,0,0,1,0-.78.66.66,0,0,1,.84,0Z"/><path class="cls-21" d="M54.25,20a5.23,5.23,0,0,1-6.49-3A4.65,4.65,0,0,1,51,11h0a1.68,1.68,0,0,0,.86-2.32,1.92,1.92,0,0,0-2-.93c-4.75,1.46-7.31,6.19-5.73,10.57S50.82,25,55.56,23.58a1.7,1.7,0,0,0,1.16-2.16,2,2,0,0,0-2.3-1.49Z"/><path class="cls-21" d="M51,10.92a5.25,5.25,0,0,1,6.49,3,4.67,4.67,0,0,1-3.25,6,1.67,1.67,0,0,0-.86,2.31,1.91,1.91,0,0,0,2,.94c4.74-1.46,7.31-6.19,5.72-10.57S54.44,5.85,49.69,7.31a1.71,1.71,0,0,0-1.16,2.16A2,2,0,0,0,50.83,11Z"/><path class="cls-21" d="M51.31,23l1.16,9.84a1.84,1.84,0,0,0,2.06,1.55,1.78,1.78,0,0,0,1.69-1.9l-1.17-9.85a1.83,1.83,0,0,0-2-1.56h0a1.59,1.59,0,0,0-1.72,1.41A1.11,1.11,0,0,0,51.31,23Z"/><path class="cls-21" d="M49.92,29.37l7.35-.66a1.78,1.78,0,0,0,1.67-1.91,1.85,1.85,0,0,0-2.07-1.55l-7.34.66a1.77,1.77,0,0,0-1.69,1.88v0a1.84,1.84,0,0,0,2.06,1.54Z"/></g></svg>