<svg id="Capa_1" data-name="Capa 1" xmlns="http://www.w3.org/2000/svg" viewBox="0 0 335.3 231.87"><defs><style>.cls-1{fill:#9fc1ea;}.cls-1,.cls-3,.cls-4,.cls-5,.cls-6{fill-rule:evenodd;}.cls-2{fill:#e8a646;}.cls-3{fill:#fb725f;}.cls-4{fill:#fff;}.cls-5{fill:#ffcf6f;}.cls-6,.cls-7{fill:#3b6bbf;}</style></defs><g id="BACKGROUND"><path class="cls-1" d="M193.47,199.07H335.3s-.24-5.95-7.81-10.38a22.49,22.49,0,0,0-12.33-3,49.22,49.22,0,0,1-7.77-.29A18.65,18.65,0,0,1,293.47,176c-3.45-6.11-10.6-14.62-23.34-13.92-5.29.31-12.29,2.64-27.54,19.88A30.57,30.57,0,0,1,216,188.8S198,187.36,193.47,199.07Z" transform="translate(0 0)"/><path class="cls-1" d="M0,203.31H128.87s-5.26-10.91-14.06-10.37c-7.65.44-13.09,2.95-20,.61C88.74,191.37,75.43,168.33,59,170c-5.58.54-14.64,1.72-21.67,11.19-3.79,5.15-7.76,11.06-19,8.25C8,186.81.79,191.72,0,203.31Z" transform="translate(0 0)"/></g><g id="Capa_2" data-name="Capa 2"><path class="cls-2" d="M149.16,51.68c0,8.31-1.81,12-13.88,13.73-2.66.39,8.1,17.8-1.09,25.44-7.11,5.89-10.5,8.09-26.18,8.09-17.76,0-44.89,23.48-43.23,18.11,2.18-7,9.19-71.5,7.64-71.48a.9.9,0,0,0-.59.22c-8,6.26-8-9.23-8.53-17.11-.24-3.6,4.71-7.11,9.4-11.52,5.41-5.08,11.13-5.82,14.23-.63,2.18,3.51,16.28-4.08,25.68,1.64,3.51,2.18,5.65,10,12.63,17,0,0,16.91-.35,22.91,3C149.18,38.74,149.16,47.58,149.16,51.68Z" transform="translate(0 0)"/><path class="cls-2" d="M218.19,125.78c-7,11.39-115.09,26.86-143.15,8.73S93.3,84.08,100.57,72.85c9.6-14.88,37.77-1.07,38.75-.64,5.45,2.47,9.36,9.43,21.49,14.45a51.18,51.18,0,0,0,5.24,1.9c3.12.91,3.49,2.18,10.23,3.73a107.09,107.09,0,0,0,16.19,2.81c16.91,1,27.45-4.78,32.58-.15S225.42,114.19,218.19,125.78Z" transform="translate(0 0)"/><path class="cls-2" d="M99.34,180.09s-1.94,27.17-3,40.48c-.13,1.74,1.35,2.59-.5,4.19s-5.94,1.06-11.13,1.06c-2.66,0-9.93.44-10.91-.69-1.7-1.86-.37-6.27,3-9.52,0,0,3.23-2.4,4.52-2.18,3.6.37,1.42.59,1.85-.28.2-.4.88-.81.79-1.2-.7-3-.48-6.13-.79-6.55-2.18-3.36-.65-7.46-2.77-18.31a71.88,71.88,0,0,1-1.13-9.81h0c-.61-2.06-1-3.08-1.57-5.46-.38-1.61-.68-3.27-1.12-6-.22-1.37-.63-3.4-.91-4.75a91.38,91.38,0,0,0-2.43-9.37c-1.57-5-1.68-5.14-2.5-7.89-1.07-3.56-1-6.2-1.53-8-1.79-5.76-3.67-11.43-.26-14.84a7.47,7.47,0,0,1,.78-1c4.56-4.49,12.85-2.57,14-2.57C100.7,117.32,99.34,148.47,99.34,180.09Z" transform="translate(0 0)"/><path class="cls-2" d="M215.12,146c0,5.91-12.72,10.67-16.15,11.26-3.79.63-21.82,1.57-30.35,2.55A158.46,158.46,0,0,1,149.51,161c-18.75-.56-33.06.55-38.56-.78C96.81,156.7,84,150.66,83.87,146c-.24-7.46,33.26-17.46,65.64-17.46C185.75,128.7,215.12,136.41,215.12,146Z" transform="translate(0 0)"/><path class="cls-2" d="M245.36,132.09c6,13.09,10.91,27,19,54.74,0,0,3.4,11.92,7.28,33.15.77,4.16,3.32,9,.53,10.56-.37.19-.9,1.66-3,.8-3.12-1.3-15.78.55-16.89,0-4.06-2,0-8.07.52-8.9,4.89-7.77,6.77-2.51,6.11-3.82-2.59-5.21-5.32-11.52-11.71-23.71-2.64-5.11-5-9.47-8.16-15-1-1.86-7.71-5.2-20.1-12.42-11.28-6.55-19.22-6-21.82-13.27-7.16-20.44-5.15-48.61,6.7-54.17,8.73-4.08,21.43.72,23.76,3.2C233.58,109.68,238,116.25,245.36,132.09Z" transform="translate(0 0)"/><path class="cls-2" d="M155.05,186c.22,2.19,2.18,26.69,2.33,31.77,0,0,1.86,7.73.9,12.24-.11.51-1.64.51-1.86.68-1.24,1.11-2.53-1.46-4.67-.13a7.4,7.4,0,0,1-5.14.7,7.48,7.48,0,0,1-4.37-.64c-.83-.61-4.36,1.73-5.48-.34-1.37-2.58,1-7.69,1.47-9a4.84,4.84,0,0,1,3.51-2.56c1-.13,1.53.31,1.83-.39h0c-.15-8.29-7.81-24.2-9.12-32.36-.46-2.88-4.36-9.29-6.54-24.43-2-13.86.26-18.88,3-21.65,3.73-3.77,11.34-3.1,15.9-3.1C159.72,136.82,152.43,160,155.05,186Z" transform="translate(0 0)"/><path class="cls-2" d="M240.76,87.25a76,76,0,0,1-11.87,16c-.18.22-1.12,2-2.19,2.42,0,0-.41,3.54-4.95,2.58-1.9-.42-12.24-7.23-10.69-8.91C224,85.55,235.52,72.8,233.9,63.66c-.82-4.76-3.88-10.91-8.46-12.76a12.48,12.48,0,0,0-9.45.32h0a23.8,23.8,0,0,0-8.38,9.84h0c-.39-.11-4.54,13.79-4.56,13.71-1.94-6-3.71-10.24-3.71-15.43a21,21,0,0,1,6.88-16.06c3.47-3.12,6.32-5.85,17.19-4.84C230,39.05,239,47.16,239.73,48a31.48,31.48,0,0,1,6,15.23A33.11,33.11,0,0,1,240.76,87.25Z" transform="translate(0 0)"/></g><g id="DOG"><path class="cls-3" d="M194.5,157.79l11.83,57.54s-8.19,0-7.82,10.28h22.87L219,167.5s-10.28-4.69-12.26-9.71Z" transform="translate(0 0)"/><path class="cls-4" d="M202.55,225.5v-3.78a.7.7,0,0,1,.6-.78.69.69,0,0,1,.77.54.33.33,0,0,1,0,.24v3.78Zm5.87,0v-3.78a.7.7,0,0,1,.6-.78.69.69,0,0,1,.77.54.33.33,0,0,1,0,.24v3.78Z" transform="translate(0 0)"/><path class="cls-3" d="M100.37,16.22S106.44,5,116.06.19a2.18,2.18,0,0,1,1.77,0,2.13,2.13,0,0,1,1.28,1.18A17,17,0,0,1,120.4,5.9c.48,3.15,1,11.9-2.62,17.83A18.35,18.35,0,0,0,100.37,16.22Z" transform="translate(0 0)"/><path class="cls-5" d="M221.84,112.27l1.92,3.26a.65.65,0,0,0,.89.25h0a.71.71,0,0,0,.26-.94L223,111.58a.71.71,0,0,0-1-.25h0a.66.66,0,0,0-.26.89l0,0Z" transform="translate(0 0)"/><path class="cls-5" d="M226.2,114.39l1.66,2.62a.67.67,0,0,0,.93.21h0a.71.71,0,0,0,.2-.94h0l-1.64-2.62a.7.7,0,0,0-1-.15A.71.71,0,0,0,226.2,114.39Z" transform="translate(0 0)"/><path class="cls-5" d="M142.22,223.82s-.2,5.08,0,7.42a.72.72,0,0,0,.76.63.67.67,0,0,0,.61-.74h0c-.17-2.19,0-7.27,0-7.27a.7.7,0,1,0-1.36-.29.09.09,0,0,0,0,.05.49.49,0,0,0,0,.24Z" transform="translate(0 0)"/><path class="cls-5" d="M147.5,224l.17,6.55a.71.71,0,0,0,.7.7h0a.68.68,0,0,0,.66-.7h0l-.18-6.68a.67.67,0,0,0-.69-.65h0a.67.67,0,0,0-.67.67Z" transform="translate(0 0)"/><path class="cls-5" d="M77.39,219a29.15,29.15,0,0,0,.18,6.73.65.65,0,0,0,.78.49h.05a.68.68,0,0,0,.5-.79h0a27.32,27.32,0,0,1-.13-6.26.67.67,0,0,0-.61-.74h0a.67.67,0,0,0-.74.6h0Z" transform="translate(0 0)"/><path class="cls-5" d="M82.32,219s.22,4.36.18,6.08a.67.67,0,0,0,.63.72h0a.68.68,0,0,0,.72-.65c0-1.7-.17-6.22-.17-6.22a.67.67,0,0,0-.7-.65h0a.68.68,0,0,0-.66.69h0Z" transform="translate(0 0)"/><path class="cls-5" d="M255.4,224s0,3.56.17,6.55a.7.7,0,0,0,.6.78.71.71,0,0,0,.78-.54.49.49,0,0,0,0-.24c-.18-3-.16-6.55-.16-6.55a.69.69,0,0,0-.69-.7h0A.7.7,0,0,0,255.4,224Z" transform="translate(0 0)"/><path class="cls-5" d="M260.7,224s.24,2.61.3,6.54a.69.69,0,0,0,.68.68h0a.69.69,0,0,0,.68-.68h0a64.79,64.79,0,0,0-.31-6.68.72.72,0,0,0-.76-.63.7.7,0,0,0-.61.78h0Z" transform="translate(0 0)"/><path class="cls-5" d="M127.71,161.57l-2.18-7.38a1.85,1.85,0,0,0-2.33-1.2h0a1.8,1.8,0,0,0-1.13,1L119,161.43S126.23,162.24,127.71,161.57Z" transform="translate(0 0)"/><path class="cls-5" d="M133.73,64.45s-12.52-.14-23.15-.46a1.93,1.93,0,0,0-2,1.55,1.89,1.89,0,0,0,1.31,2.18,162.48,162.48,0,0,0,32.73,7.42L135.52,68Z" transform="translate(0 0)"/><path class="cls-5" d="M152.43,154.1,153,161h3.38l-.63-7.22a1.69,1.69,0,1,0-3.36.31Z" transform="translate(0 0)"/><path class="cls-5" d="M101.13,156.81a131.54,131.54,0,0,1-12.32-7.7,1.42,1.42,0,0,0-2,.15,1.41,1.41,0,0,0,0,1.81c4.62,6.55,10.4,14.47,13.09,16.54Z" transform="translate(0 0)"/><path class="cls-5" d="M208.33,158l-7.39-15.89a1.88,1.88,0,0,0-2.19-1,1.83,1.83,0,0,0-1.37,1.92c.57,7,1.22,15,1.22,15Z" transform="translate(0 0)"/><path class="cls-5" d="M72.44,45.16A11.62,11.62,0,0,1,70,47.34a3.05,3.05,0,0,1-2.84.3,3,3,0,0,1-1.83-2.18c-.72-3.68-2-10.21-2.86-14.59a8.37,8.37,0,0,1,3-8.17l9.23-7.3a12.54,12.54,0,0,1,4.19-2.19,6.8,6.8,0,0,1,5.91.46A5.69,5.69,0,0,1,87,16.53l17.28-1.29a14.41,14.41,0,0,1,14.58,9.19L120,27.37a12.17,12.17,0,0,0,11.37,7.82h14.27A3.84,3.84,0,0,1,149.33,38c1.46,4.95.81,13.29,0,19.07a9.11,9.11,0,0,1-7.77,7.83l-6.69,1C168.71,102.61,215.6,93,215.6,93a.7.7,0,0,1,.81.54.68.68,0,0,1-.52.81h0s-48.42,10-82.91-28.56a.64.64,0,0,1-.15-.68.72.72,0,0,1,.56-.46l8-1.13a7.75,7.75,0,0,0,6.54-6.66c.75-5.63,1.42-13.7,0-18.5a2.5,2.5,0,0,0-2.37-1.79H131.27a13.57,13.57,0,0,1-12.68-8.73l-1.16-3a13.09,13.09,0,0,0-13.09-8.31L86.47,17.93a.7.7,0,0,1-.72-.51A4.38,4.38,0,0,0,84,14.87a5.53,5.53,0,0,0-4.76-.28,11.26,11.26,0,0,0-3.71,1.94l-9.23,7.31a7,7,0,0,0-2.51,6.68c.85,4.36,2.18,10.91,2.86,14.59a1.59,1.59,0,0,0,1,1.2,1.62,1.62,0,0,0,1.55-.15,11.48,11.48,0,0,0,3.43-3.93.73.73,0,0,1,.8-.32.67.67,0,0,1,.51.69s-1.84,44.47-6.75,61.1h0s-5.06,15.14,6.72,47.65h0s8.58,37.34,10.3,61.56a.66.66,0,0,1-.56.72h-.2a9.8,9.8,0,0,0-6.74,1.92c-1.84,1.52-3.19,4.23-2.84,9H95.29l4.93-67.45a.65.65,0,0,1,.7-.6.61.61,0,0,1,.26.08s12.91,5.6,25.55,3.34a.65.65,0,0,1,.76.5l16.93,57.54a.75.75,0,0,1-.13.61.68.68,0,0,1-.54.28,7,7,0,0,0-5.07,2.42c-1.35,1.64-2.18,4.37-1.59,8.73h21.19l-5.11-69.36a.65.65,0,0,1,.18-.51.6.6,0,0,1,.48-.24l53-3.05a1,1,0,0,1,1,.48c1.87,3,4.36,7.11,17.69,12.65a36.79,36.79,0,0,1,18.33,16.94c6,11.54,14.12,27.47,15.27,30.74a1.89,1.89,0,0,1,0,1,.75.75,0,0,1-.43.46,8.28,8.28,0,0,0-5.35,2.84,11.15,11.15,0,0,0-1.72,8.42H272.7c-1.37-8.73-14.36-86.43-44-126.18a.7.7,0,0,1,.32-.94.72.72,0,0,1,.79.13C261.46,145.68,274.31,231,274.31,231a.63.63,0,0,1-.15.56.69.69,0,0,1-.52.24H250.92a.67.67,0,0,1-.67-.61,12.8,12.8,0,0,1,1.92-10.06,8.9,8.9,0,0,1,5.3-3.16c-.11-.33-.28-.83-.5-1.33-2.18-5.19-9.19-18.85-14.49-29.07a35.36,35.36,0,0,0-17.63-16.27c-13.51-5.65-16.28-10-18.22-13.09l-52.08,3.33L159.63,231a.66.66,0,0,1-.17.52.76.76,0,0,1-.51.22H136.44a.72.72,0,0,1-.7-.59c-.87-5.37.24-8.58,1.81-10.48a8.21,8.21,0,0,1,5.24-2.85l-16.5-56.17a51.8,51.8,0,0,1-24.83-3.18l-4.91,67.14a.67.67,0,0,1-.68.65H73.25a.69.69,0,0,1-.68-.63c-.59-5.76,1.09-9,3.25-10.78a10.91,10.91,0,0,1,7-2.18C81,189,72.9,153.49,72.59,152.14c-11.74-32.42-6.91-47.89-6.72-48.53C70.06,89.17,72,54.65,72.44,45.16Z" transform="translate(0 0)"/><path class="cls-5" d="M203.05,71.71c1.16-4,4.06-12.57,8.73-17.82a12.69,12.69,0,0,1,7.75-4.57,13.13,13.13,0,0,1,10.05,3.82c5.39,4.59,6.24,10.59,4.5,16.8-2.53,9-10.69,18.53-18,24.36a.7.7,0,0,1-1-.11.71.71,0,0,1,.11-1c7.11-5.65,15.05-14.85,17.45-23.63,1.6-5.69.88-11.19-4.06-15.27a11.75,11.75,0,0,0-9-3.51,11.33,11.33,0,0,0-6.89,4.1c-6.13,6.85-9.08,19.42-9.08,19.42a.69.69,0,0,1-.63.52.7.7,0,0,1-.7-.46c-7-19.15-.85-31.46,9-35.45s23.65.26,32.16,14.49c5.34,8.9,4.16,18.87.8,27.64a80,80,0,0,1-14.75,23.28.71.71,0,0,1-1,0,.68.68,0,0,1,0-1h0a78.9,78.9,0,0,0,14.58-22.93c3.21-8.38,4.36-17.91-.7-26.42-8.1-13.51-21.1-17.74-30.55-14C202.92,43.72,197.55,54.71,203.05,71.71Z" transform="translate(0 0)"/><path class="cls-6" d="M140,35.34s1.39,12.13,9.95,11.15V39.81a4.39,4.39,0,0,0-1.27-3.16,4.47,4.47,0,0,0-3.16-1.31Z" transform="translate(0 0)"/><path class="cls-5" d="M73.05,42s5.11-7.6,8.45-13.71a1.22,1.22,0,0,1,2.35.55c-.78,7.18-3.31,18.28-11,26Z" transform="translate(0 0)"/><circle class="cls-7" cx="135.72" cy="48.93" r="1.46"/><circle class="cls-7" cx="141.7" cy="51.2" r="1.29"/><circle class="cls-7" cx="137.99" cy="55.11" r="1.33"/><path class="cls-6" d="M105.13,33.7S101,28,97.45,31c-2.38,2,1.92,17.63,8.37,19.07,1.23.28,9.17-3.12,7.73-14C113.46,34.88,111.28,29.21,105.13,33.7Z" transform="translate(0 0)"/></g></svg>