<svg id="Capa_1" data-name="Capa 1" xmlns="http://www.w3.org/2000/svg" viewBox="0 0 291 260.5"><defs><style>.cls-1{fill:#b74d2f;stroke:#b74d2f;stroke-miterlimit:10;}.cls-2{fill:#591900;fill-rule:evenodd;}.cls-3,.cls-4,.cls-6{fill:none;}.cls-4,.cls-6{stroke:#fe965c;stroke-linejoin:round;}.cls-4{stroke-width:3px;}.cls-5{fill:#fe965c;}.cls-7{isolation:isolate;font-size:41.97px;fill:#fff;font-family:SourceSansPro-Bold, Source Sans Pro;font-weight:700;}</style></defs><g id="HAND-2"><path class="cls-1" d="M187.28,260s-.23-39.45,11.41-55.4c0,0,13-17.42,16.55-22.87a27,27,0,0,1,4.7-7.56,3.15,3.15,0,0,1,2.23-1,3,3,0,0,1,2.24.84c2.46,2.31,6,8.19,3.13,22.67l27.07-12s8.72-26.66,16.33-25.82c0,0,3.13-.21,2.24,12.8,0,0,4.25-6.08,7.83-3.77,0,0,4.25,3.56.44,20.14,0,0,7.38-4.82,8.5.84a5.22,5.22,0,0,1-1.12,4,238.81,238.81,0,0,1-30.42,28.75l-.89,38.19Z" transform="translate(0.5)"/><path class="cls-2" d="M224.19,210.48a37.14,37.14,0,0,0,1.34-7.14,1.07,1.07,0,0,1,.45-.84h0a.93.93,0,0,1,.89.63,37.08,37.08,0,0,1-1.12,6.93h0a11.07,11.07,0,0,1,2.69-.21,24.52,24.52,0,0,1,7.83,1.47,1.1,1.1,0,0,1,.55,1.51,1.23,1.23,0,0,1-1.45.58h0a26.82,26.82,0,0,0-7.16-1.46,15.59,15.59,0,0,0-3.13.2,28.86,28.86,0,0,1-1.56,4.62,6.43,6.43,0,0,1-3.36,2.94,2.86,2.86,0,0,1-3.35-1.05,3,3,0,0,1-.23-3.78,9.56,9.56,0,0,1,3.8-3.35A25,25,0,0,1,224.19,210.48Zm-.67,2.09a9,9,0,0,0-2,.84,8.34,8.34,0,0,0-2.91,2.52,1.23,1.23,0,0,0,0,1.68,3.17,3.17,0,0,0,.9.63,1.39,1.39,0,0,0,.89-.21,3.74,3.74,0,0,0,1.79-1.89C222.62,214.88,223.07,213.83,223.52,212.57Z" transform="translate(0.5)"/><path class="cls-2" d="M252.82,187l.67-2.3,2.69-1.26-1.12,4.4c0,.21-.23.42-.45.63L239,198.93c-.67.21-1.34.21-1.56-.42a1.22,1.22,0,0,1,.22-1.46Z" transform="translate(0.5)"/><path class="cls-2" d="M260.87,194.53c4-14.69,9.17-21.62,12.31-24.55l.22-.21v3.35l-.22.21c-2.91,3.36-6.71,9.87-9.85,21.62a.75.75,0,0,1-.22.63.93.93,0,0,1-.9.63l-18.34,12a1.16,1.16,0,0,1-1.56-.21,1,1,0,0,1,.22-1.47h0Z" transform="translate(0.5)"/><path class="cls-2" d="M282.35,185.92s-34.45,26-34.45,26.23c0,.63-.45,1-.23,1.68a1.4,1.4,0,0,0,1.79,0c0-.21,32.44-25,32.44-25" transform="translate(0.5)"/><path class="cls-2" d="M257.72,220.7l-14.54,13a1.7,1.7,0,0,0-.23,2.51,1.51,1.51,0,0,0,.23.21,1.93,1.93,0,0,0,1.34.63l12.75.42Z" transform="translate(0.5)"/></g><g id="HAND-1"><path class="cls-1" d="M103,260s.22-39.45-11.41-55.4c0,0-13-17.42-16.56-22.87a27.14,27.14,0,0,0-4.69-7.56,3.34,3.34,0,0,0-4.48-.21h0c-2.46,2.31-6,8.19-3.13,22.67l-27.07-12S26.67,158,19.28,158.85c0,0-3.13-.21-2.23,12.8,0,0-4.25-6.08-8.06-3.77,0,0-4,3.56-.44,20.14,0,0-7.38-4.82-8.5.84a5.22,5.22,0,0,0,1.12,4A252.84,252.84,0,0,0,31.36,221.6l1.35,38.19Z" transform="translate(0.5)"/><path class="cls-2" d="M66,210.48a36.41,36.41,0,0,1-1.35-7.14c0-.42-.22-.63-.67-.84a1.18,1.18,0,0,0-.89.42h0a37.08,37.08,0,0,0,1.12,6.93h0a11.07,11.07,0,0,0-2.69-.21,24.52,24.52,0,0,0-7.83,1.47,1.11,1.11,0,0,0-.78,1.42,1.23,1.23,0,0,0,1.51.74l.17-.07h0a26.82,26.82,0,0,1,7.16-1.46,14.89,14.89,0,0,1,3.13.21,29.09,29.09,0,0,0,1.56,4.61,6.43,6.43,0,0,0,3.36,2.94,2.86,2.86,0,0,0,3.35-1.05,3.34,3.34,0,0,0,.45-3.78,9.5,9.5,0,0,0-3.8-3.35C68.5,211.11,67.38,210.69,66,210.48Zm.67,2.09a8.9,8.9,0,0,1,2,.84,8.26,8.26,0,0,1,2.91,2.52,1.4,1.4,0,0,1-.48,2L71,218a.22.22,0,0,0-.23.21,1.39,1.39,0,0,1-.89-.21,5,5,0,0,1-1.79-1.89C67.6,214.88,67.15,213.83,66.71,212.57Z" transform="translate(0.5)"/><path class="cls-2" d="M37.4,187l-.67-2.3-2.68-1.26,1.34,4.4c0,.21.22.42.45.63L51.5,198.93c.67.21,1.34.21,1.56-.42a1.23,1.23,0,0,0-.22-1.46Z" transform="translate(0.5)"/><path class="cls-2" d="M29.57,193.9c-4-13.64-9.17-20.15-12.07-22.87l-.23-.21L17.5,174l.22.21a53.21,53.21,0,0,1,9.84,20.15.73.73,0,0,0,.23.63c.22.42.44.63.89.63L46.8,206.7c.45.21,1.34.21,1.56-.21a1,1,0,0,0-.18-1.44l0,0Z" transform="translate(0.5)"/><path class="cls-2" d="M9.44,187.6s32.89,23.72,32.89,23.93c0,.62.44,1,0,1.46a1.12,1.12,0,0,1-1.52,0l-.05,0c0-.21-30.87-22.66-30.87-22.66" transform="translate(0.5)"/><path class="cls-2" d="M31.7,220.51l14.76,13a1.56,1.56,0,0,1,.45,2.1,2.2,2.2,0,0,1-1.79,1.25l-12.75.42Z" transform="translate(0.5)"/></g><g id="Elipse_25" data-name="Elipse 25"><ellipse class="cls-3" cx="141.59" cy="83.94" rx="89.48" ry="83.94"/><ellipse class="cls-4" cx="141.59" cy="83.94" rx="86.12" ry="80.79"/></g><g id="Elipse_26-2" data-name="Elipse 26-2"><ellipse class="cls-5" cx="141.59" cy="83.94" rx="67.11" ry="62.95"/><ellipse class="cls-6" cx="141.59" cy="83.94" rx="65.99" ry="61.9"/></g><g id="SOS_" data-name="SOS "><text class="cls-7" transform="translate(101.32 100.73) scale(1.07 1)">SOS</text></g></svg>